<?xml version="1.0" encoding="utf-8"?>
<!-- Generator: Adobe Illustrator 21.0.0, SVG Export Plug-In . SVG Version: 6.00 Build 0)  -->
<svg version="1.1" id="Слой_1" xmlns="http://www.w3.org/2000/svg" xmlns:xlink="http://www.w3.org/1999/xlink" x="0px" y="0px"
	 viewBox="0 0 511 511" style="enable-background:new 0 0 511 511;" xml:space="preserve">
<style type="text/css">
	.st0{fill:#12A2A8;}
	.st1{fill:#1DD1D9;}
	.st2{fill:#3FEFEF;}
	.st3{fill:#EC322C;}
	.st4{fill:#E86767;}
	.st5{fill:#ED4F4F;}
</style>
<path class="st0" d="M491.1,372.2L255.8,502.5V267.2l235.3-130.4V372.2z"/>
<path class="st1" d="M491.1,372.2L255.8,502.5v-86.9l148.4-82.2L491.1,372.2z"/>
<path class="st1" d="M20.5,372.2l235.3,130.4V267.2L20.5,136.8V372.2z"/>
<path class="st2" d="M107.4,185v148.4l-87,38.8V136.8L107.4,185z"/>
<path class="st2" d="M255.8,6.5L20.5,136.8l235.3,130.4l235.3-130.4L255.8,6.5z"/>
<path class="st0" d="M491.1,136.8l-87,48.2l-148.4-82.2V6.5L491.1,136.8z"/>
<path class="st3" d="M404.1,333.4l-148.4,82.2V267.2L404.1,185V333.4z"/>
<path class="st4" d="M107.4,333.4l148.4,82.2V267.2L107.4,185V333.4z"/>
<path class="st5" d="M255.8,102.8L107.4,185l148.4,82.2L404.1,185L255.8,102.8z"/>
<path d="M373.3,307.6l-17.6,9.8c-3.6,2-4.9,6.6-2.9,10.2c1.4,2.5,3.9,3.9,6.6,3.9c1.2,0,2.5-0.3,3.6-0.9l17.6-9.8
	c3.6-2,4.9-6.6,2.9-10.2C381.4,306.9,376.9,305.6,373.3,307.6z"/>
<path d="M373.3,286.4l-17.6,9.8c-3.6,2-4.9,6.6-2.9,10.2c1.4,2.5,3.9,3.9,6.6,3.9c1.2,0,2.5-0.3,3.6-0.9l17.6-9.8
	c3.6-2,4.9-6.6,2.9-10.2C381.4,285.7,376.9,284.4,373.3,286.4z"/>
<path d="M497.5,376.1c0.7-1.2,1.1-2.5,1.1-3.9v-65.9c0-4.1-3.4-7.5-7.5-7.5c-4.1,0-7.5,3.3-7.5,7.5v54.3l-72-32.1V189.4l72-39.9
	v124.2c0,4.1,3.4,7.5,7.5,7.5c4.1,0,7.5-3.3,7.5-7.5V136.8c0-2.7-1.5-5.3-3.9-6.5L259.4-0.1c-2.2-1.2-5-1.2-7.3,0L16.8,130.3
	c-2.4,1.3-3.9,3.9-3.9,6.6v235.2c0,2.7,1.5,5.3,3.9,6.5l103.7,57.4c3.6,2,8.2,0.7,10.2-2.9c2-3.6,0.7-8.2-2.9-10.2l-90.6-50.2
	l69.8-31.1L248.3,420v69.8l-90.8-50.3c-3.6-2-8.2-0.7-10.2,2.9c-2,3.6-0.7,8.2,2.9,10.2l101.9,56.5c2.2,1.2,5,1.2,7.3,0l106.9-59.2
	c3.6-2,4.9-6.6,2.9-10.2c-2-3.6-6.6-4.9-10.2-2.9l-95.8,53.1V420l141.2-78.2l69.8,31.1l-85.6,47.4c-3.6,2-4.9,6.6-2.9,10.2
	c1.4,2.5,3.9,3.9,6.6,3.9c1.2,0,2.5-0.3,3.6-0.9l98.7-54.7C495.8,378.1,496.8,377.2,497.5,376.1z M255.8,111.4L388.7,185
	l-132.9,73.6L122.9,185L255.8,111.4z M404.1,176.5L263.3,98.4V19.2l212.4,117.7L404.1,176.5z M248.3,98.4l-140.9,78.1l-71.5-39.6
	L248.3,19.2V98.4z M27.9,149.5l72,39.9v139.1l-72,32.1V149.5z M114.9,197.7l54.3,30.1l79.1,43.8v131.2L114.9,329V197.7z
	 M263.3,271.6l133.4-73.9V329l-133.4,73.9V271.6z"/>
</svg>
