<?xml version="1.0"?>
<svg xmlns="http://www.w3.org/2000/svg" viewBox="0 0 64 64" width="512" height="512"><g fill="#ec322c"><path d="m61.707 31.293-6-6-1.414 1.414 4.29294 4.293h-22.58594v2h22.58594l-4.293 4.293 1.41406 1.414 6-6a.99962.99962 0 0 0 0-1.414z"/><path d="m38.707 8.293-6-6a.99962.99962 0 0 0 -1.41406 0l-6 6 1.41406 1.414 4.293-4.29294v22.58594h2v-22.58594l4.293 4.293z"/><path d="m28 31h-22.58594l4.293-4.293-1.41406-1.414-6 6a.99962.99962 0 0 0 0 1.41406l6 6 1.414-1.41406-4.29294-4.293h22.58594z"/><path d="m37.293 54.293-4.293 4.29294v-23.58594h-2v23.58594l-4.293-4.293-1.414 1.41406 6 6a.99963.99963 0 0 0 1.41406 0l6-6z"/></g><circle cx="32" cy="32" fill="#344496" r="4"/><path d="m61 62h-8v-2h7v-7h2v8a.99943.99943 0 0 1 -1 1z"/><path d="m62 11v-8a.99943.99943 0 0 0 -1-1h-8v2h5.58594l-23.833 23.833a4.96544 4.96544 0 0 0 -5.50586 0l-23.83302-23.833h5.58594v-2h-8a.99943.99943 0 0 0 -1 1v8h2v-5.58594l23.833 23.833a4.96544 4.96544 0 0 0 0 5.50586l-23.833 23.83302v-5.58594h-2v8a.99943.99943 0 0 0 1 1h8v-2h-5.58594l23.833-23.833a4.96544 4.96544 0 0 0 5.50586 0l25.54 25.54 1.41408-1.414-25.54-25.54a4.96544 4.96544 0 0 0 0-5.50586l23.833-23.83308v5.58594zm-30 24a3 3 0 1 1 3-3 3.00328 3.00328 0 0 1 -3 3z"/></svg>
