<svg xmlns="http://www.w3.org/2000/svg" viewBox="0 0 41.31 41.31"><defs><style>.cls-1{fill:#00a2db;}.cls-2{fill:#00c5ff;}.cls-3{fill:#003fff;}.cls-4{fill:#008eff;}.cls-5{fill:#27d3fc;}.cls-6{fill:#3ddff9;}.cls-7{fill:#fff;}.cls-8{fill:#d2ffff;}.cls-9{fill:#f5aa4a;}.cls-10{fill:#e5953e;}.cls-11{fill:#ffd28a;}.cls-12{fill:#c47826;}</style></defs><title>Ресурс 13</title><g id="Слой_2" data-name="Слой 2"><g id="_лой_1" data-name="‘лой_1"><g id="_Группа_" data-name="&lt;Группа&gt;"><path id="_Контур_" data-name="&lt;Контур&gt;" class="cls-1" d="M30.46,26,18.27,38.17A10.7,10.7,0,0,1,3.14,23L15.33,10.85Z"/><ellipse id="_Контур_2" data-name="&lt;Контур&gt;" class="cls-2" cx="22.9" cy="18.41" rx="6" ry="10.7" transform="translate(-6.32 21.58) rotate(-45)"/><path id="_Контур_3" data-name="&lt;Контур&gt;" class="cls-2" d="M37.8,18l-5.24,5.24a4.53,4.53,0,1,1-6.41-6.41l5.24-5.24Z"/><path id="_Контур_4" data-name="&lt;Контур&gt;" class="cls-3" d="M35.3,15.76,15.93,35.13a6.87,6.87,0,0,1-1.4,1.08,2.39,2.39,0,1,0-3.95.87l.06.05A6.9,6.9,0,0,1,6.18,25.38L25.55,6Z"/><path id="_Контур_5" data-name="&lt;Контур&gt;" class="cls-4" d="M17.46,16.48,9,24.92a3.48,3.48,0,1,0,4.93,4.93l8.44-8.44Z"/><path id="_Контур_6" data-name="&lt;Контур&gt;" class="cls-5" d="M38.94,19.83,21.48,2.37,15.34,8.51h0c-2.7,2.7-1,8.81,3.84,13.63S30.1,28.68,32.8,26h0Z"/><path id="_Контур_7" data-name="&lt;Контур&gt;" class="cls-6" d="M35.08,16l-10.2,10.2a19.7,19.7,0,0,1-5.71-4,19.7,19.7,0,0,1-4-5.71l10.2-10.2Z"/><path id="_Контур_8" data-name="&lt;Контур&gt;" class="cls-7" d="M14.53,36.21a6.87,6.87,0,0,1-3.88.93l-.06-.05a2.39,2.39,0,1,1,3.95-.87Z"/><path id="_Контур_9" data-name="&lt;Контур&gt;" class="cls-7" d="M14,37.08a2.39,2.39,0,0,1-3.33.05,6.87,6.87,0,0,0,3.88-.93A2.41,2.41,0,0,1,14,37.08Z"/><path id="_Контур_10" data-name="&lt;Контур&gt;" class="cls-7" d="M29.4,10.29l-11,11a17.49,17.49,0,0,1-3.9-6.72c-.07-.23-.12-.46-.17-.69l9.34-9.34Z"/><ellipse id="_Контур_11" data-name="&lt;Контур&gt;" class="cls-8" cx="30.21" cy="11.1" rx="6.92" ry="12.35" transform="translate(1 24.61) rotate(-45)"/><path id="_Контур_12" data-name="&lt;Контур&gt;" class="cls-9" d="M40.44,12.76l-3.85,3.85a3.51,3.51,0,0,1-3,.83,11.14,11.14,0,0,1-6.12-3.27L27.31,14C24,10.71,22.86,6.56,24.7,4.72L28.55.87Z"/><path id="_Контур_13" data-name="&lt;Контур&gt;" class="cls-10" d="M40.84,10.22l-7.23,7.23a11.14,11.14,0,0,1-6.12-3.27l8.65-8.65Z"/><ellipse id="_Контур_14" data-name="&lt;Контур&gt;" class="cls-11" cx="34.5" cy="6.81" rx="4.71" ry="8.4" transform="translate(5.29 26.39) rotate(-45)"/><ellipse id="_Контур_15" data-name="&lt;Контур&gt;" class="cls-9" cx="31.76" cy="7.11" rx="0.86" ry="1.54" transform="translate(4.27 24.54) rotate(-45)"/><ellipse id="_Контур_16" data-name="&lt;Контур&gt;" class="cls-7" cx="33.79" cy="3.17" rx="0.86" ry="1.54" transform="translate(7.66 24.82) rotate(-45)"/><ellipse id="_Контур_17" data-name="&lt;Контур&gt;" class="cls-12" cx="37.63" cy="8.73" rx="0.86" ry="1.54" transform="translate(4.85 29.17) rotate(-45)"/></g></g></g></svg>