<svg xmlns="http://www.w3.org/2000/svg" viewBox="0 0 40.22 40.22"><defs><style>.cls-1{fill:#00a2db;}.cls-2{fill:#00c5ff;}.cls-3{fill:#7becff;}.cls-4{fill:#a1f6ff;}.cls-5{fill:#27d3fc;}.cls-6{fill:#3ddff9;}.cls-7{fill:#fff;}.cls-8{fill:#d2ffff;}</style></defs><title>Ресурс 11</title><g id="Слой_2" data-name="Слой 2"><g id="_лой_1" data-name="‘лой_1"><g id="_Группа_" data-name="&lt;Группа&gt;"><path id="_Контур_" data-name="&lt;Контур&gt;" class="cls-1" d="M30.46,24.9,18.27,37.09A10.7,10.7,0,0,1,3.14,21.95L15.33,9.76Z"/><ellipse id="_Контур_2" data-name="&lt;Контур&gt;" class="cls-2" cx="22.9" cy="17.33" rx="6" ry="10.7" transform="translate(-5.55 21.26) rotate(-45)"/><path id="_Контур_3" data-name="&lt;Контур&gt;" class="cls-2" d="M37.8,16.91l-5.24,5.24a4.53,4.53,0,0,1-6.41-6.41l5.24-5.24Z"/><path id="_Контур_4" data-name="&lt;Контур&gt;" class="cls-3" d="M35.3,14.67,15.93,34a6.89,6.89,0,0,1-9.75-9.75L25.55,4.92Z"/><path id="_Контур_5" data-name="&lt;Контур&gt;" class="cls-4" d="M17.46,15.4,9,23.83a3.48,3.48,0,0,0,4.93,4.93l8.44-8.44Z"/><path id="_Контур_6" data-name="&lt;Контур&gt;" class="cls-5" d="M38.94,18.74,21.48,1.28,15.34,7.42h0c-2.7,2.7-1,8.81,3.84,13.63S30.1,27.59,32.8,24.89h0Z"/><path id="_Контур_7" data-name="&lt;Контур&gt;" class="cls-6" d="M35.08,14.89l-10.2,10.2a19.7,19.7,0,0,1-5.71-4,19.7,19.7,0,0,1-4-5.71l10.2-10.2Z"/><circle id="_Контур_8" data-name="&lt;Контур&gt;" class="cls-7" cx="12.28" cy="34.3" r="2.4" transform="translate(-20.66 18.73) rotate(-45)"/><path id="_Контур_9" data-name="&lt;Контур&gt;" class="cls-7" d="M29.4,9.2l-11,11a17.49,17.49,0,0,1-3.9-6.72c-.07-.23-.12-.46-.17-.69l9.34-9.34Z"/><ellipse id="_Контур_10" data-name="&lt;Контур&gt;" class="cls-8" cx="30.21" cy="10.01" rx="6.92" ry="12.35" transform="translate(1.77 24.29) rotate(-45)"/><path id="_Контур_11" data-name="&lt;Контур&gt;" class="cls-6" d="M35.71,14.65a3.3,3.3,0,0,1-3.14.61,10.24,10.24,0,0,1-4.77-2.84A10.27,10.27,0,0,1,25,7.65a3.3,3.3,0,0,1,.61-3.14c1.57-1.57,5.11-.57,7.91,2.23S37.28,13.08,35.71,14.65Z"/><path id="_Контур_12" data-name="&lt;Контур&gt;" class="cls-1" d="M32.57,15.26a10.24,10.24,0,0,1-4.77-2.84A10.27,10.27,0,0,1,25,7.65a10.25,10.25,0,0,1,4.76,2.84A10.24,10.24,0,0,1,32.57,15.26Z"/></g></g></g></svg>