<svg xmlns="http://www.w3.org/2000/svg" viewBox="0 0 47.39 47.36"><defs><style>.cls-1{fill:#4c4e6c;}.cls-2{fill:#3f2f3d;}.cls-3{fill:#f48400;}.cls-4{fill:#f4ff00;}.cls-5{fill:#ffa100;}.cls-6{fill:#646694;}.cls-7{fill:#b02929;}.cls-8{fill:#ff4848;}.cls-9{fill:#fff;}.cls-10{fill:#7ba847;}.cls-11{fill:#bac6cc;}.cls-12{fill:#b1b2c9;}.cls-13{fill:#9597b6;}</style></defs><title>Ресурс 1</title><g id="Слой_2" data-name="Слой 2"><g id="_лой_1" data-name="‘лой_1"><g id="_Группа_" data-name="&lt;Группа&gt;"><path id="_Контур_" data-name="&lt;Контур&gt;" class="cls-1" d="M35.77,41.22a20.94,20.94,0,1,1,0-29.61A20.87,20.87,0,0,1,35.77,41.22Z"/><path id="_Контур_2" data-name="&lt;Контур&gt;" class="cls-1" d="M23.17,47.24a21.27,21.27,0,0,1-17-6,19.83,19.83,0,0,1-6-17,20.88,20.88,0,0,1,17,6A20.88,20.88,0,0,1,23.17,47.24Z"/><path id="_Контур_3" data-name="&lt;Контур&gt;" class="cls-2" d="M33.35,38.8a17.51,17.51,0,1,1,0-24.76A17.45,17.45,0,0,1,33.35,38.8Z"/><path id="_Контур_4" data-name="&lt;Контур&gt;" class="cls-3" d="M38.47,26.42h-35a17.51,17.51,0,0,0,35,.06Z"/><path id="_Контур_5" data-name="&lt;Контур&gt;" class="cls-4" d="M38.47,26c0,1.57-1.46,3-3.9,4.14C31.37,31.6,26.47,32.55,21,32.55s-10.4-1-13.61-2.44C4.92,29,3.46,27.53,3.46,26c0-3.64,7.84-6.59,17.51-6.59S38.47,22.33,38.47,26Z"/><path id="_Составной_контур_" data-name="&lt;Составной контур&gt;" class="cls-5" d="M21,21c-5.88,0-10.65,1.79-10.65,4,0,1,.89,1.83,2.37,2.52A20.67,20.67,0,0,0,21,29a20.67,20.67,0,0,0,8.28-1.49c1.48-.69,2.37-1.57,2.37-2.52C31.61,22.75,26.85,21,21,21ZM24.52,26a8.87,8.87,0,0,1-3.55.64A8.86,8.86,0,0,1,17.42,26c-.64-.3-1-.67-1-1.08,0-.95,2-1.72,4.57-1.72S25.53,24,25.53,25C25.53,25.37,25.15,25.75,24.52,26Z"/><circle id="_Контур_6" data-name="&lt;Контур&gt;" class="cls-6" cx="16.32" cy="14.98" r="2.67" transform="translate(-5.81 15.93) rotate(-45)"/><path id="_Контур_7" data-name="&lt;Контур&gt;" class="cls-7" d="M33.61,38.32,27,37.06,17.08,31,9.45,19.84l-.86-8.63L9.72,7.08l-.65-.65L3.82,11.68h0C-1.06,16.56,2,27.57,10.74,36.27s19.71,11.8,24.59,6.92h0l5.25-5.25L40,37.35Z"/><path id="_Контур_8" data-name="&lt;Контур&gt;" class="cls-8" d="M41.86,26.29a14.51,14.51,0,0,1-3,8.86h0a5.88,5.88,0,0,1-.44.5c-4.1,4.1-13.49,1.35-21-6.13s-10.23-16.88-6.13-21a5.91,5.91,0,0,1,1.11-.86h0a6.69,6.69,0,0,1,1.72-.73,20.23,20.23,0,0,1,7.38-1.49C16.43,3.55,11.73,3.76,9,6.52,4.1,11.4,7.2,22.41,15.9,31.11S35.61,42.91,40.49,38C43.09,35.43,43.42,31.09,41.86,26.29Z"/><circle id="_Контур_9" data-name="&lt;Контур&gt;" class="cls-8" cx="14.37" cy="35.06" r="1.77"/><ellipse id="_Контур_10" data-name="&lt;Контур&gt;" class="cls-8" cx="22.15" cy="40.2" rx="1.65" ry="1.37" transform="translate(-20.54 23.34) rotate(-39.6)"/><ellipse id="_Контур_11" data-name="&lt;Контур&gt;" class="cls-8" cx="8.33" cy="27.01" rx="1.65" ry="1.37" transform="translate(-19.89 25.3) rotate(-69.4)"/><ellipse id="_Контур_12" data-name="&lt;Контур&gt;" class="cls-8" cx="30.13" cy="42.81" rx="1.65" ry="1.14" transform="translate(-19.81 27.12) rotate(-37.42)"/><ellipse id="_Контур_13" data-name="&lt;Контур&gt;" class="cls-8" cx="4.69" cy="18.23" rx="1.65" ry="1.14" transform="translate(-13.95 15.62) rotate(-67.61)"/><g id="_Группа_2" data-name="&lt;Группа&gt;"><path id="_Контур_14" data-name="&lt;Контур&gt;" class="cls-1" d="M30,6.65,25.64,11h0a2.4,2.4,0,0,0-.22.18c-1.67,1.67-.61,5.42,2.36,8.4s6.73,4,8.4,2.36l3.63-3.89Z"/><path id="_Контур_15" data-name="&lt;Контур&gt;" class="cls-9" d="M29.79,6.86,25.64,11h0a2.4,2.4,0,0,0-.22.18c-1.12,1.12-1,3.17.08,5.3l4.76-4.76Z"/><ellipse id="_Контур_16" data-name="&lt;Контур&gt;" class="cls-10" cx="43.31" cy="4.23" rx="0.97" ry="1.66" transform="translate(9.69 31.87) rotate(-45)"/><g id="_Группа_3" data-name="&lt;Группа&gt;"><polygon id="_Контур_17" data-name="&lt;Контур&gt;" class="cls-11" points="26.54 6.41 26.54 6.41 26.54 6.41 26.54 6.41"/><polygon id="_Контур_18" data-name="&lt;Контур&gt;" class="cls-11" points="40.98 20.85 40.98 20.85 40.98 20.85 40.98 20.85"/></g><g id="_Группа_4" data-name="&lt;Группа&gt;"><ellipse id="_Контур_19" data-name="&lt;Контур&gt;" class="cls-11" cx="35.79" cy="11.6" rx="5.73" ry="10.21" transform="translate(2.28 28.7) rotate(-45)"/></g><g id="_Группа_5" data-name="&lt;Группа&gt;"><ellipse id="_Контур_20" data-name="&lt;Контур&gt;" class="cls-9" cx="38.83" cy="8.55" rx="5.73" ry="10.21" transform="translate(5.33 29.96) rotate(-45)"/></g><g id="_Группа_6" data-name="&lt;Группа&gt;"><path id="_Контур_21" data-name="&lt;Контур&gt;" class="cls-12" d="M46.77,10.11,43.91,13h0a1.46,1.46,0,0,1-.81.31l-3.45.2A1.45,1.45,0,0,1,38.53,13L34.36,8.86a1.43,1.43,0,0,1-.42-1.11l.19-3.45a1.46,1.46,0,0,1,.31-.81h0L37.28.62,39.46,2.8a1.44,1.44,0,0,1,.61.35l4.17,4.17a1.41,1.41,0,0,1,.35.6Z"/><path id="_Контур_22" data-name="&lt;Контур&gt;" class="cls-1" d="M46.77,10.11,43.91,13h0a1.46,1.46,0,0,1-.81.31l-3.45.2A1.45,1.45,0,0,1,38.53,13l-2.09-2.09,5.71-5.71,2.09,2.09a1.41,1.41,0,0,1,.35.6Z"/><rect id="_Прямоугольник_" data-name="&lt;Прямоугольник&gt;" class="cls-6" x="34.86" y="7.65" width="5.9" height="3.86" transform="translate(17.85 -23.93) rotate(45)"/><path id="_Контур_23" data-name="&lt;Контур&gt;" class="cls-13" d="M36.66,5l.2-3.45A1.45,1.45,0,0,1,38.23.2L41.68,0a1.45,1.45,0,0,1,1.11.42L47,4.59a1.45,1.45,0,0,1,.42,1.11l-.2,3.45a1.45,1.45,0,0,1-1.37,1.37l-3.45.2a1.45,1.45,0,0,1-1.11-.42L37.09,6.13A1.45,1.45,0,0,1,36.66,5Z"/><path id="_Контур_24" data-name="&lt;Контур&gt;" class="cls-6" d="M38.57,5.14l.13-2.23A.94.94,0,0,1,39.58,2l2.23-.13a.94.94,0,0,1,.72.27l2.69,2.69a.94.94,0,0,1,.27.72l-.13,2.23a.94.94,0,0,1-.88.88l-2.23.13a.94.94,0,0,1-.72-.27L38.84,5.86A.94.94,0,0,1,38.57,5.14Z"/></g></g></g></g></g></svg>