<svg height="402pt" viewBox="-3 0 402 402.77333" width="402pt" xmlns="http://www.w3.org/2000/svg"><g fill="#000000"><path d="m130.09375 402.773438c-3.773438 0-6.828125-3.058594-6.828125-6.828126v-232.105468c0-3.769532 3.054687-6.828125 6.828125-6.828125s6.828125 3.058593 6.828125 6.828125v232.105468c0 3.769532-3.054687 6.828126-6.828125 6.828126zm0 0"/><path d="m130.09375 136.535156c-3.773438 0-6.828125-3.054687-6.828125-6.824218v-122.882813c0-3.773437 3.054687-6.828125 6.828125-6.828125s6.828125 3.054688 6.828125 6.828125v122.882813c0 3.769531-3.054687 6.824218-6.828125 6.824218zm0 0"/><path d="m266.625 402.773438c-3.773438 0-6.824219-3.058594-6.824219-6.828126v-95.570312c0-3.769531 3.050781-6.824219 6.824219-6.824219s6.828125 3.054688 6.828125 6.824219v95.570312c0 3.769532-3.054687 6.828126-6.828125 6.828126zm0 0"/><path d="m266.625 273.066406c-3.773438 0-6.824219-3.054687-6.824219-6.828125v-259.410156c0-3.773437 3.050781-6.828125 6.824219-6.828125s6.828125 3.054688 6.828125 6.828125v259.410156c0 3.773438-3.054687 6.828125-6.828125 6.828125zm0 0"/><path d="m266.625 273.066406h-259.410156c-3.773438 0-6.828125-3.054687-6.828125-6.828125 0-3.769531 3.054687-6.824219 6.828125-6.824219h259.410156c3.773438 0 6.828125 3.054688 6.828125 6.824219 0 3.773438-3.054687 6.828125-6.828125 6.828125zm0 0"/><path d="m389.507812 273.066406h-122.882812c-3.773438 0-6.824219-3.054687-6.824219-6.828125 0-3.769531 3.050781-6.824219 6.824219-6.824219h122.882812c3.773438 0 6.824219 3.054688 6.824219 6.824219 0 3.773438-3.050781 6.828125-6.824219 6.828125zm0 0"/></g><path d="m157.398438 157.011719h81.921874v81.921875h-81.921874zm0 0" fill="#344496"/><path d="m130.09375 136.535156h-122.878906c-3.773438 0-6.828125-3.058594-6.828125-6.828125s3.054687-6.828125 6.828125-6.828125h122.878906c3.773438 0 6.828125 3.058594 6.828125 6.828125s-3.054687 6.828125-6.828125 6.828125zm0 0" fill="#000000"/><path d="m389.507812 136.535156h-259.414062c-3.773438 0-6.828125-3.058594-6.828125-6.828125s3.054687-6.828125 6.828125-6.828125h259.414062c3.773438 0 6.824219 3.058594 6.824219 6.828125s-3.050781 6.828125-6.824219 6.828125zm0 0" fill="#000000"/><path d="m334.894531 109.226562c0 37.703126-68.269531 116.054688-68.269531 116.054688s-68.265625-78.351562-68.265625-116.054688c0-37.703124 30.566406-68.265624 68.265625-68.265624 37.703125 0 68.269531 30.5625 68.269531 68.265624zm0 0" fill="#ec322c"/><path d="m266.625 232.105469c-1.972656 0-3.851562-.851563-5.144531-2.34375-2.855469-3.273438-69.945313-80.730469-69.945313-120.535157 0-41.40625 33.683594-75.09375 75.089844-75.09375 41.410156 0 75.09375 33.6875 75.09375 75.09375 0 39.804688-67.089844 117.261719-69.945312 120.535157-1.292969 1.492187-3.175782 2.34375-5.148438 2.34375zm0-184.320313c-33.878906 0-61.4375 27.5625-61.4375 61.441406 0 26.449219 40.460938 80.382813 61.4375 105.523438 20.980469-25.144531 61.441406-79.085938 61.441406-105.523438 0-33.878906-27.558594-61.441406-61.441406-61.441406zm0 0" fill="#000000"/><path d="m300.761719 109.226562c0 18.851563-15.285157 34.132813-34.136719 34.132813s-34.132812-15.28125-34.132812-34.132813c0-18.851562 15.28125-34.132812 34.132812-34.132812s34.136719 15.28125 34.136719 34.132812zm0 0" fill="#fff"/><path d="m266.625 150.1875c-22.585938 0-40.957031-18.375-40.957031-40.960938 0-22.585937 18.371093-40.960937 40.957031-40.960937s40.960938 18.375 40.960938 40.960937c0 22.585938-18.375 40.960938-40.960938 40.960938zm0-68.265625c-15.058594 0-27.304688 12.25-27.304688 27.304687 0 15.054688 12.246094 27.308594 27.304688 27.308594 15.0625 0 27.308594-12.253906 27.308594-27.308594 0-15.054687-12.246094-27.304687-27.308594-27.304687zm0 0" fill="#000000"/></svg>
