<?xml version="1.0" encoding="utf-8"?>
<!-- Generator: Adobe Illustrator 21.0.0, SVG Export Plug-In . SVG Version: 6.00 Build 0)  -->
<svg version="1.1" id="Capa_1" xmlns="http://www.w3.org/2000/svg" xmlns:xlink="http://www.w3.org/1999/xlink" x="0px" y="0px"
	 viewBox="0 0 512 512" style="enable-background:new 0 0 512 512;" xml:space="preserve">
<style type="text/css">
	.st0{fill:#EC322C;}
	.st1{fill:#AD2323;}
	.st2{fill:#344496;}
	.st3{fill:#1A6489;}
	.st4{fill:#EA976E;}
	.st5{fill:#E2865D;}
	.st6{fill:#5FAFE0;}
	.st7{fill:#4A94CC;}
	.st8{fill:#F0A479;}
	.st9{fill:#EA9063;}
	.st10{fill:#020202;}
</style>
<path class="st0" d="M256,120.8c-27.1,0-51.6,21.2-51.6,52.8c0,8.3,0,14.9,0,24.4h103.1c0-9,0-15.8,0-25.7
	C307.6,143.9,284.5,120.8,256,120.8z"/>
<path class="st1" d="M217.6,172.4c0-26.3,19.6-47.9,45-51.1c-29.5-3.8-58.1,18.2-58.1,52.4c0,8.3,0,14.9,0,24.4h13.1
	C217.6,186.2,217.6,184.4,217.6,172.4z"/>
<path class="st2" d="M335,286.7l-56.2-23.5l-22.3,26.3l-22.4-26.2L178,286.7c0,0-21.1,8.7-21.1,32.7v37.5c0,5.8,4.3,11.6,12.7,11.6
	c21,0,152.7,0,174.9,0c6.4,0,11.6-5.2,11.6-11.6v-37.5C356.1,295.3,335,286.7,335,286.7z"/>
<path class="st3" d="M176.3,356.9v-46.2c0-16.9,10.4-26.1,16.6-30.2l-14.8,6.2c0,0-21.1,8.7-21.1,32.7v37.5
	c0,5.8,4.3,11.6,12.7,11.6h18.3C181.5,368.5,176.3,363.3,176.3,356.9z"/>
<g>
	<path class="st4" d="M293.9,187.1c0,34.9,0,30.5,0,31.9c10.7,1.7,19.8-6.2,19.8-16C313.6,193.3,304.6,185.5,293.9,187.1z"/>
	<path class="st4" d="M218.2,187.1c-9.5-1.3-20.1,6-20.1,15.9c0,9.7,9.2,17.6,20.1,15.9C218.2,217.5,218.2,222.3,218.2,187.1z"/>
</g>
<g>
	<path class="st5" d="M308.7,191.7c-3.6-3.5-9-5.4-14.8-4.6c0,34.9,0,30.5,0,31.9c5.8,0.9,11.2-1,14.8-4.6V191.7z"/>
	<path class="st5" d="M218.2,214.5c-6.2-5.8-7.3-15.6,0-22.3v-5c-9.5-1.3-20.1,6-20.1,15.9c0,9.7,9.2,17.6,20.1,15.9
		C218.2,217.8,218.2,219.4,218.2,214.5z"/>
</g>
<path class="st4" d="M256.5,289.4l22.3-26.3l-0.8-18.4c-13.5,9.3-30.9,8.4-43.1,0.6l-0.8,17.9L256.5,289.4z"/>
<path class="st5" d="M253.6,258.5L253.6,258.5l0.3-7.1c-7.2-0.4-13.7-2.6-19-6l-0.8,17.9l22.4,26.2l10.1-11.8
	C255.4,264.5,253.6,263.4,253.6,258.5z"/>
<path class="st6" d="M169.6,368.5h23.2v-42.9c0-15.5-11.4-28.3-26.2-30.6c-5.2,5.5-8.5,12.3-9.4,20.2c-0.3,2.8-0.2,1.2-0.2,41.7
	C156.9,362.7,161.2,368.5,169.6,368.5z"/>
<path class="st7" d="M176.3,356.9c0-50.5-0.5-50.7,1.8-57.7c-3.4-2.1-7.3-3.6-11.5-4.2c-5.6,5.9-9,13.2-9.5,21.6
	c-0.2,2.1-0.1-1.4-0.1,40.4c0,5.8,4.3,11.6,12.7,11.6h18.3C181.5,368.5,176.3,363.3,176.3,356.9z"/>
<path class="st6" d="M346.5,294.9c-14.9,2.3-26.2,15.1-26.2,30.6v42.9c10,0,15.6,0,24.3,0c6.4,0,11.6-5.2,11.6-11.6v-37.5
	C356.1,309.9,352.7,301.4,346.5,294.9z"/>
<path class="st8" d="M281.4,166.7c-1.2-1.3-3.1-1.5-4.5-0.5c-15.3,10-35.6,16.4-55.6,14.9c-2-0.2-3.8,1.5-3.8,3.5v30.8
	c0,19.8,15.5,37.9,39,37.9c20.9,0,37.9-17,37.9-37.9V182C294.5,180.2,294.5,180.8,281.4,166.7z"/>
<path class="st9" d="M236.9,215.3v-34.7c-5.2,0.6-10.4,0.8-15.6,0.4c-2-0.2-3.8,1.5-3.8,3.5v30.8c0,25.5,24.2,42.8,48.3,36.7
	C248.2,247.8,236.9,232.2,236.9,215.3z"/>
<g>
	<path class="st10" d="M343.5,303.9c2.7,3.8,4.3,8.2,4.8,12.9c1,9.8,16,8.6,14.9-1.9c-2.8-25-24.6-34.2-25.5-34.6l-52-21.8l-0.3-8.1
		c6.4-5.4,11.3-12.6,14-20.7c22.1-2.2,31.5-28.3,15.4-43.1v-14.1c0-32.7-26.6-59.2-59.2-59.2c-32.7,0-59.2,26.6-59.2,59.2v14.7
		c-15.9,14.5-6.2,39.8,15.3,42.2c2.7,8.7,8,16.3,15.1,21.8l-0.3,7.4l-51.9,21.7c-1,0.4-23.3,9.9-25.6,35.5
		c-0.3,3.4-0.2-0.3-0.2,41.1c0,10.6,8.6,19.1,19.1,19.1c9.9,0,65.3,0,70.8,0c4.1,0,7.5-3.4,7.5-7.5s-3.4-7.5-7.5-7.5h-38.9v-34.7
		c0-13.5-7.2-25.7-18.1-32.7l49.9-20.9c20.3,23.8,20.2,24.8,24.6,24.8c2.1,0,4.3-0.9,5.7-2.6c3.8-4.4,15.5-18.3,18.8-22.2l50,20.9
		c-10.9,6.9-18.1,19.2-18.1,32.7V361h-38.9c-4.1,0-7.5,3.4-7.5,7.5s3.4,7.5,7.5,7.5h70.8c10.6,0,19.1-8.6,19.1-19.1v-5.8
		c0-4.1-3.4-7.5-7.5-7.5s-7.5,3.4-7.5,7.5v5.8c0,2.3-1.9,4.1-4.1,4.1h-16.9v-34.7C327.4,316.1,334.1,307.1,343.5,303.9z
		 M184.6,326.3V361h-16.9c-2.3,0-4.1-1.9-4.1-4.1c0-38.6-1.3-44.2,5-52.9C177.9,307.1,184.6,316.1,184.6,326.3z M301.6,195.7
		c8.4,3.8,8.3,14.4,0,18.1V195.7z M209.4,213.4c-7.1-3.3-8.9-12.7,0-17.3V213.4z M211.3,178.7v-6.2c0-24.4,19.8-44.2,44.2-44.2
		c24.4,0,44.2,19.8,44.2,44.2v3.8c-1.8-2.5-4.9-5.6-13.3-14.6c-3.6-3.9-9.5-4.7-14.1-1.7c-13.2,8.6-30,14-46,14
		C221.8,173.9,215.4,172.4,211.3,178.7z M256,278.4L241.2,261l0.1-2c9.4,2.9,19.9,3.1,29.4-0.2l0.1,2.3L256,278.4z M258.6,246.1
		c-18.8,1.6-34.2-12.1-34.2-30.4v-26.7c18.4,0.4,37.7-5.2,53.3-14.6c4.5,4.9,7.4,7.9,8.8,9.5c0,12,0,20.1,0,31.9
		C286.6,231.5,274.4,244.7,258.6,246.1z"/>
	<path class="st10" d="M256,97.3c4.1,0,7.5-3.4,7.5-7.5V47.2c9.7-3.2,16.7-12.3,16.7-23C280.2,10.9,269.3,0,256,0
		c-13.3,0-24.2,10.9-24.2,24.2c0,10.7,7,19.8,16.7,23v42.7C248.5,94,251.9,97.3,256,97.3z M246.8,24.2c0-5.1,4.1-9.2,9.2-9.2
		c5.1,0,9.2,4.1,9.2,9.2c0,5.1-4.1,9.2-9.2,9.2S246.8,29.3,246.8,24.2z"/>
	<path class="st10" d="M256,391.1c-4.1,0-7.5,3.4-7.5,7.5v66.2c-9.7,3.2-16.7,12.3-16.7,23c0,13.3,10.9,24.2,24.2,24.2
		c13.3,0,24.2-10.9,24.2-24.2c0-10.7-7-19.8-16.7-23v-66.2C263.5,394.5,260.1,391.1,256,391.1z M265.2,487.8c0,5.1-4.1,9.2-9.2,9.2
		s-9.2-4.1-9.2-9.2s4.1-9.2,9.2-9.2C261.1,478.6,265.2,482.7,265.2,487.8z"/>
	<path class="st10" d="M135.4,376.6c-2.9-2.9-7.7-2.9-10.6,0L103,398.4c-8.9-4.5-20.3-3.2-28.1,4.5c-15.2,15.2-4.4,41.3,17.1,41.3
		c18,0,29.7-19,21.6-35.1l21.7-21.7C138.3,384.3,138.3,379.6,135.4,376.6z M92.1,429.1c-8.1,0-12.3-9.9-6.5-15.7c3-3,8.2-4.2,13,0
		C104.4,419.2,100.2,429.1,92.1,429.1z"/>
	<path class="st10" d="M103,113.7c68.8,68.8,64.3,65.5,68.6,65.5c6.6,0,10-8.1,5.3-12.8L113.7,103c4.5-8.9,3.3-20.3-4.5-28.1
		c-15.3-15.3-41.3-4.3-41.3,17.1C67.9,110.1,87,121.8,103,113.7z M98.6,85.6c3.6,3.6,3.6,9.4,0,13c-5.8,5.8-15.7,1.6-15.7-6.5
		C82.9,83.9,92.8,79.9,98.6,85.6z"/>
	<path class="st10" d="M419.9,444.1c6.5,0,12.5-2.5,17.1-7.1c15.2-15.2,4.4-41.3-17.1-41.3c-3.9,0-7.6,0.9-11,2.6l-21.7-21.7
		c-2.9-2.9-7.7-2.9-10.6,0c-2.9,2.9-2.9,7.7,0,10.6l21.7,21.7C390.2,425.1,401.9,444.1,419.9,444.1z M419.9,410.7
		c8.1,0,12.3,9.9,6.5,15.7c-3.6,3.6-9.4,3.6-13,0C407.7,420.6,411.8,410.7,419.9,410.7z"/>
	<path class="st10" d="M47.2,263.5h108.9c4.1,0,7.5-3.4,7.5-7.5s-3.4-7.5-7.5-7.5H47.2c-5.6-17.2-27.4-22.3-40.1-9.6
		c-9.4,9.4-9.5,24.8,0,34.2C19.8,285.8,41.6,280.7,47.2,263.5z M17.7,262.5c-3.6-3.6-3.6-9.4,0-13c5.8-5.7,15.7-1.7,15.7,6.5
		C33.4,264.2,23.4,268.2,17.7,262.5z"/>
	<path class="st10" d="M470.7,238.9c-2.7,2.7-4.7,6-5.9,9.6H355.9c-4.1,0-7.5,3.4-7.5,7.5c0,4.1,3.4,7.5,7.5,7.5h108.9
		c1.2,3.6,3.2,6.9,5.9,9.6c15.2,15.2,41.3,4.4,41.3-17.1C512,234.5,485.9,223.7,470.7,238.9z M481.3,262.5c-3.6-3.6-3.6-9.4,0-13
		c5.8-5.8,15.7-1.7,15.7,6.5C497,264.2,487.1,268.3,481.3,262.5z"/>
	<path class="st10" d="M437,109.2c9.4-9.4,9.4-24.8,0-34.2c-15.3-15.3-41.3-4.3-41.3,17.1c0,3.9,0.9,7.6,2.6,11l-60.9,60.9
		c-2.9,2.9-2.9,7.7,0,10.6c2.9,2.9,7.7,2.9,10.6,0l60.9-60.9C417.9,118.2,429.3,116.9,437,109.2z M426.4,85.6
		c5.8,5.8,1.7,15.7-6.5,15.7c-5.1,0-9.2-4.1-9.2-9.2C410.7,83.9,420.7,79.9,426.4,85.6z"/>
</g>
</svg>
