<svg xmlns="http://www.w3.org/2000/svg" viewBox="0 0 40.64 55.41"><defs><style>.cls-1{fill:#00c5ff;}.cls-2{fill:#27d3fc;}.cls-3{fill:#d2ffff;}.cls-4{fill:#02df28;}.cls-5{fill:#02b728;}.cls-6{fill:#00acff;}.cls-7{fill:#e40000;}.cls-8{fill:#3ddff9;}.cls-9{fill:#fff;}.cls-10{fill:#f5aa4a;}.cls-11{fill:#e5953e;}.cls-12{fill:#ffd28a;}.cls-13{fill:#c47826;}.cls-14{fill:#02a128;}</style></defs><title>Ресурс 23</title><g id="Слой_2" data-name="Слой 2"><g id="_лой_1" data-name="‘лой_1"><g id="_Группа_" data-name="&lt;Группа&gt;"><path id="_Контур_" data-name="&lt;Контур&gt;" class="cls-1" d="M40.64,40.73a7,7,0,0,1-3.48,6L23.8,54.47a6.94,6.94,0,0,1-7,0L3.48,46.76A6.93,6.93,0,0,1,.93,44.21,6.85,6.85,0,0,1,0,40.73V25.3a7,7,0,0,1,3.48-6l13.36-7.71a7,7,0,0,1,7,0l13.36,7.71a7,7,0,0,1,3.48,6Z"/><path id="_Контур_2" data-name="&lt;Контур&gt;" class="cls-2" d="M39.71,44.22a7,7,0,0,1-2.54,2.54L23.8,54.47a6.94,6.94,0,0,1-7,0L3.48,46.76A6.93,6.93,0,0,1,.93,44.21a7,7,0,0,1,2.55-2.55L16.84,34a7,7,0,0,1,7,0l13.36,7.71A6.91,6.91,0,0,1,39.71,44.22Z"/><path id="_Контур_3" data-name="&lt;Контур&gt;" class="cls-3" d="M39.71,21.83a7,7,0,0,1-2.54,2.54l-3.06,1.76A4.85,4.85,0,0,0,32,23.52l-9.23-5.33a4.81,4.81,0,0,0-4.81,0L8.69,23.52a4.85,4.85,0,0,0-2.15,2.62L3.48,24.37A6.93,6.93,0,0,1,.93,21.83a7,7,0,0,1,2.55-2.55l13.36-7.71a7,7,0,0,1,7,0l13.36,7.71A6.91,6.91,0,0,1,39.71,21.83Z"/><path id="_Контур_4" data-name="&lt;Контур&gt;" class="cls-4" d="M34.11,26.14,23.8,32.09a6.94,6.94,0,0,1-7,0L6.54,26.14a4.85,4.85,0,0,1,2.15-2.62l9.23-5.33a4.81,4.81,0,0,1,4.81,0L32,23.52A4.85,4.85,0,0,1,34.11,26.14Z"/><path id="_Контур_5" data-name="&lt;Контур&gt;" class="cls-5" d="M34.36,38.35A4.8,4.8,0,0,1,32,42.51l-9.23,5.33a4.81,4.81,0,0,1-4.81,0L8.68,42.51a4.81,4.81,0,0,1-2.41-4.17V27.69a4.89,4.89,0,0,1,.25-1.55l10.31,5.95a6.84,6.84,0,0,0,3.33.93,6.92,6.92,0,0,0,3.64-.93l10.31-5.95a5,5,0,0,1,.25,1.55Z"/><g id="_Группа_2" data-name="&lt;Группа&gt;"><path id="_Контур_6" data-name="&lt;Контур&gt;" class="cls-1" d="M27.73,13.71H12.61v7.18h0c0,2.34,3.39,4.24,7.56,4.24s7.56-1.9,7.56-4.24h0Z"/><path id="_Контур_7" data-name="&lt;Контур&gt;" class="cls-6" d="M27.64,13.7v7.18c0,2.31-3.3,4.19-7.41,4.24V13.7Z"/><path id="_Контур_8" data-name="&lt;Контур&gt;" class="cls-1" d="M27.56,7.27V12.5a3.2,3.2,0,1,1-6.4,0V7.27Z"/><rect id="_Контур_9" data-name="&lt;Контур&gt;" class="cls-7" x="15.45" y="7.4" width="9.74" height="7.52"/><path id="_Контур_10" data-name="&lt;Контур&gt;" class="cls-2" d="M29,7.61H11.6v6.14h0c0,2.7,3.91,4.89,8.73,4.89S29,16.45,29,13.75h0Z"/><path id="_Контур_11" data-name="&lt;Контур&gt;" class="cls-8" d="M25.19,7.62V17.81a13.92,13.92,0,0,1-4.87.83,13.92,13.92,0,0,1-4.87-.83V7.62Z"/><path id="_Контур_12" data-name="&lt;Контур&gt;" class="cls-9" d="M19.51,7.61v11a12.36,12.36,0,0,1-5.31-1.41l-.43-.26V7.61Z"/><ellipse id="_Контур_13" data-name="&lt;Контур&gt;" class="cls-3" cx="20.32" cy="7.61" rx="8.73" ry="4.89"/><path id="_Контур_14" data-name="&lt;Контур&gt;" class="cls-10" d="M26.26,3.33V7.18a2.48,2.48,0,0,1-1.07,1.9A7.87,7.87,0,0,1,20.5,10.5h-.18C17,10.51,14.38,9,14.38,7.18V3.33Z"/><path id="_Контур_15" data-name="&lt;Контур&gt;" class="cls-11" d="M25.19,1.86V9.08A7.87,7.87,0,0,1,20.5,10.5V1.86Z"/><ellipse id="_Контур_16" data-name="&lt;Контур&gt;" class="cls-12" cx="20.32" cy="3.33" rx="5.94" ry="3.33"/><ellipse id="_Контур_17" data-name="&lt;Контур&gt;" class="cls-10" cx="19.1" cy="4.85" rx="1.09" ry="0.61"/><ellipse id="_Контур_18" data-name="&lt;Контур&gt;" class="cls-9" cx="18.15" cy="1.86" rx="1.09" ry="0.61"/><ellipse id="_Контур_19" data-name="&lt;Контур&gt;" class="cls-13" cx="22.85" cy="2.72" rx="1.09" ry="0.61"/></g><path id="_Контур_20" data-name="&lt;Контур&gt;" class="cls-14" d="M34.36,38.35A4.8,4.8,0,0,1,32,42.51l-9.23,5.33h0a1.72,1.72,0,0,1-2.54-1.53V34.65a1.75,1.75,0,0,1,1.41-1.74,6.9,6.9,0,0,0,2.23-.82l10.31-5.95a5,5,0,0,1,.25,1.55Z"/><g id="_Группа_3" data-name="&lt;Группа&gt;"><path id="_Контур_21" data-name="&lt;Контур&gt;" class="cls-4" d="M16.65,36.18a3.91,3.91,0,0,1,1.77,3.07c0,1.13-.8,1.58-1.78,1a3.91,3.91,0,0,1-1.77-3.07C14.87,36.07,15.67,35.62,16.65,36.18Z"/></g><g id="_Группа_4" data-name="&lt;Группа&gt;"><path id="_Контур_22" data-name="&lt;Контур&gt;" class="cls-5" d="M26.58,38.47a3.91,3.91,0,0,0-1.77,3.07c0,1.13.8,1.58,1.78,1a3.91,3.91,0,0,0,1.77-3.07C28.37,38.36,27.57,37.9,26.58,38.47Z"/></g><g id="_Группа_5" data-name="&lt;Группа&gt;"><path id="_Контур_23" data-name="&lt;Контур&gt;" class="cls-4" d="M10.31,38.4a2.83,2.83,0,0,1,1.28,2.23c0,.82-.58,1.15-1.29.74A2.83,2.83,0,0,1,9,39.14C9,38.32,9.6,38,10.31,38.4Z"/></g></g></g></g></svg>