<svg xmlns="http://www.w3.org/2000/svg" viewBox="0 0 47.46 47.47"><defs><style>.cls-1{fill:#00c5ff;}.cls-2{fill:#008eff;}.cls-3{fill:#d2ffff;}.cls-4{fill:#7becff;}.cls-5{fill:#abf7ff;}.cls-6{fill:#fff;}.cls-7{fill:#27d3fc;}.cls-8{fill:#3ddff9;}.cls-9{fill:#00a2db;}</style></defs><title>Ресурс 16</title><g id="Слой_2" data-name="Слой 2"><g id="_лой_1" data-name="‘лой_1"><g id="_Группа_" data-name="&lt;Группа&gt;"><path id="_Контур_" data-name="&lt;Контур&gt;" class="cls-1" d="M35.74,41.33a20.94,20.94,0,1,1,0-29.61A20.87,20.87,0,0,1,35.74,41.33Z"/><path id="_Контур_2" data-name="&lt;Контур&gt;" class="cls-2" d="M23.14,47.35a20.93,20.93,0,0,1-23-23,20.88,20.88,0,0,1,17,6A20.88,20.88,0,0,1,23.14,47.35Z"/><path id="_Контур_3" data-name="&lt;Контур&gt;" class="cls-3" d="M32.21,37.8A15.94,15.94,0,0,1,9.67,15.25a15.56,15.56,0,0,1,3.51-2.65c.28-.16.56-.31.86-.45,3.84-1.56,10.19.76,15.35,5.92S36.87,29.6,35.3,33.44c-.13.29-.28.58-.45.86A15.56,15.56,0,0,1,32.21,37.8Z"/><path id="_Контур_4" data-name="&lt;Контур&gt;" class="cls-4" d="M14,12.16A15.94,15.94,0,0,1,35.3,33.44c1.56-3.84-.76-10.19-5.92-15.35S17.87,10.6,14,12.16Z"/><circle id="_Контур_5" data-name="&lt;Контур&gt;" class="cls-5" cx="15.78" cy="24.47" r="6.07" transform="translate(-12.68 18.33) rotate(-45)"/><circle id="_Контур_6" data-name="&lt;Контур&gt;" class="cls-6" cx="26.92" cy="35.08" r="3.1" transform="translate(-16.92 29.31) rotate(-45)"/><g id="_Группа_2" data-name="&lt;Группа&gt;"><path id="_Контур_7" data-name="&lt;Контур&gt;" class="cls-7" d="M46.18,18.74,28.72,1.28,22.58,7.42h0c-2.7,2.7-1,8.81,3.84,13.63S37.34,27.59,40,24.89h0Z"/><path id="_Контур_8" data-name="&lt;Контур&gt;" class="cls-8" d="M42.32,14.89l-10.2,10.2a19.7,19.7,0,0,1-5.71-4,19.7,19.7,0,0,1-4-5.71l10.2-10.2Z"/><path id="_Контур_9" data-name="&lt;Контур&gt;" class="cls-6" d="M36.64,9.2l-11,11a17.49,17.49,0,0,1-3.9-6.72c-.07-.23-.12-.46-.17-.69L30.9,3.46Z"/><ellipse id="_Контур_10" data-name="&lt;Контур&gt;" class="cls-3" cx="37.45" cy="10.01" rx="6.92" ry="12.35" transform="translate(3.89 29.41) rotate(-45)"/></g><path id="_Контур_11" data-name="&lt;Контур&gt;" class="cls-8" d="M43.13,15a3.39,3.39,0,0,1-3.23.63A10.53,10.53,0,0,1,35,12.68a10.56,10.56,0,0,1-2.91-4.9,3.39,3.39,0,0,1,.63-3.23C34.32,2.93,38,4,40.84,6.84S44.74,13.35,43.13,15Z"/><path id="_Контур_12" data-name="&lt;Контур&gt;" class="cls-9" d="M39.9,15.6A10.53,10.53,0,0,1,35,12.68a10.56,10.56,0,0,1-2.91-4.9A10.54,10.54,0,0,1,37,10.7,10.53,10.53,0,0,1,39.9,15.6Z"/></g></g></g></svg>