<svg xmlns="http://www.w3.org/2000/svg" viewBox="0 0 43.79 43.79"><defs><style>.cls-1{fill:#8a4717;}.cls-2{fill:#f48400;}.cls-3{fill:#c98c5a;}.cls-4{fill:#9e683e;}.cls-5{fill:#00c5ff;}.cls-6{fill:#6d3c17;}.cls-7{fill:#ffad00;}.cls-8{fill:#cc6700;}.cls-9{fill:#ffe200;}.cls-10{fill:#f2b900;}</style></defs><title>Ресурс 19</title><g id="Слой_2" data-name="Слой 2"><g id="_лой_1" data-name="‘лой_1"><g id="_Группа_" data-name="&lt;Группа&gt;"><rect id="_Прямоугольник_" data-name="&lt;Прямоугольник&gt;" class="cls-1" x="19.43" y="24.92" width="16.61" height="2.94" transform="translate(26.78 -11.88) rotate(45)"/><rect id="_Прямоугольник_2" data-name="&lt;Прямоугольник&gt;" class="cls-2" x="8.97" y="14.12" width="15.74" height="2.95" transform="translate(15.96 -7.34) rotate(45)"/><g id="_Группа_2" data-name="&lt;Группа&gt;"><g id="_Группа_3" data-name="&lt;Группа&gt;"><path id="_Контур_" data-name="&lt;Контур&gt;" class="cls-3" d="M30.46,28.46,18.27,40.65a10.7,10.7,0,0,1-15.14,0l0,0a9.2,9.2,0,0,1-1-1.09,10.7,10.7,0,0,1,1-14L15.32,13.32l7.54,7.54,3.22,3.22Z"/><path id="_Контур_2" data-name="&lt;Контур&gt;" class="cls-4" d="M30.46,28.46,18.27,40.65a10.7,10.7,0,0,1-15.14,0l0,0L22.86,20.86l3.22,3.22Z"/><path id="_Контур_3" data-name="&lt;Контур&gt;" class="cls-1" d="M34.64,24.28,19.5,9.14l-5.32,5.32h0c-2.34,2.34-.86,7.63,3.32,11.81S27,31.95,29.32,29.6h0Z"/><path id="_Контур_4" data-name="&lt;Контур&gt;" class="cls-5" d="M37.8,20.47,32.56,25.7a4.53,4.53,0,1,1-6.41-6.41l5.24-5.24Z"/><path id="_Контур_5" data-name="&lt;Контур&gt;" class="cls-4" d="M38.94,22.31,21.48,4.84,17,9.28h0c-2.7,2.7-1,8.81,3.84,13.63s10.92,6.54,13.63,3.84h0Z"/><path id="_Контур_6" data-name="&lt;Контур&gt;" class="cls-3" d="M29.23,12.93,20,22.12a17.49,17.49,0,0,1-3.9-6.72c-.07-.23-.12-.46-.17-.69l7.51-7.51Z"/><ellipse id="_Контур_7" data-name="&lt;Контур&gt;" class="cls-6" cx="30.21" cy="13.57" rx="6.92" ry="12.35" transform="translate(-0.75 25.34) rotate(-45)"/></g><path id="_Контур_8" data-name="&lt;Контур&gt;" class="cls-7" d="M42.83,15.45l-4.36,4.36,0,0a2.23,2.23,0,0,1-1.24.48l-5.28.3a2.21,2.21,0,0,1-1.7-.65l-6.37-6.37a2.19,2.19,0,0,1-.65-1.7l.3-5.28A2.23,2.23,0,0,1,24,5.33l0,0L28.33,1l3.33,3.33a2.2,2.2,0,0,1,.93.54L39,11.2a2.16,2.16,0,0,1,.54.92Z"/><path id="_Контур_9" data-name="&lt;Контур&gt;" class="cls-8" d="M42.83,15.45l-4.36,4.36,0,0a2.23,2.23,0,0,1-1.24.48l-5.28.3a2.21,2.21,0,0,1-1.7-.65L27,16.74,35.77,8,39,11.2a2.16,2.16,0,0,1,.54.92Z"/><rect id="_Прямоугольник_3" data-name="&lt;Прямоугольник&gt;" class="cls-2" x="24.62" y="11.7" width="9.02" height="5.9" transform="translate(18.9 -16.31) rotate(45)"/><path id="_Контур_10" data-name="&lt;Контур&gt;" class="cls-9" d="M27.38,7.68l.3-5.28A2.22,2.22,0,0,1,29.78.31L35.06,0a2.22,2.22,0,0,1,1.7.65L43.14,7a2.22,2.22,0,0,1,.65,1.7L43.48,14a2.22,2.22,0,0,1-2.09,2.09l-5.28.3a2.22,2.22,0,0,1-1.7-.65L28,9.38A2.22,2.22,0,0,1,27.38,7.68Z"/><ellipse id="_Контур_11" data-name="&lt;Контур&gt;" class="cls-10" cx="35.58" cy="8.2" rx="3.29" ry="5.86" transform="translate(4.62 27.56) rotate(-45)"/></g><polygon id="_Контур_12" data-name="&lt;Контур&gt;" class="cls-9" points="16.1 23.28 18.94 24.04 19.7 26.88 17.63 28.95 14.79 28.19 14.03 25.35 16.1 23.28"/><polygon id="_Контур_13" data-name="&lt;Контур&gt;" class="cls-2" points="32.54 29.18 35.38 29.94 36.14 32.78 34.06 34.86 31.22 34.1 30.46 31.26 32.54 29.18"/><polygon id="_Контур_14" data-name="&lt;Контур&gt;" class="cls-10" points="10.76 7.4 13.6 8.16 14.36 11 12.28 13.08 9.44 12.32 8.68 9.48 10.76 7.4"/></g></g></g></svg>