<svg xmlns="http://www.w3.org/2000/svg" viewBox="0 0 40.64 52.69"><defs><style>.cls-1{fill:#00c5ff;}.cls-2{fill:#27d3fc;}.cls-3{fill:#d2ffff;}.cls-4{fill:#abf7ff;}.cls-5{fill:#7becff;}.cls-6{fill:#e40000;}.cls-7{fill:#00acff;}.cls-8{fill:#3ddff9;}.cls-9{fill:#fff;}.cls-10{fill:#00a2db;}</style></defs><title>Ресурс 20</title><g id="Слой_2" data-name="Слой 2"><g id="_лой_1" data-name="‘лой_1"><g id="_Группа_" data-name="&lt;Группа&gt;"><path id="_Контур_" data-name="&lt;Контур&gt;" class="cls-1" d="M40.64,38a7,7,0,0,1-3.48,6L23.8,51.75a6.94,6.94,0,0,1-7,0L3.48,44A6.93,6.93,0,0,1,.93,41.49,6.85,6.85,0,0,1,0,38V22.58a7,7,0,0,1,3.48-6L16.84,8.84a7,7,0,0,1,7,0l13.36,7.71a7,7,0,0,1,3.48,6Z"/><path id="_Контур_2" data-name="&lt;Контур&gt;" class="cls-2" d="M39.71,41.5A7,7,0,0,1,37.17,44L23.8,51.75a6.94,6.94,0,0,1-7,0L3.48,44A6.93,6.93,0,0,1,.93,41.49a7,7,0,0,1,2.55-2.55l13.36-7.71a7,7,0,0,1,7,0l13.36,7.71A6.91,6.91,0,0,1,39.71,41.5Z"/><path id="_Контур_3" data-name="&lt;Контур&gt;" class="cls-3" d="M39.71,19.11a7,7,0,0,1-2.54,2.54l-3.06,1.76A4.85,4.85,0,0,0,32,20.8l-9.23-5.33a4.81,4.81,0,0,0-4.81,0L8.69,20.8a4.85,4.85,0,0,0-2.15,2.62L3.48,21.65A6.93,6.93,0,0,1,.93,19.11a7,7,0,0,1,2.55-2.55L16.84,8.84a7,7,0,0,1,7,0l13.36,7.71A6.91,6.91,0,0,1,39.71,19.11Z"/><path id="_Контур_4" data-name="&lt;Контур&gt;" class="cls-4" d="M34.11,23.42,23.8,29.37a6.94,6.94,0,0,1-7,0L6.54,23.42A4.85,4.85,0,0,1,8.69,20.8l9.23-5.33a4.81,4.81,0,0,1,4.81,0L32,20.8A4.85,4.85,0,0,1,34.11,23.42Z"/><path id="_Контур_5" data-name="&lt;Контур&gt;" class="cls-5" d="M34.36,35.62A4.8,4.8,0,0,1,32,39.79l-9.23,5.33a4.81,4.81,0,0,1-4.81,0L8.68,39.79a4.81,4.81,0,0,1-2.41-4.17V25a4.89,4.89,0,0,1,.25-1.55l10.31,5.95a6.84,6.84,0,0,0,3.33.93,6.92,6.92,0,0,0,3.64-.93l10.31-5.95A5,5,0,0,1,34.36,25Z"/><g id="_Группа_2" data-name="&lt;Группа&gt;"><path id="_Контур_6" data-name="&lt;Контур&gt;" class="cls-1" d="M27.56,4.55V9.78a3.2,3.2,0,1,1-6.4,0V4.55Z"/><rect id="_Контур_7" data-name="&lt;Контур&gt;" class="cls-6" x="15.45" y="4.68" width="9.74" height="7.52"/><path id="_Контур_8" data-name="&lt;Контур&gt;" class="cls-1" d="M27.73,11v7.18c0,2.31-3.3,4.19-7.41,4.24h-.15a11.1,11.1,0,0,1-5.34-1.24,3.67,3.67,0,0,1-2.22-3V11Z"/><path id="_Контур_9" data-name="&lt;Контур&gt;" class="cls-7" d="M27.73,11v7.18c0,2.31-3.3,4.19-7.41,4.24V11Z"/><path id="_Контур_10" data-name="&lt;Контур&gt;" class="cls-2" d="M29,4.89H11.6V11h0c0,2.7,3.91,4.89,8.73,4.89S29,13.73,29,11h0Z"/><path id="_Контур_11" data-name="&lt;Контур&gt;" class="cls-8" d="M25.19,4.89V15.09a13.92,13.92,0,0,1-4.87.83,13.92,13.92,0,0,1-4.87-.83V4.89Z"/><path id="_Контур_12" data-name="&lt;Контур&gt;" class="cls-9" d="M19.51,4.89v11a12.36,12.36,0,0,1-5.31-1.41l-.43-.26V4.89Z"/><ellipse id="_Контур_13" data-name="&lt;Контур&gt;" class="cls-3" cx="20.32" cy="4.89" rx="8.73" ry="4.89"/></g><path id="_Контур_14" data-name="&lt;Контур&gt;" class="cls-3" d="M34.36,35.62A4.8,4.8,0,0,1,32,39.79l-9.23,5.33h0a1.72,1.72,0,0,1-2.54-1.53V31.93a1.75,1.75,0,0,1,1.41-1.74,6.9,6.9,0,0,0,2.23-.82l10.31-5.95A5,5,0,0,1,34.36,25Z"/><path id="_Контур_15" data-name="&lt;Контур&gt;" class="cls-8" d="M25.89,4.55a2.56,2.56,0,0,1-1.39,2.07,8,8,0,0,1-4.18,1.06,8,8,0,0,1-4.18-1.06,2.56,2.56,0,0,1-1.39-2.06c0-1.73,2.49-3.13,5.57-3.13S25.89,2.82,25.89,4.55Z"/><path id="_Контур_16" data-name="&lt;Контур&gt;" class="cls-10" d="M24.51,6.61a8,8,0,0,1-4.18,1.06,8,8,0,0,1-4.18-1.06,8,8,0,0,1,4.18-1.06A8,8,0,0,1,24.51,6.61Z"/></g></g></g></svg>