<svg xmlns="http://www.w3.org/2000/svg" viewBox="0 0 40.17 54.76"><defs><style>.cls-1{fill:#00c5ff;}.cls-2{fill:#27d3fc;}.cls-3{fill:#d2ffff;}.cls-4{fill:#ffeb00;}.cls-5{fill:#ffc300;}.cls-6{fill:#00acff;}.cls-7{fill:#e40000;}.cls-8{fill:#3ddff9;}.cls-9{fill:#fff;}.cls-10{fill:#ff9700;}</style></defs><title>Ресурс 25</title><g id="Слой_2" data-name="Слой 2"><g id="_лой_1" data-name="‘лой_1"><g id="_Группа_" data-name="&lt;Группа&gt;"><path id="_Контур_" data-name="&lt;Контур&gt;" class="cls-1" d="M40.17,40.25a6.88,6.88,0,0,1-3.44,6L23.52,53.83a6.86,6.86,0,0,1-6.88,0L3.44,46.21A6.85,6.85,0,0,1,.92,43.69,6.77,6.77,0,0,1,0,40.25V25a6.87,6.87,0,0,1,3.44-6l13.2-7.62a6.89,6.89,0,0,1,6.88,0l13.2,7.62a6.87,6.87,0,0,1,3.44,6Z"/><path id="_Контур_2" data-name="&lt;Контур&gt;" class="cls-2" d="M39.24,43.7a6.9,6.9,0,0,1-2.51,2.51L23.52,53.83a6.86,6.86,0,0,1-6.88,0L3.44,46.21A6.85,6.85,0,0,1,.92,43.69a6.88,6.88,0,0,1,2.52-2.52l13.2-7.62a6.89,6.89,0,0,1,6.88,0l13.2,7.62A6.83,6.83,0,0,1,39.24,43.7Z"/><path id="_Контур_3" data-name="&lt;Контур&gt;" class="cls-3" d="M39.24,21.58a6.9,6.9,0,0,1-2.51,2.51l-3,1.74a4.79,4.79,0,0,0-2.13-2.59L22.46,18a4.76,4.76,0,0,0-4.75,0L8.59,23.24a4.79,4.79,0,0,0-2.13,2.59l-3-1.74A6.85,6.85,0,0,1,.92,21.57a6.88,6.88,0,0,1,2.52-2.52l13.2-7.62a6.89,6.89,0,0,1,6.88,0l13.2,7.62A6.83,6.83,0,0,1,39.24,21.58Z"/><path id="_Контур_4" data-name="&lt;Контур&gt;" class="cls-4" d="M33.71,25.83,23.52,31.71a6.86,6.86,0,0,1-6.88,0L6.46,25.83a4.79,4.79,0,0,1,2.13-2.59L17.71,18a4.76,4.76,0,0,1,4.75,0l9.12,5.27A4.79,4.79,0,0,1,33.71,25.83Z"/><path id="_Контур_5" data-name="&lt;Контур&gt;" class="cls-5" d="M34,37.89A4.75,4.75,0,0,1,31.58,42l-9.12,5.27a4.75,4.75,0,0,1-4.75,0L8.58,42A4.76,4.76,0,0,1,6.2,37.89V27.36a4.84,4.84,0,0,1,.25-1.53l10.18,5.88a6.76,6.76,0,0,0,3.29.92,6.84,6.84,0,0,0,3.6-.92l10.18-5.88A5,5,0,0,1,34,27.36Z"/><g id="_Группа_2" data-name="&lt;Группа&gt;"><path id="_Контур_6" data-name="&lt;Контур&gt;" class="cls-1" d="M27.41,13.55H12.46v7.09h0c0,2.31,3.35,4.19,7.47,4.19s7.47-1.88,7.47-4.19h0Z"/><path id="_Контур_7" data-name="&lt;Контур&gt;" class="cls-6" d="M27.41,13.54v7.09c0,2.28-3.26,4.14-7.32,4.19V13.54Z"/><path id="_Контур_8" data-name="&lt;Контур&gt;" class="cls-1" d="M27.23,7.18v5.17a3.16,3.16,0,0,1-6.33,0V7.18Z"/><rect id="_Контур_9" data-name="&lt;Контур&gt;" class="cls-7" x="15.26" y="7.31" width="9.63" height="7.43"/><path id="_Контур_10" data-name="&lt;Контур&gt;" class="cls-2" d="M28.71,7.52H11.46v6.06h0c0,2.67,3.86,4.84,8.62,4.84s8.62-2.16,8.62-4.84h0Z"/><path id="_Контур_11" data-name="&lt;Контур&gt;" class="cls-8" d="M24.9,7.53V17.6a13.76,13.76,0,0,1-4.82.82,13.76,13.76,0,0,1-4.81-.82V7.53Z"/><path id="_Контур_12" data-name="&lt;Контур&gt;" class="cls-9" d="M19.28,7.52V18.4A12.21,12.21,0,0,1,14,17l-.42-.26V7.52Z"/><ellipse id="_Контур_13" data-name="&lt;Контур&gt;" class="cls-3" cx="20.08" cy="7.52" rx="8.62" ry="4.84"/><path id="_Контур_14" data-name="&lt;Контур&gt;" class="cls-5" d="M26,3.29V7.1A2.45,2.45,0,0,1,24.9,9a7.78,7.78,0,0,1-4.63,1.41h-.18c-3.24,0-5.87-1.48-5.87-3.29V3.29Z"/><path id="_Контур_15" data-name="&lt;Контур&gt;" class="cls-10" d="M24.9,1.84V9a7.78,7.78,0,0,1-4.63,1.41V1.84Z"/><ellipse id="_Контур_16" data-name="&lt;Контур&gt;" class="cls-4" cx="20.08" cy="3.29" rx="5.87" ry="3.29"/></g><path id="_Контур_17" data-name="&lt;Контур&gt;" class="cls-10" d="M34,37.89A4.75,4.75,0,0,1,31.58,42l-9.12,5.27h0a1.7,1.7,0,0,1-2.51-1.51V34.24a1.73,1.73,0,0,1,1.39-1.72,6.82,6.82,0,0,0,2.21-.81l10.18-5.88A5,5,0,0,1,34,27.36Z"/><g id="_Группа_3" data-name="&lt;Группа&gt;"><path id="_Контур_18" data-name="&lt;Контур&gt;" class="cls-4" d="M10.71,32.6a3.86,3.86,0,0,1,1.75,3c0,1.11-.79,1.57-1.76,1a3.86,3.86,0,0,1-1.75-3C8.95,32.49,9.74,32,10.71,32.6Z"/></g><g id="_Группа_4" data-name="&lt;Группа&gt;"><path id="_Контур_19" data-name="&lt;Контур&gt;" class="cls-5" d="M28.81,35.76a3.86,3.86,0,0,0-1.75,3c0,1.11.79,1.57,1.76,1a3.86,3.86,0,0,0,1.75-3C30.57,35.65,29.78,35.2,28.81,35.76Z"/></g><g id="_Группа_5" data-name="&lt;Группа&gt;"><path id="_Контур_20" data-name="&lt;Контур&gt;" class="cls-4" d="M16.45,39.23a2.8,2.8,0,0,1,1.27,2.2c0,.81-.57,1.13-1.28.73A2.8,2.8,0,0,1,15.17,40C15.17,39.15,15.75,38.82,16.45,39.23Z"/></g></g></g></g></svg>