<svg xmlns="http://www.w3.org/2000/svg" viewBox="0 0 40.47 55.17"><defs><style>.cls-1{fill:#00c5ff;}.cls-2{fill:#27d3fc;}.cls-3{fill:#332b32;}.cls-4{fill:#d2ffff;}.cls-5{fill:#3f2f3d;}.cls-6{fill:#00acff;}.cls-7{fill:#e40000;}.cls-8{fill:#3ddff9;}.cls-9{fill:#fff;}.cls-10{fill:#301f2d;}.cls-11{fill:#231521;}</style></defs><title>Ресурс 28</title><g id="Слой_2" data-name="Слой 2"><g id="_лой_1" data-name="‘лой_1"><g id="_Группа_" data-name="&lt;Группа&gt;"><path id="_Контур_" data-name="&lt;Контур&gt;" class="cls-1" d="M40.47,40.55a6.93,6.93,0,0,1-3.46,6L23.7,54.23a6.91,6.91,0,0,1-6.93,0L3.46,46.56A6.9,6.9,0,0,1,.93,44,6.82,6.82,0,0,1,0,40.55V25.19a6.92,6.92,0,0,1,3.47-6l13.3-7.68a6.94,6.94,0,0,1,6.93,0L37,19.19a6.92,6.92,0,0,1,3.47,6Z"/><path id="_Контур_2" data-name="&lt;Контур&gt;" class="cls-2" d="M39.54,44A7,7,0,0,1,37,46.56L23.7,54.23a6.91,6.91,0,0,1-6.93,0L3.46,46.56A6.9,6.9,0,0,1,.93,44a6.93,6.93,0,0,1,2.54-2.54l13.3-7.68a6.94,6.94,0,0,1,6.93,0L37,41.48A6.88,6.88,0,0,1,39.54,44Z"/><path id="_Контур_3" data-name="&lt;Контур&gt;" class="cls-3" d="M34.21,38.18a4.78,4.78,0,0,1-2.4,4.15l-9.19,5.31a4.79,4.79,0,0,1-4.79,0l-9.2-5.31a4.79,4.79,0,0,1-2.4-4.15V27.57A4.87,4.87,0,0,1,6.51,26l10.26,1.9a6.81,6.81,0,0,0,3.31.93,6.89,6.89,0,0,0,3.62-.93L34,26a5,5,0,0,1,.25,1.54Z"/><path id="_Контур_4" data-name="&lt;Контур&gt;" class="cls-4" d="M39.54,21.74A7,7,0,0,1,37,24.27L34,26a4.83,4.83,0,0,0-2.14-2.61l-9.19-5.31a4.79,4.79,0,0,0-4.79,0L8.65,23.42A4.83,4.83,0,0,0,6.51,26l-3-1.76A6.9,6.9,0,0,1,.93,21.73a6.93,6.93,0,0,1,2.54-2.54l13.3-7.68a6.94,6.94,0,0,1,6.93,0L37,19.19A6.88,6.88,0,0,1,39.54,21.74Z"/><path id="_Контур_5" data-name="&lt;Контур&gt;" class="cls-5" d="M34,26,23.7,31.95a6.91,6.91,0,0,1-6.93,0L6.51,26a4.83,4.83,0,0,1,2.14-2.61l9.19-5.31a4.79,4.79,0,0,1,4.79,0l9.19,5.31A4.83,4.83,0,0,1,34,26Z"/><g id="_Группа_2" data-name="&lt;Группа&gt;"><path id="_Контур_6" data-name="&lt;Контур&gt;" class="cls-1" d="M27.61,13.65H12.55v7.14h0c0,2.33,3.37,4.22,7.53,4.22s7.53-1.89,7.53-4.22h0Z"/><path id="_Контур_7" data-name="&lt;Контур&gt;" class="cls-6" d="M27.61,13.64v7.15c0,2.3-3.29,4.17-7.38,4.22V13.64Z"/><path id="_Контур_8" data-name="&lt;Контур&gt;" class="cls-1" d="M27.44,7.23v5.21a3.19,3.19,0,1,1-6.37,0V7.23Z"/><rect id="_Контур_9" data-name="&lt;Контур&gt;" class="cls-7" x="15.38" y="7.37" width="9.7" height="7.49"/><path id="_Контур_10" data-name="&lt;Контур&gt;" class="cls-2" d="M28.92,7.58H11.55v6.11h0c0,2.69,3.89,4.87,8.69,4.87s8.69-2.18,8.69-4.87h0Z"/><path id="_Контур_11" data-name="&lt;Контур&gt;" class="cls-8" d="M25.08,7.58V17.73a13.86,13.86,0,0,1-4.85.83,13.86,13.86,0,0,1-4.85-.83V7.58Z"/><path id="_Контур_12" data-name="&lt;Контур&gt;" class="cls-9" d="M19.42,7.58v11a12.31,12.31,0,0,1-5.28-1.4l-.43-.26V7.58Z"/><ellipse id="_Контур_13" data-name="&lt;Контур&gt;" class="cls-4" cx="20.23" cy="7.58" rx="8.69" ry="4.87"/><path id="_Контур_14" data-name="&lt;Контур&gt;" class="cls-10" d="M26.15,3.31V7.15A2.47,2.47,0,0,1,25.08,9a7.84,7.84,0,0,1-4.67,1.42h-.18C17,10.46,14.32,9,14.32,7.15V3.31Z"/><path id="_Контур_15" data-name="&lt;Контур&gt;" class="cls-11" d="M25.08,1.85V9a7.84,7.84,0,0,1-4.67,1.42V1.85Z"/><ellipse id="_Контур_16" data-name="&lt;Контур&gt;" class="cls-5" cx="20.23" cy="3.31" rx="5.91" ry="3.31"/></g><path id="_Контур_17" data-name="&lt;Контур&gt;" class="cls-10" d="M34.21,38.18a4.78,4.78,0,0,1-2.4,4.15l-9.19,5.31h0a1.71,1.71,0,0,1-2.53-1.53V34.5a1.75,1.75,0,0,1,1.4-1.73,6.88,6.88,0,0,0,2.22-.82L34,26a5,5,0,0,1,.25,1.54Z"/><g id="_Группа_3" data-name="&lt;Группа&gt;"><path id="_Составной_контур_" data-name="&lt;Составной контур&gt;" class="cls-9" d="M15.56,33.49a4.44,4.44,0,0,1,2,3.49v4.23c0,1.1-.67,1.64-1.57,1.36v1.28c0,.71-.51,1-1.13.63a2.48,2.48,0,0,1-1.12-1.93c0,.71-.51,1-1.13.63a2.47,2.47,0,0,1-1.12-1.93c0,.7-.51,1-1.13.63a2.48,2.48,0,0,1-1.12-1.93V38.68a4.51,4.51,0,0,1-1.61-3.21V31.24c0-1.29.91-1.8,2-1.16Zm-.86,5.76c.71.41,1.3.08,1.3-.74a2.85,2.85,0,0,0-1.29-2.24c-.72-.41-1.3-.08-1.3.74a2.85,2.85,0,0,0,1.29,2.24Zm-4.16-2.4c.71.41,1.3.08,1.3-.74a2.85,2.85,0,0,0-1.29-2.24c-.72-.41-1.3-.08-1.3.74a2.85,2.85,0,0,0,1.29,2.24Z"/></g></g></g></g></svg>