<svg xmlns="http://www.w3.org/2000/svg" viewBox="0 0 47.11 49.02"><defs><style>.cls-1{fill:#bac6cc;}.cls-2{fill:#929c9e;}.cls-3{fill:#3c3759;}.cls-4{fill:#795db6;}.cls-5{fill:#584594;}.cls-6{fill:#fff;}.cls-7{fill:#31735d;}.cls-8{fill:#90e96d;}.cls-9{fill:#4b9771;}.cls-10{fill:#6f8497;}.cls-11{fill:#6f54b2;}</style></defs><title>Ресурс 8</title><g id="Слой_2" data-name="Слой 2"><g id="_лой_1" data-name="‘лой_1"><g id="_Группа_" data-name="&lt;Группа&gt;"><path id="_Контур_" data-name="&lt;Контур&gt;" class="cls-1" d="M35.77,42.89a20.94,20.94,0,1,1,0-29.61A20.87,20.87,0,0,1,35.77,42.89Z"/><path id="_Контур_2" data-name="&lt;Контур&gt;" class="cls-1" d="M23.17,48.91a21.27,21.27,0,0,1-17-6,19.83,19.83,0,0,1-6-17,20.88,20.88,0,0,1,17,6A20.88,20.88,0,0,1,23.17,48.91Z"/><path id="_Контур_3" data-name="&lt;Контур&gt;" class="cls-2" d="M33.35,40.46a17.51,17.51,0,1,1,0-24.76A17.45,17.45,0,0,1,33.35,40.46Z"/><path id="_Контур_4" data-name="&lt;Контур&gt;" class="cls-3" d="M38.47,28.08h-35a17.51,17.51,0,0,0,35,.06Z"/><path id="_Контур_5" data-name="&lt;Контур&gt;" class="cls-4" d="M38.47,28.08c0,1.57-1.46,3-3.9,4.14-3.21,1.49-8.11,2.45-13.61,2.45s-10.4-1-13.61-2.45c-2.44-1.13-3.9-2.57-3.9-4.14,0-3.64,7.84-6.59,17.51-6.59S38.47,24.45,38.47,28.08Z"/><path id="_Контур_6" data-name="&lt;Контур&gt;" class="cls-5" d="M38.47,26.63c0,1.57-1.46,3-3.9,4.14-3.21,1.49-8.11,2.44-13.61,2.44s-10.4-1-13.61-2.44c-2.44-1.13-3.9-2.57-3.9-4.14C3.46,23,11.3,20,21,20S38.47,23,38.47,26.63Z"/><path id="_Контур_7" data-name="&lt;Контур&gt;" class="cls-3" d="M28.2,30.9c-2.22,0-2.67-1-2.67-1a2.67,2.67,0,1,1,5.33,0S30.34,30.9,28.2,30.9Z"/><path id="_Контур_8" data-name="&lt;Контур&gt;" class="cls-3" d="M16.32,27.23c-1.52,0-1.82-.68-1.82-.68a1.82,1.82,0,1,1,3.64,0S17.78,27.23,16.32,27.23Z"/><path id="_Контур_9" data-name="&lt;Контур&gt;" class="cls-3" d="M23.88,24c-1.3,0-1.56-.59-1.56-.59a1.56,1.56,0,1,1,3.12,0S25.14,24,23.88,24Z"/><circle id="_Контур_10" data-name="&lt;Контур&gt;" class="cls-6" cx="16.32" cy="16.65" r="2.67" transform="translate(-6.99 16.42) rotate(-45)"/><path id="_Контур_11" data-name="&lt;Контур&gt;" class="cls-7" d="M33.61,40,27,38.72l-9.87-6.1L9.45,21.5l-.86-8.63L9.72,8.74l-.65-.65L3.82,13.34h0C-1.06,18.22,2,29.23,10.74,37.93s19.71,11.8,24.59,6.92h0l5.25-5.25L40,39Z"/><path id="_Контур_12" data-name="&lt;Контур&gt;" class="cls-8" d="M41.86,28a14.51,14.51,0,0,1-3,8.86h0a5.88,5.88,0,0,1-.44.5c-4.1,4.1-13.49,1.35-21-6.13s-10.23-16.88-6.13-21a5.91,5.91,0,0,1,1.11-.86h0A6.68,6.68,0,0,1,14.2,8.6a20.23,20.23,0,0,1,7.38-1.49C16.43,5.22,11.73,5.43,9,8.18,4.1,13.06,7.2,24.07,15.9,32.77s19.71,11.8,24.59,6.92C43.09,37.1,43.42,32.76,41.86,28Z"/><circle id="_Контур_13" data-name="&lt;Контур&gt;" class="cls-9" cx="14.37" cy="36.73" r="1.77"/><ellipse id="_Контур_14" data-name="&lt;Контур&gt;" class="cls-9" cx="22.15" cy="41.87" rx="1.65" ry="1.37" transform="translate(-21.6 23.73) rotate(-39.6)"/><ellipse id="_Контур_15" data-name="&lt;Контур&gt;" class="cls-9" cx="8.33" cy="28.68" rx="1.65" ry="1.37" transform="translate(-21.45 26.38) rotate(-69.4)"/><ellipse id="_Контур_16" data-name="&lt;Контур&gt;" class="cls-9" cx="30.13" cy="44.47" rx="1.65" ry="1.14" transform="translate(-20.82 27.46) rotate(-37.42)"/><ellipse id="_Контур_17" data-name="&lt;Контур&gt;" class="cls-9" cx="4.69" cy="19.89" rx="1.65" ry="1.14" transform="translate(-15.49 16.65) rotate(-67.61)"/><g id="_Группа_2" data-name="&lt;Группа&gt;"><path id="_Контур_18" data-name="&lt;Контур&gt;" class="cls-10" d="M30,8.31l-4.37,4.37h0a2.43,2.43,0,0,0-.22.18c-1.67,1.67-.61,5.42,2.36,8.4s6.73,4,8.4,2.36l3.63-3.89Z"/><path id="_Контур_19" data-name="&lt;Контур&gt;" class="cls-6" d="M29.79,8.53l-4.15,4.15h0a2.43,2.43,0,0,0-.22.18c-1.12,1.12-1,3.17.08,5.3l4.76-4.76Z"/><g id="_Группа_3" data-name="&lt;Группа&gt;"><polygon id="_Контур_20" data-name="&lt;Контур&gt;" class="cls-1" points="26.54 8.08 26.54 8.08 26.54 8.08 26.54 8.08"/><path id="_Контур_21" data-name="&lt;Контур&gt;" class="cls-1" d="M31.61,3l-2.4,2.4A2.32,2.32,0,0,0,28.52,7a8.94,8.94,0,0,1-1,3.89,2.48,2.48,0,0,0-.28,2.32c.29.71.79.83,1.81,1A6.22,6.22,0,0,1,32.86,16a4.44,4.44,0,0,1,1.3,3.5c0,1,0,1.66,1.2,2.29.89.47,2,.16,3.26-.17a9.87,9.87,0,0,1,2.7-.47,2.44,2.44,0,0,0,1.76-.71l3-3Z"/><polygon id="_Контур_22" data-name="&lt;Контур&gt;" class="cls-1" points="40.98 22.52 40.98 22.52 40.98 22.52 40.98 22.52"/></g><g id="_Группа_4" data-name="&lt;Группа&gt;"><ellipse id="_Контур_23" data-name="&lt;Контур&gt;" class="cls-6" cx="38.83" cy="10.22" rx="5.73" ry="10.21" transform="translate(4.15 30.45) rotate(-45)"/></g><g id="_Группа_5" data-name="&lt;Группа&gt;"><ellipse id="_Контур_24" data-name="&lt;Контур&gt;" class="cls-10" cx="38.83" cy="10.22" rx="3.36" ry="5.99" transform="translate(4.15 30.45) rotate(-45)"/></g><path id="_Контур_25" data-name="&lt;Контур&gt;" class="cls-1" d="M36.46,12.59a8.06,8.06,0,0,0,4.49,2.46,8.06,8.06,0,0,0-2.46-4.49A8.06,8.06,0,0,0,34,8.1,8.06,8.06,0,0,0,36.46,12.59Z"/></g><circle id="_Контур_26" data-name="&lt;Контур&gt;" class="cls-5" cx="41.73" cy="9.23" r="1.71"/><circle id="_Контур_27" data-name="&lt;Контур&gt;" class="cls-5" cx="36.57" cy="5.36" r="1.71"/><circle id="_Контур_28" data-name="&lt;Контур&gt;" class="cls-11" cx="40.98" cy="1.71" r="1.71"/><path id="_Контур_29" data-name="&lt;Контур&gt;" class="cls-5" d="M36.46,12.59a8.81,8.81,0,0,0,3.71,2.3,3.78,3.78,0,0,0,.16-1.08,3.91,3.91,0,0,0-3.91-3.91,3.84,3.84,0,0,0-1.68.39A9.88,9.88,0,0,0,36.46,12.59Z"/></g></g></g></svg>