<svg xmlns="http://www.w3.org/2000/svg" viewBox="0 0 48.63 47.32"><defs><style>.cls-1{fill:#00c5ff;}.cls-2{fill:#d2ffff;}.cls-3{fill:#ff7100;}.cls-4{fill:#009dd8;}.cls-5{fill:#ff9d00;}.cls-6{fill:#ffce00;}.cls-7{fill:#fff;}.cls-8{fill:#27d3fc;}.cls-9{fill:#3ddff9;}.cls-10{fill:#ff5000;}</style></defs><title>Ресурс 27</title><g id="Слой_2" data-name="Слой 2"><g id="_лой_1" data-name="‘лой_1"><g id="_Группа_" data-name="&lt;Группа&gt;"><path id="_Контур_" data-name="&lt;Контур&gt;" class="cls-1" d="M31.55,41.9a18.48,18.48,0,1,1,0-26.13A18.42,18.42,0,0,1,31.55,41.9Z"/><path id="_Контур_2" data-name="&lt;Контур&gt;" class="cls-2" d="M20.42,47.22A18.48,18.48,0,0,1,.1,26.9a18.43,18.43,0,0,1,15,5.31A18.43,18.43,0,0,1,20.42,47.22Z"/><path id="_Контур_3" data-name="&lt;Контур&gt;" class="cls-3" d="M28.43,38.79a14.07,14.07,0,0,1-19.9-19.9,13.73,13.73,0,0,1,3.1-2.34c.25-.14.5-.28.76-.39,3.39-1.38,9,.67,13.55,5.23s6.61,10.16,5.23,13.55c-.12.26-.25.51-.39.76A13.73,13.73,0,0,1,28.43,38.79Z"/><path id="_Контур_4" data-name="&lt;Контур&gt;" class="cls-4" d="M12.38,16.16A14.07,14.07,0,0,1,31.16,34.94c1.38-3.39-.67-9-5.23-13.55S15.77,14.78,12.38,16.16Z"/><path id="_Контур_5" data-name="&lt;Контур&gt;" class="cls-5" d="M30.17,36.45c-3,3-9.73,1.09-15.06-4.24S7.88,20.14,10.87,17.15a4,4,0,0,1,.76-.6c.25-.14.5-.28.76-.39,3.39-1.38,9,.67,13.55,5.23s6.61,10.16,5.23,13.55c-.12.26-.25.51-.39.76A4,4,0,0,1,30.17,36.45Z"/><circle id="_Контур_6" data-name="&lt;Контур&gt;" class="cls-6" cx="13.93" cy="27.02" r="5.36" transform="translate(-15.03 17.76) rotate(-45)"/><circle id="_Контур_7" data-name="&lt;Контур&gt;" class="cls-7" cx="23.76" cy="36.39" r="2.73" transform="translate(-18.77 27.46) rotate(-45)"/><g id="_Группа_2" data-name="&lt;Группа&gt;"><path id="_Контур_8" data-name="&lt;Контур&gt;" class="cls-8" d="M40.77,22,25.35,6.55,19.93,12h0c-2.39,2.39-.87,7.77,3.39,12s9.64,5.77,12,3.39h0Z"/><path id="_Контур_9" data-name="&lt;Контур&gt;" class="cls-9" d="M37.36,18.56l-9,9a17.39,17.39,0,0,1-5-3.57,17.39,17.39,0,0,1-3.57-5l9-9Z"/><path id="_Контур_10" data-name="&lt;Контур&gt;" class="cls-7" d="M32.34,13.54l-9.72,9.72a15.44,15.44,0,0,1-3.44-5.93c-.06-.21-.11-.41-.15-.61l8.24-8.24Z"/><ellipse id="_Контур_11" data-name="&lt;Контур&gt;" class="cls-2" cx="33.06" cy="14.26" rx="6.11" ry="10.9" transform="translate(-0.4 27.55) rotate(-45)"/><path id="_Контур_12" data-name="&lt;Контур&gt;" class="cls-3" d="M42.09,15.72l-3.4,3.4a3.1,3.1,0,0,1-2.62.74A9.83,9.83,0,0,1,30.66,17l-.16-.15c-2.9-2.9-3.93-6.57-2.31-8.19l3.4-3.4Z"/><path id="_Контур_13" data-name="&lt;Контур&gt;" class="cls-10" d="M42.44,13.48l-6.38,6.38A9.83,9.83,0,0,1,30.66,17L38.3,9.34Z"/><ellipse id="_Контур_14" data-name="&lt;Контур&gt;" class="cls-5" cx="36.84" cy="10.48" rx="4.16" ry="7.42" transform="translate(3.38 29.12) rotate(-45)"/></g><rect id="_Прямоугольник_" data-name="&lt;Прямоугольник&gt;" class="cls-3" x="42.42" y="0.87" width="4.18" height="4.18" transform="translate(15.13 -30.61) rotate(45)"/><rect id="_Прямоугольник_2" data-name="&lt;Прямоугольник&gt;" class="cls-7" x="42.31" y="26.22" width="5.23" height="5.23" transform="translate(33.55 -23.32) rotate(45)"/><rect id="_Прямоугольник_3" data-name="&lt;Прямоугольник&gt;" class="cls-6" x="15.87" y="1.84" width="5.23" height="5.23" transform="translate(8.57 -11.76) rotate(45)"/></g></g></g></svg>