<svg xmlns="http://www.w3.org/2000/svg" viewBox="0 0 48.55 48.55"><defs><style>.cls-1{fill:#00c5ff;}.cls-2{fill:#d2ffff;}.cls-3{fill:#003fff;}.cls-4{fill:#009dd8;}.cls-5{fill:#0067ff;}.cls-6{fill:#008eff;}.cls-7{fill:#fff;}.cls-8{fill:#27d3fc;}.cls-9{fill:#3ddff9;}.cls-10{fill:#f5aa4a;}.cls-11{fill:#e5953e;}.cls-12{fill:#ffd28a;}.cls-13{fill:#c47826;}</style></defs><title>Ресурс 29</title><g id="Слой_2" data-name="Слой 2"><g id="_лой_1" data-name="‘лой_1"><g id="_Группа_" data-name="&lt;Группа&gt;"><path id="_Контур_" data-name="&lt;Контур&gt;" class="cls-1" d="M35.74,42.42a20.94,20.94,0,1,1,0-29.61A20.87,20.87,0,0,1,35.74,42.42Z"/><path id="_Контур_2" data-name="&lt;Контур&gt;" class="cls-2" d="M23.14,48.44a20.94,20.94,0,0,1-23-23,20.88,20.88,0,0,1,17,6A20.88,20.88,0,0,1,23.14,48.44Z"/><path id="_Контур_3" data-name="&lt;Контур&gt;" class="cls-3" d="M32.21,38.89A15.94,15.94,0,0,1,9.67,16.34a15.56,15.56,0,0,1,3.51-2.65c.28-.16.56-.31.86-.45,3.84-1.56,10.19.76,15.35,5.92s7.49,11.51,5.92,15.35c-.13.29-.28.58-.45.86A15.55,15.55,0,0,1,32.21,38.89Z"/><path id="_Контур_4" data-name="&lt;Контур&gt;" class="cls-4" d="M14,13.25A15.94,15.94,0,0,1,35.3,34.52c1.56-3.84-.76-10.19-5.92-15.35S17.87,11.69,14,13.25Z"/><path id="_Контур_5" data-name="&lt;Контур&gt;" class="cls-5" d="M34.18,36.24c-3.39,3.39-11,1.23-17.06-4.81S8.93,17.76,12.31,14.37a4.49,4.49,0,0,1,.86-.68c.28-.16.56-.31.86-.45,3.84-1.56,10.19.76,15.35,5.92s7.49,11.51,5.92,15.35c-.13.29-.28.58-.45.86A4.48,4.48,0,0,1,34.18,36.24Z"/><circle id="_Контур_6" data-name="&lt;Контур&gt;" class="cls-6" cx="15.78" cy="25.56" r="6.07" transform="translate(-13.45 18.64) rotate(-45)"/><circle id="_Контур_7" data-name="&lt;Контур&gt;" class="cls-7" cx="26.92" cy="36.17" r="3.1" transform="translate(-17.69 29.63) rotate(-45)"/><g id="_Группа_2" data-name="&lt;Группа&gt;"><path id="_Контур_8" data-name="&lt;Контур&gt;" class="cls-8" d="M46.18,19.83,28.72,2.37,22.58,8.51h0c-2.7,2.7-1,8.81,3.84,13.63S37.34,28.68,40,26h0Z"/><path id="_Контур_9" data-name="&lt;Контур&gt;" class="cls-9" d="M42.32,16l-10.2,10.2a19.7,19.7,0,0,1-5.71-4,19.7,19.7,0,0,1-4-5.71l10.2-10.2Z"/><path id="_Контур_10" data-name="&lt;Контур&gt;" class="cls-7" d="M36.64,10.29l-11,11a17.49,17.49,0,0,1-3.9-6.72c-.07-.23-.12-.46-.17-.69L30.9,4.55Z"/><ellipse id="_Контур_11" data-name="&lt;Контур&gt;" class="cls-2" cx="37.45" cy="11.1" rx="6.92" ry="12.35" transform="translate(3.12 29.73) rotate(-45)"/><path id="_Контур_12" data-name="&lt;Контур&gt;" class="cls-10" d="M47.68,12.76l-3.85,3.85a3.51,3.51,0,0,1-3,.84,11.14,11.14,0,0,1-6.12-3.27L34.56,14c-3.29-3.29-4.45-7.44-2.61-9.28L35.8.87Z"/><path id="_Контур_13" data-name="&lt;Контур&gt;" class="cls-11" d="M48.08,10.22l-7.23,7.23a11.14,11.14,0,0,1-6.12-3.27l8.65-8.65Z"/><ellipse id="_Контур_14" data-name="&lt;Контур&gt;" class="cls-12" cx="41.74" cy="6.81" rx="4.71" ry="8.4" transform="translate(7.41 31.51) rotate(-45)"/><ellipse id="_Контур_15" data-name="&lt;Контур&gt;" class="cls-10" cx="39" cy="7.11" rx="0.86" ry="1.54" transform="translate(6.39 29.66) rotate(-45)"/><ellipse id="_Контур_16" data-name="&lt;Контур&gt;" class="cls-7" cx="41.03" cy="3.17" rx="0.86" ry="1.54" transform="translate(9.78 29.94) rotate(-45)"/><ellipse id="_Контур_17" data-name="&lt;Контур&gt;" class="cls-13" cx="44.88" cy="8.73" rx="0.86" ry="1.54" transform="translate(6.97 34.29) rotate(-45)"/></g></g></g></g></svg>