<?xml version="1.0" standalone="no"?>
<!DOCTYPE svg PUBLIC "-//W3C//DTD SVG 1.1//EN" "http://www.w3.org/Graphics/SVG/1.1/DTD/svg11.dtd" >
<svg xmlns="http://www.w3.org/2000/svg" version="1.1">
<metadata>
Created by FontForge 20161116 at Fri Mar  6 19:19:33 2015
 By Jimmy Warting
This font was created using FontCreator  from High-Logic.com
</metadata>
<defs>
<font id="Mefestico-" horiz-adv-x="1014" >
  <font-face
    font-family="Mefestico"
    font-weight="400"
    font-stretch="normal"
    units-per-em="2048"
    panose-1="0 0 0 0 0 0 0 0 0 0"
    ascent="1638"
    descent="-410"
    x-height="1022"
    cap-height="1429"
    bbox="0 -419 1797 1716"
    underline-thickness="150"
    underline-position="-291"
    stemv="41"
    unicode-range="U+001D-FB02"
  />
<missing-glyph horiz-adv-x="1024"
d="M824 1434v-1434h-824v1434h824zM774 1384h-724v-1334h724v1334zM225 1103v45c21 19 40 33 58 43c35 20 73 30 112 30c123 0 204 -68 204 -175c0 -33 -8 -66 -23 -99s-45 -76 -87 -129c-85 -107 -135 -168 -135 -231c0 -25 8 -70 24 -133h-32c-23 65 -35 114 -35 148
c0 51 27 123 81 218c55 95 82 167 82 217c0 76 -47 123 -124 123c-25 0 -48 -6 -69 -17c-17 -10 -36 -23 -56 -40zM289 334l57 58c7 7 14 10 20 10c7 0 14 -4 22 -11l56 -60c6 -7 9 -14 9 -20c0 -7 -3 -15 -10 -22l-56 -62c-9 -9 -16 -14 -21 -14c-7 0 -14 3 -20 10l-61 71
c-5 6 -7 12 -7 18c0 7 4 14 11 22z" />
    <glyph glyph-name=".notdef" horiz-adv-x="1024"
d="M824 1434v-1434h-824v1434h824zM774 1384h-724v-1334h724v1334zM225 1103v45c21 19 40 33 58 43c35 20 73 30 112 30c123 0 204 -68 204 -175c0 -33 -8 -66 -23 -99s-45 -76 -87 -129c-85 -107 -135 -168 -135 -231c0 -25 8 -70 24 -133h-32c-23 65 -35 114 -35 148
c0 51 27 123 81 218c55 95 82 167 82 217c0 76 -47 123 -124 123c-25 0 -48 -6 -69 -17c-17 -10 -36 -23 -56 -40zM289 334l57 58c7 7 14 10 20 10c7 0 14 -4 22 -11l56 -60c6 -7 9 -14 9 -20c0 -7 -3 -15 -10 -22l-56 -62c-9 -9 -16 -14 -21 -14c-7 0 -14 3 -20 10l-61 71
c-5 6 -7 12 -7 18c0 7 4 14 11 22z" />
    <glyph glyph-name="space" unicode=" " horiz-adv-x="508"
 />
    <glyph glyph-name="exclam" unicode="!" horiz-adv-x="417"
d="M130 398h-43v1040h43v-1040zM107 217h3c71 -9 107 -45 107 -107v-3c0 -51 -28 -86 -84 -104c-9 -2 -17 -3 -26 -3c-71 11 -107 47 -107 107v3c9 71 45 107 107 107zM42 110v-3c8 -43 30 -65 65 -65h3c43 7 65 29 65 65v3c-7 43 -27 65 -62 65h-9c-35 0 -55 -22 -62 -65z
" />
    <glyph glyph-name="quotedbl" unicode="&#x22;" horiz-adv-x="557"
d="M163 1596h2l17 -209l-81 32c0 -3 -15 -38 -44 -104l-23 10l46 106l-80 32c1 3 56 47 163 133zM302 1579c14 -6 21 -10 21 -11c-29 -66 -44 -101 -44 -105l78 -32c-8 -9 -62 -54 -163 -133h-2v2c0 127 -15 196 -15 205c-1 0 -2 1 -2 2h3c49 -21 75 -32 78 -32
c18 45 33 79 46 104zM144 1549l-95 -76h-2c1 -3 37 -19 107 -48v2zM203 1469v-2c5 -55 9 -95 10 -122h1c63 51 95 77 95 78c-7 4 -43 19 -106 46z" />
    <glyph glyph-name="numbersign" unicode="#" horiz-adv-x="1266"
d="M343 955l146 479h3c23 -4 35 -9 35 -16c-83 -269 -129 -424 -140 -463h432l145 479h4c23 -4 35 -9 35 -16c-83 -269 -129 -424 -140 -463h197c4 -1 6 -3 6 -6v-32c0 -4 -2 -6 -6 -6h-213l-117 -391h269c5 -1 7 -3 7 -6v-29c0 -4 -2 -6 -7 -6h-279c-6 -6 -33 -93 -82 -260
c3 -1 66 -64 190 -190v-4c0 -3 -8 -11 -25 -25l-178 174h-3l-48 -164h-3c-13 0 -25 4 -38 12c9 23 55 175 140 457h-429c-5 0 -33 -89 -82 -266c55 -53 117 -115 184 -184v-4c0 -3 -9 -11 -26 -25l-174 171l-48 -161h-3c-12 0 -25 4 -38 12c9 23 55 175 140 457h-191
c-4 0 -6 2 -6 6v29c1 4 3 6 6 6h200c6 4 23 69 61 191l63 200h-260c-5 0 -7 2 -7 6v32c1 4 3 6 7 6h273zM742 711l64 200h-435c-40 -134 -60 -203 -60 -207l187 -184h184c6 4 21 69 60 191zM295 663l-41 -143h184c0 3 -48 51 -143 143z" />
    <glyph glyph-name="dollar" unicode="$" horiz-adv-x="857"
d="M258 1362v71h37v-62c9 0 23 1 42 2c16 -1 28 -2 37 -2v62h37v-71c49 -4 109 -39 178 -105c0 -3 2 -6 6 -11l-26 -20h-3c-49 53 -93 83 -130 91c-14 5 -22 8 -25 8v-382h-32c-3 0 -5 2 -5 6v385h-17c-8 0 -16 1 -23 3c-7 -2 -15 -3 -23 -3h-16v-385c0 -4 -2 -6 -6 -6h-31
v382c-39 -5 -87 -34 -145 -88c-51 -58 -76 -125 -76 -201c0 -82 33 -156 99 -223c-13 -13 -20 -22 -20 -26h-3c-75 70 -113 151 -113 244v5c0 137 67 240 201 309c30 11 49 17 57 17zM337 833c42 0 72 -26 91 -77c1 -10 2 -16 2 -17c0 -47 -25 -79 -76 -96
c-6 0 -13 -1 -20 -3c-44 0 -75 25 -93 76c0 6 -1 13 -3 20c0 42 23 72 68 91c3 2 13 4 31 6zM278 742v-11c6 -34 23 -51 50 -51h12c30 0 48 20 54 59c0 29 -20 48 -60 57c-37 -7 -56 -25 -56 -54zM541 680h3c75 -71 113 -155 113 -252c0 -105 -43 -194 -130 -264
c-31 -25 -69 -44 -116 -59v-105h-37v99c-10 -4 -32 -6 -65 -6l-14 3v-96h-37v102c-41 2 -93 27 -156 74c-25 25 -41 43 -48 53c0 3 9 10 28 23h3c25 -47 80 -84 164 -113h9v351h37v-357l19 -3c17 0 37 2 60 6v348c1 4 2 6 5 6h32v-346c41 10 86 37 130 83
c54 58 79 126 79 203c0 83 -33 157 -99 221v3c13 13 20 22 20 26z" />
    <glyph glyph-name="percent" unicode="%" horiz-adv-x="1059"
d="M824 1433c20 -13 32 -19 35 -19l-720 -1234v-3c3 0 52 -50 148 -149l-31 -28c0 3 -47 50 -142 142c-51 -91 -78 -137 -82 -139l-32 22c275 473 550 943 824 1408zM205 1206l38 3h13c70 0 120 -39 151 -117c5 -11 8 -26 10 -47c0 -67 -35 -119 -104 -155
c-23 -8 -46 -12 -67 -12c-73 0 -126 41 -158 123c-4 27 -6 41 -6 44c0 73 41 126 123 161zM123 1045c0 -61 34 -102 101 -123c11 -2 21 -3 29 -3c59 0 99 35 120 104v28c0 55 -33 94 -98 117h-32c-65 0 -105 -41 -120 -123zM666 644h7c79 0 132 -44 161 -133
c2 -15 3 -27 3 -37c0 -71 -42 -124 -127 -158l-37 -3h-4c-80 0 -135 45 -164 135v41c0 57 32 104 95 139c20 11 42 16 66 16zM546 499v-25c0 -62 37 -102 111 -120h16c57 0 98 33 119 98c4 11 4 21 4 31c0 49 -29 87 -86 114c-15 4 -27 6 -37 6c-65 0 -108 -35 -127 -104z
" />
    <glyph glyph-name="ampersand" unicode="&#x26;" horiz-adv-x="1316"
d="M425 1433c103 0 189 -48 260 -143c34 -58 51 -114 51 -168c0 -92 -36 -170 -108 -234h-3c0 4 -8 13 -23 28c61 61 92 129 92 203c0 111 -57 196 -171 254c-27 8 -60 14 -98 19c-110 0 -195 -56 -254 -168c-13 -41 -19 -77 -19 -108c0 -76 31 -142 92 -197
c0 -5 -9 -16 -28 -31c-70 65 -105 142 -105 231c0 103 42 190 133 257c55 40 118 57 181 57zM355 625h-3l-70 237h3l235 -73v-3zM342 802v-3c17 -49 27 -80 29 -95h3c3 0 25 22 67 66c-65 21 -98 32 -99 32zM127 656l25 -31c-51 -51 -78 -90 -82 -115l440 -437h4
c35 12 79 47 130 105c19 -15 28 -23 28 -26v-3c-81 -99 -182 -149 -301 -149c-135 0 -244 64 -327 193c-29 59 -44 115 -44 168v29c0 43 7 80 22 111l-3 6c23 55 59 104 108 149zM507 640h3l267 -263c135 165 208 253 218 263c19 -15 29 -23 29 -25l-219 -269
c111 -107 214 -211 311 -311l-32 -29l-602 606v3c0 3 8 11 25 25zM54 469c-9 -26 -13 -52 -13 -79v-25c0 -125 66 -224 197 -295c51 -19 97 -30 136 -29c33 1 63 6 92 13v3c-141 145 -279 282 -412 412zM755 311h3l-19 -146c-57 39 -95 65 -114 76c5 7 48 31 130 70z" />
    <glyph glyph-name="quoteright" unicode="&#x2019;" horiz-adv-x="557"
 />
    <glyph glyph-name="parenleft" unicode="(" horiz-adv-x="477"
d="M255 1433c0 -3 7 -15 22 -34c-57 -40 -111 -90 -151 -157c-60 -99 -85 -199 -85 -296v-462c0 -175 76 -326 229 -453v-3c-13 -19 -20 -28 -22 -28c-103 74 -179 181 -226 321c-15 63 -22 117 -22 160v468c0 159 61 305 189 431c37 37 61 53 66 53z" />
    <glyph glyph-name="parenright" unicode=")" horiz-adv-x="477"
d="M22 1439c107 -69 188 -182 236 -340c15 -51 19 -100 19 -144v-469c0 -95 -27 -189 -76 -287c-21 -41 -68 -102 -147 -179c-16 -11 -26 -16 -29 -16c0 2 -7 12 -22 31c99 70 170 171 211 303c16 51 22 102 22 151v462c0 177 -78 329 -233 454h-3c15 19 22 31 22 34z" />
    <glyph glyph-name="asterisk" unicode="*" horiz-adv-x="858"
d="M311 1395v203h36v-203c15 0 38 -9 67 -26c0 3 45 50 136 142l21 -26c0 -3 -45 -50 -135 -141c18 -29 27 -53 27 -71h195v-31c0 -3 -2 -5 -5 -5h-190c-1 -21 -10 -43 -27 -68c3 0 48 -47 135 -141c0 -3 -8 -11 -24 -26c-2 1 -48 49 -138 142c-23 -19 -43 -29 -62 -29v-200
h-36v200c-15 0 -37 10 -67 29c0 -3 -45 -50 -136 -142c-2 0 -10 9 -24 26c3 0 48 47 135 141v3c-16 24 -24 46 -24 65h-195v36h195c0 17 8 40 24 71c-2 0 -47 47 -135 141l27 26c0 -3 45 -50 135 -142c26 17 48 26 65 26zM273 1341c1 -3 13 -16 38 -39v56
c-13 0 -26 -6 -38 -17zM347 1358v-56c3 0 15 13 38 39c0 6 -13 12 -38 17zM409 1316l-38 -43h57c0 12 -6 26 -19 43zM230 1273h54c0 3 -13 17 -38 40c-5 0 -11 -13 -16 -40zM284 1237h-54v-3c0 -3 5 -15 14 -37h2c3 0 15 13 38 40zM428 1237h-54c0 -3 13 -16 38 -40
c7 10 12 23 16 40zM271 1169c21 -11 35 -17 40 -17v59c-2 0 -15 -14 -40 -42zM385 1172l-38 37v-57c23 7 36 13 38 20z" />
    <glyph glyph-name="plus" unicode="+" horiz-adv-x="895"
d="M272 811l53 -49v289h45v-289l53 49h4c3 0 12 -9 28 -28v-4l-49 -53h289v-45h-289l49 -53v-4c0 -3 -9 -12 -28 -28h-4l-53 49v-289h-45v289l-53 -49h-4c-3 0 -12 9 -28 28v4l49 53h-289v45h289l-49 53v4c0 3 9 12 28 28h4z" />
    <glyph glyph-name="comma" unicode="," horiz-adv-x="416"
d="M0 -1h96v124h27v-124h93v-2c-71 -134 -107 -201 -108 -201h-2c-7 15 -42 82 -106 203zM172 -28h-126v-2c32 -63 53 -102 64 -118c10 21 31 61 62 120z" />
    <glyph glyph-name="hyphen" unicode="-" horiz-adv-x="700"
d="M500 689h-500v33h500v-33z" />
    <glyph glyph-name="period" unicode="." horiz-adv-x="398"
d="M88 198h12c47 0 79 -27 96 -82l2 -18c0 -44 -26 -76 -78 -96c-5 0 -13 -1 -22 -2c-44 0 -76 26 -96 78c0 3 -2 10 -2 22c0 49 29 81 88 98zM27 100c0 -35 19 -58 57 -71h24c27 0 48 18 61 55l2 14c-7 49 -32 73 -73 73c-47 -9 -71 -32 -71 -71z" />
    <glyph glyph-name="slash" unicode="/" horiz-adv-x="1057"
d="M0 22v3l822 1405c23 -11 35 -18 35 -22c-465 -793 -705 -1204 -718 -1232c3 0 52 -49 148 -148c0 -3 -10 -12 -29 -28c0 3 -47 50 -141 142h-4l-75 -136c-5 0 -17 5 -38 16z" />
    <glyph glyph-name="zero" unicode="0" horiz-adv-x="1255"
d="M518 1433h13c185 0 341 -83 452 -259c53 -84 72 -176 72 -266v-384c0 -175 -75 -322 -231 -433c-91 -64 -187 -91 -284 -91h-22c-177 0 -326 78 -437 243c-58 86 -81 178 -81 266v421c0 123 53 241 159 356c111 98 230 147 359 147zM41 927v-256
c199 -202 403 -407 614 -615c138 46 234 121 291 222c44 78 68 160 68 250v377c0 181 -85 325 -256 431c-77 37 -153 56 -230 56c-160 0 -295 -66 -397 -203c-63 -86 -90 -175 -90 -262zM524 1389c53 0 89 -29 107 -87v-32c0 -41 -27 -71 -82 -90c-1 0 -10 -1 -25 -3
c-44 0 -76 25 -96 75c-5 11 -7 22 -7 34c0 47 28 80 85 100c9 0 15 1 18 3zM462 1283c0 -28 16 -49 47 -63l15 -3c37 0 59 20 66 60v12c-7 37 -26 56 -56 56h-13c-32 0 -52 -21 -59 -62zM284 1261c71 -12 106 -47 106 -106c0 -46 -24 -79 -72 -100c-17 -4 -29 -6 -34 -6
c-43 0 -75 24 -97 72c-4 8 -6 19 -6 34c0 49 27 83 81 103c7 0 14 1 22 3zM768 1261c69 -13 103 -47 103 -103v-6c0 -59 -35 -93 -106 -103c-47 0 -80 27 -100 81c-2 11 -3 21 -3 28c0 46 27 79 81 100c9 0 17 1 25 3zM222 1158v-6c0 -34 22 -55 65 -63c42 9 63 30 63 63v6
c-8 39 -26 59 -53 59h-22c-27 0 -45 -20 -53 -59zM702 1155c7 -44 29 -66 66 -66c41 10 62 29 62 57v12c-7 39 -25 59 -56 59h-19c-27 0 -45 -21 -53 -62zM41 612v-125c0 -18 17 -40 50 -66c248 -251 375 -377 380 -377c11 -2 22 -3 32 -3h34c28 0 51 2 69 6
c-171 173 -359 362 -565 565zM59 393v-3c32 -108 97 -197 194 -268c75 -42 121 -63 140 -63c-109 113 -221 224 -334 334z" />
    <glyph glyph-name="one" unicode="1" horiz-adv-x="836"
d="M0 885l309 544h3c23 -4 34 -8 34 -12v-1228c0 -3 49 -52 148 -148h142v-41h-620v41h289v1105h-107c-5 -4 -60 -98 -163 -283c-23 11 -35 18 -35 22zM305 1187v151h-3c-55 -98 -82 -148 -82 -151h85zM346 129v-88h88c0 3 -29 32 -88 88z" />
    <glyph glyph-name="two" unicode="2" horiz-adv-x="930"
d="M349 1432h22c107 0 202 -46 280 -142c55 -68 79 -141 79 -217v-25c0 -97 -41 -185 -123 -265h-3c-1 0 -10 10 -25 29c73 75 110 151 110 226c-233 229 -349 347 -349 353c-84 0 -163 -40 -236 -120v-3h-3c-21 16 -31 25 -32 28c83 91 177 136 280 136zM396 1391v-3
c103 -105 199 -202 290 -290h3c-7 58 -31 116 -72 173c-67 67 -124 102 -170 107c0 2 -17 6 -51 13zM245 620v217h227v-223h-220c-5 0 -7 2 -7 6zM296 736v-15c0 -33 21 -53 63 -60c44 7 66 29 66 66c0 33 -20 54 -60 63h-16c-35 -11 -53 -29 -53 -54zM126 661
c3 0 11 -8 25 -25v-4c-73 -73 -110 -157 -110 -254c223 -221 335 -333 337 -334h333v-41h-497c-2 0 -3 -1 -3 -3l-6 3h-186v35c1 4 3 6 6 6h139c0 3 -41 44 -123 123v-76h-41v277c0 122 42 220 126 293zM41 321v-94c53 -55 113 -116 182 -183h95c-101 103 -193 196 -277 277
z" />
    <glyph glyph-name="three" unicode="3" horiz-adv-x="877"
d="M280 1433h22c127 0 233 -63 318 -190c29 -62 44 -118 44 -169v-35c0 -93 -41 -180 -124 -260h-6c0 4 -7 13 -22 28c74 73 111 152 111 236v31c0 118 -64 215 -191 290c-51 19 -95 28 -130 28h-19c-52 0 -107 -15 -165 -44h-4l-15 35c62 33 122 50 181 50zM429 1271
c70 -11 105 -46 105 -105v-3c0 -49 -28 -84 -83 -105h-35c-41 0 -71 27 -92 80c-2 8 -3 16 -3 25v10c0 40 24 71 73 92c11 5 23 6 35 6zM362 1163c7 -42 27 -63 61 -63h9c41 7 61 27 61 60v6c0 35 -22 57 -67 64c-35 0 -57 -22 -64 -67zM413 798h32c4 -1 6 -3 6 -7v-158
c0 -5 -2 -7 -6 -7h-32c-4 0 -6 2 -6 7v158c1 5 3 7 6 7zM550 655h3c83 -79 124 -168 124 -267v-26c0 -121 -59 -223 -178 -308c-63 -36 -128 -54 -197 -54h-6c-116 0 -215 51 -296 153c18 15 30 22 35 22c71 -89 159 -134 264 -134h6c100 0 188 39 258 124
c52 63 73 131 73 197v26c0 86 -37 165 -112 238c15 19 24 29 26 29zM429 477c70 -11 105 -46 105 -105v-3c0 -49 -28 -84 -83 -105h-35c-41 0 -71 26 -92 79c-2 9 -3 17 -3 26v9c0 41 24 71 73 92c11 5 23 7 35 7zM362 369c7 -43 27 -64 61 -64h9c41 7 61 28 61 61v6
c0 35 -22 56 -67 63c-35 0 -57 -22 -64 -66z" />
    <glyph glyph-name="four" unicode="4" horiz-adv-x="1075"
d="M0 780l657 654h3c11 0 21 -5 32 -16v-619c0 -12 32 -40 85 -95l70 -72c0 -3 -10 -12 -29 -29c-1 3 -43 46 -126 127v-70l158 -161l-29 -25h-3l-126 123v-379l183 -186c0 -3 -9 -13 -28 -29l-155 152v-142h-41v142l-158 -155c-3 0 -12 9 -29 28c56 53 118 116 187 187
v1153c-192 -189 -387 -384 -585 -585h540v-34c0 -5 -2 -7 -6 -7h-581c-4 0 -10 13 -19 38zM366 1001l215 114h7v-231h-4c-144 75 -217 114 -218 117zM455 998l91 -47v98c-41 -19 -71 -36 -91 -51z" />
    <glyph glyph-name="five" unicode="5" horiz-adv-x="963"
d="M57 1429h684v-41h-333l-326 -324c0 -57 31 -119 94 -188c0 -3 -9 -12 -28 -28c-55 57 -89 110 -98 160l-12 66l3 6v145c0 2 -1 3 -3 3l3 6v113h34c5 -1 7 -3 7 -6v-66c3 0 40 38 113 113h-138c-5 0 -7 2 -7 6v28c1 5 3 7 7 7zM82 1212v-91c94 91 183 180 267 267h-92
c-31 -29 -89 -87 -175 -176zM283 841h213c4 0 6 -2 6 -6v-213c0 -5 -2 -7 -6 -7h-213c-5 0 -7 2 -7 7v213c1 4 3 6 7 6zM430 798v3h-81c0 -3 14 -18 43 -44zM421 728c0 -3 14 -16 41 -40v81c-3 0 -17 -14 -41 -41zM361 728l-41 38v-78c3 0 17 13 41 40zM619 750
c96 -89 144 -194 144 -317c0 -175 -86 -308 -257 -398c-65 -23 -122 -35 -173 -35c-129 0 -240 53 -333 160c15 17 27 25 35 25v-3c85 -92 176 -138 273 -138l414 411c0 69 -30 144 -91 226l-38 41c5 10 14 19 26 28zM349 656h81c0 3 -14 17 -41 41c-3 0 -16 -14 -40 -41z
M367 44h7c50 0 114 24 191 72c103 89 154 183 154 280c-119 -117 -237 -235 -352 -352z" />
    <glyph glyph-name="six" unicode="6" horiz-adv-x="1248"
d="M526 1434c171 0 315 -76 432 -228c23 -38 34 -61 34 -68c-3 0 -15 -5 -34 -16c-51 107 -138 187 -262 241c-69 21 -125 31 -170 31c-173 0 -316 -78 -421 -241c-46 -71 -65 -171 -65 -294v-133h3c45 111 124 202 241 263c81 43 163 59 242 59c164 0 306 -68 417 -210
c73 -93 105 -201 105 -316c0 -185 -86 -335 -257 -451c-87 -47 -178 -71 -272 -71c-162 0 -301 69 -414 210c-71 88 -105 207 -105 353v309c0 259 114 441 349 532c63 24 123 30 177 30zM40 522c0 -59 13 -121 40 -188h891c25 67 37 131 37 192c0 169 -78 307 -235 414
c-86 45 -168 68 -247 68c-165 0 -302 -74 -409 -223c-51 -86 -77 -174 -77 -263zM526 906c56 0 96 -33 120 -99c0 -9 1 -17 3 -25c0 -59 -34 -100 -102 -124c62 -117 93 -177 93 -182h-226c4 13 35 74 93 182c-36 0 -69 27 -99 81c-4 14 -6 26 -6 37v9c0 57 33 97 99 118
c9 0 17 1 25 3zM442 795v-13c6 -55 34 -83 84 -83h6c33 0 57 22 74 65v27c-11 48 -35 72 -71 72h-25c-29 0 -52 -23 -68 -68zM529 609h-3c-4 -10 -20 -40 -47 -90h96c-31 56 -46 86 -46 90zM949 294h-850c25 -43 43 -69 56 -78h745c23 33 40 59 49 78zM856 173h-661
c92 -89 203 -133 334 -133c121 0 230 44 327 133z" />
    <glyph glyph-name="seven" unicode="7" horiz-adv-x="911"
d="M0 1400v35h695v-35c0 -5 -2 -7 -6 -7h-67v-175h3l48 105c13 -1 26 -8 38 -19l-622 -1304h-3c-3 0 -15 4 -35 13c19 46 184 392 494 1039c23 49 35 75 35 80v261h-574c-4 0 -6 2 -6 7zM13 1361v4h236c-68 -131 -108 -205 -121 -224c-11 25 -49 98 -115 220zM179 1323h-96
v-3l45 -89c12 15 29 45 51 92z" />
    <glyph glyph-name="eight" unicode="8" horiz-adv-x="963"
d="M377 1428c143 0 255 -71 335 -212c23 -55 35 -104 35 -146v-28c0 -101 -42 -191 -126 -270l-26 32v3c21 14 47 41 70 83c29 52 41 104 41 155v22c0 115 -59 209 -177 282c-52 25 -105 38 -159 38c-117 0 -213 -57 -288 -171c-27 -55 -41 -110 -41 -165
c0 -91 37 -174 111 -247v-3c0 -3 -8 -11 -25 -25c-34 28 -65 62 -86 104c-29 58 -41 117 -41 174c0 141 66 255 203 333c52 30 111 41 174 41zM383 1010c76 -145 114 -219 114 -222h-231v3c75 145 114 218 117 219zM380 921l-48 -92h99c-31 61 -48 92 -51 92zM139 652
c3 0 13 -10 29 -31c-21 -15 -46 -43 -73 -86c-27 -57 -41 -112 -41 -165c0 -103 43 -192 133 -262c60 -47 124 -67 187 -67h22c116 0 213 54 282 168c30 49 41 101 41 149v31c0 85 -37 162 -111 232c0 5 9 16 28 31c85 -82 127 -175 127 -278c0 -111 -43 -212 -139 -292
c-69 -58 -144 -82 -216 -82h-38c-124 0 -228 64 -313 193c-29 64 -44 125 -44 184c0 104 42 196 126 275zM380 424l-114 216v6h231v-6c-75 -144 -114 -216 -117 -216zM431 605h-99l48 -95h3c0 3 16 34 48 95z" />
    <glyph glyph-name="nine" unicode="9" horiz-adv-x="1248"
d="M510 1431h28c163 0 306 -73 420 -228c64 -87 90 -199 90 -328v-319c0 -253 -113 -431 -343 -525c-60 -24 -116 -31 -167 -31h-28c-165 0 -306 77 -423 232c-21 35 -31 55 -31 62c3 0 15 5 34 15c55 -113 146 -197 275 -244c53 -19 103 -25 148 -25h16
c169 0 307 77 411 235c46 69 68 172 68 306v124h-3c-18 -51 -54 -112 -118 -173c-106 -100 -225 -146 -349 -146h-28c-123 0 -240 44 -343 140c-114 105 -167 237 -167 386c0 133 45 256 145 359c107 110 232 160 365 160zM195 1261v-705c94 -86 200 -129 318 -129h16
c118 0 224 41 318 123h3v711c-41 41 -86 70 -133 90c-60 26 -121 40 -188 40h-16c-118 0 -224 -43 -318 -130zM615 1060h-182v183h182v-183zM890 1221v-624c79 93 118 197 118 312s-39 219 -118 312zM40 906c0 -115 38 -217 115 -306v618c-77 -88 -115 -192 -115 -312z
M575 1101v102h-102v-102h102z" />
    <glyph glyph-name="colon" unicode=":" horiz-adv-x="501"
d="M121 1022l31 3c71 0 119 -40 146 -121c2 -18 3 -28 3 -31c0 -67 -39 -116 -118 -146c-9 0 -20 -1 -34 -3c-62 0 -109 34 -140 102c-4 9 -8 25 -9 50c0 71 40 119 121 146zM40 876c0 -52 29 -88 87 -109h38c41 0 72 28 93 84l3 22c-11 75 -49 112 -112 112
c-47 0 -81 -26 -102 -78c-5 -17 -7 -28 -7 -31zM149 301c70 0 120 -39 149 -118c0 -4 1 -15 3 -34c0 -66 -36 -114 -108 -143c-15 -4 -31 -6 -47 -6c-62 0 -108 34 -137 103c-4 8 -8 24 -9 49c0 65 37 113 112 143c25 2 37 4 37 6zM40 149c0 -47 26 -81 78 -102
c8 -5 19 -7 34 -7c49 0 84 28 106 84c0 5 1 14 3 25c0 51 -27 86 -81 106c-8 2 -16 3 -25 3h-9c-49 0 -84 -28 -103 -84c0 -5 -1 -14 -3 -25z" />
    <glyph glyph-name="semicolon" unicode=";" horiz-adv-x="537"
d="M137 1019l33 3c75 0 126 -43 154 -128c2 -19 3 -29 3 -32c0 -71 -41 -122 -124 -154c-9 0 -21 -1 -36 -3c-65 0 -113 36 -147 108c-4 9 -9 26 -10 52c-1 74 42 125 127 154zM52 865c0 -55 31 -94 92 -115h39c43 0 76 30 98 89l4 23c-13 78 -52 117 -118 117
c-49 0 -85 -27 -108 -81c-5 -19 -7 -30 -7 -33zM0 0h147v199h43v-199h147v-3c-97 -186 -153 -292 -170 -317c-99 187 -155 294 -167 320zM268 -42h-199c65 -123 98 -187 98 -190h3c10 23 43 86 98 190z" />
    <glyph glyph-name="less" unicode="&#x3c;" horiz-adv-x="1211"
d="M995 1166l16 -39l-943 -376v-4l943 -376c-10 -26 -16 -39 -19 -39c-623 249 -953 382 -992 399c4 7 6 14 6 20c0 3 -2 9 -6 16c23 11 355 144 995 399zM789 867v-236c-13 4 -88 43 -225 116v4c110 58 185 97 225 116zM650 751v-4l97 -48v100c-61 -32 -93 -48 -97 -48z
" />
    <glyph glyph-name="equal" unicode="=" horiz-adv-x="918"
d="M718 877h-718v32h718v-32zM718 684h-718v32h718v-32z" />
    <glyph glyph-name="greater" unicode="&#x3e;" horiz-adv-x="1214"
d="M13 1176c663 -263 997 -397 1001 -402c0 -3 -2 -10 -6 -19c4 -7 6 -14 6 -20l-1001 -398c-7 17 -10 30 -10 39c627 253 942 379 946 379v3c-4 0 -320 126 -949 379v3c9 17 13 29 13 36zM227 638h-3v237h3c133 -71 208 -110 223 -117c-1 -3 -75 -43 -223 -120zM266 807
v-101c61 31 93 49 94 52c-3 0 -35 16 -94 49z" />
    <glyph glyph-name="question" unicode="?" horiz-adv-x="870"
d="M294 1436c149 0 264 -75 344 -224c21 -53 32 -105 32 -156c0 -106 -41 -199 -124 -278h-7c-15 15 -22 26 -22 32c75 67 112 150 112 249c0 115 -51 208 -154 281h-357c-15 0 -44 -23 -86 -70c-4 0 -15 8 -32 25c79 94 177 141 294 141zM211 1385v-4h165v4
c-35 6 -63 9 -86 9c-17 0 -44 -3 -79 -9zM294 877c3 0 56 -53 159 -159l-163 -160l-156 160c0 3 53 56 160 159zM227 718c8 -43 29 -64 63 -64h7c40 7 60 27 60 61v9c0 34 -21 54 -63 61h-4c-35 0 -56 -22 -63 -67zM306 284h-41v211h41v-211zM271 214h26c45 0 78 -26 99 -77
c2 -8 3 -16 3 -25v-16c0 -43 -28 -74 -83 -93c-9 -2 -16 -3 -22 -3c-51 0 -86 28 -106 83c-2 12 -3 20 -3 25c0 51 29 86 86 106zM227 102c11 -41 31 -61 60 -61h7c42 7 63 28 63 61v16c0 28 -20 46 -60 54h-10c-35 0 -55 -23 -60 -70z" />
    <glyph glyph-name="at" unicode="@" horiz-adv-x="1425"
d="M612 1433c215 0 393 -94 523 -292c64 -97 90 -211 90 -333v-471c0 -53 -29 -91 -87 -113h-38c-41 0 -72 27 -93 81c-5 8 -7 20 -7 35v208h-3c-45 -103 -131 -180 -260 -231c-54 -15 -101 -22 -141 -22c-169 0 -304 78 -397 240c-38 67 -52 139 -52 209
c0 153 67 281 206 375c73 50 149 70 221 70h42c135 0 253 -66 355 -198c49 -87 74 -169 74 -247c0 -2 -1 -3 -3 -3l3 -16v-398c7 -41 28 -61 61 -61h13c38 0 59 26 64 77v462c0 239 -110 418 -330 535c-82 34 -163 51 -244 51c-197 0 -361 -89 -484 -272
c-58 -85 -83 -206 -83 -359v-77c0 -139 20 -241 51 -308c26 -55 64 -122 135 -186c112 -102 240 -147 375 -147h6c5 -1 7 -3 7 -7v-35h-23c-163 0 -315 68 -446 212c-102 112 -147 260 -147 436v128c0 209 65 368 189 484c122 113 261 173 423 173zM189 741
c0 -142 64 -262 199 -347c66 -42 136 -57 205 -57c153 0 273 71 362 214c30 65 45 122 45 170v39c0 126 -59 237 -183 324c-67 46 -137 64 -205 64h-32c-124 0 -234 -57 -320 -177c-50 -71 -71 -149 -71 -230zM622 991c109 0 187 -57 234 -170c9 -30 13 -56 13 -77
c0 -82 -42 -146 -128 -186c-22 -11 -48 -13 -74 -13h-3c-81 0 -135 47 -161 141v29c0 59 35 102 106 128c8 0 18 1 29 3c75 -12 112 -48 112 -109v-16c0 -37 -23 -63 -70 -80c-3 -2 -10 -3 -23 -3h-6c-31 0 -55 19 -71 58c-2 8 -3 15 -3 22c0 30 16 51 48 64c9 2 17 3 26 3
c26 0 44 -19 54 -57l-6 -3h-32c-7 13 -16 19 -26 19c-15 -5 -22 -15 -22 -29c5 -23 17 -35 35 -35h3c34 5 51 20 51 45v19c0 29 -23 50 -70 61c-42 0 -72 -24 -90 -71c-2 -8 -3 -17 -3 -26v-3c0 -55 33 -95 99 -118h26c73 0 123 39 151 118c4 21 6 34 6 39
c0 81 -40 144 -119 186c-26 14 -55 19 -86 19c-115 0 -197 -60 -247 -180c-9 -29 -13 -55 -13 -80h-41v3c0 118 61 210 182 276c45 15 84 23 119 23z" />
    <glyph glyph-name="A" unicode="A" horiz-adv-x="1369"
d="M565 1433h35c5 0 37 -87 105 -258c40 -101 197 -485 464 -1156h-3c-19 -9 -31 -13 -35 -13c-34 84 -51 128 -51 131h-3l-143 -137c-2 0 -12 11 -29 32c5 1 57 50 156 149c-315 785 -473 1180 -473 1185h-7l-470 -1182c104 -99 157 -151 159 -155c0 -3 -10 -13 -29 -29
c-95 95 -145 143 -149 143l-54 -137l-38 13c0 5 188 477 565 1414zM785 623h-407v41h413v-35c0 -4 -2 -6 -6 -6zM581 524c8 -8 48 -82 121 -222h-235c76 145 114 219 114 222zM588 435h-7l-44 -92h95v3c-13 22 -27 52 -44 89z" />
    <glyph glyph-name="B" unicode="B" horiz-adv-x="987"
d="M389 1392h-254v41h251c111 0 197 -60 260 -179c15 -37 22 -75 22 -113c0 -107 -49 -191 -147 -254c-24 -12 -38 -18 -41 -18v-4c57 -11 123 -49 191 -122c80 -86 116 -188 116 -301c0 -161 -78 -292 -235 -392c-71 -33 -140 -50 -207 -50h-210v41h207c44 0 66 3 66 9
l-367 364v-398h-41v1398h41v-727c169 -173 354 -358 555 -555c100 85 150 189 150 313c0 137 -60 253 -185 339c-69 47 -144 66 -219 66v41h3c6 0 13 -1 22 -4c98 0 175 43 229 132c22 36 31 80 31 129c0 80 -37 150 -113 203c-42 29 -85 41 -125 41zM201 1248
c53 0 89 -29 106 -88v-31c0 -41 -27 -71 -81 -91l-22 -3c-47 0 -80 25 -101 75c-4 11 -6 23 -6 35c0 47 28 80 85 100c9 0 16 1 19 3zM138 1145v-4c0 -28 16 -49 47 -62l16 -3c37 0 59 20 66 59v13c-7 37 -26 56 -57 56h-19c-25 0 -43 -20 -53 -59zM41 624v-147l417 -421
c39 14 73 30 103 47c-203 207 -377 380 -520 521z" />
    <glyph glyph-name="C" unicode="C" horiz-adv-x="1240"
d="M694 1429h32c93 0 188 -21 283 -62v-199h-41v168c0 8 -40 21 -121 40h-9l-785 -787c26 -125 74 -224 140 -299c52 -60 103 -110 159 -144c117 -72 238 -106 361 -106c97 0 192 22 287 66v149h40v-171c0 -7 -38 -24 -115 -53c-85 -21 -155 -31 -212 -31
c-207 0 -392 78 -542 249c-119 136 -171 292 -171 455v31c0 189 74 368 240 517c139 124 295 177 454 177zM40 747v-59c0 -10 1 -26 4 -47c270 268 518 516 744 745c-21 2 -36 3 -47 3h-59c-262 -260 -476 -474 -642 -642zM47 813c217 214 407 404 570 570
c-118 -21 -217 -60 -296 -119c-65 -48 -120 -102 -162 -165c-66 -99 -102 -195 -112 -286zM629 308c0 -3 23 -25 68 -68c0 3 23 25 69 68l25 -28l-65 -68l65 -69c0 -3 -9 -12 -28 -28c0 3 -23 26 -69 69c0 -3 -23 -26 -68 -69l-25 28l65 69l-65 68c0 3 9 12 28 28z" />
    <glyph glyph-name="D" unicode="D" horiz-adv-x="1027"
d="M112 1396v34h13c229 0 422 -103 580 -309c81 -128 122 -257 122 -387v-40c0 -172 -64 -338 -209 -484c-142 -143 -313 -206 -496 -206h-3c-5 0 -7 2 -7 6v28c1 5 3 7 7 7c119 5 184 18 196 37c300 296 450 447 450 453c14 65 21 117 21 156v49c0 182 -80 348 -240 497
c-135 102 -273 153 -415 153h-12c-5 0 -7 2 -7 6zM41 23h-41v1388h41v-1388zM200 1212h3c69 -9 103 -44 103 -103v-3c0 -50 -27 -83 -81 -100c-8 -2 -16 -3 -25 -3c-69 11 -103 46 -103 103v3c10 69 44 103 103 103zM137 1109v-3c7 -42 28 -63 63 -63h3c41 7 62 28 62 63v6
c-7 39 -26 59 -59 59h-9c-33 0 -53 -21 -60 -62zM203 953c51 0 85 -30 103 -91v-15c0 -47 -25 -81 -75 -100c-8 -2 -16 -3 -25 -3h-16c-40 0 -70 26 -90 78c-2 8 -3 16 -3 25c9 71 45 106 106 106zM137 850v-7c7 -39 27 -59 60 -59h9c39 7 59 27 59 59v7c0 35 -22 55 -65 62
c-42 -8 -63 -29 -63 -62zM200 694c71 -12 106 -47 106 -106c0 -58 -33 -94 -100 -107h-6c-50 0 -84 30 -103 91v16c0 49 27 83 81 103c15 0 22 1 22 3zM137 591v-7c0 -35 22 -55 66 -62c41 8 62 29 62 62v7c-8 39 -26 59 -53 59h-22c-27 0 -45 -20 -53 -59zM724 432h-3
l-322 -325c148 71 256 180 325 325zM200 432h3c69 -9 103 -44 103 -103v-4c0 -49 -27 -82 -81 -99c-8 -3 -16 -4 -25 -4c-69 11 -103 46 -103 103v4c10 69 44 103 103 103zM137 329v-4c7 -41 28 -62 63 -62h3c41 7 62 28 62 62v7c-7 39 -26 59 -59 59h-9
c-33 0 -53 -21 -60 -62z" />
    <glyph glyph-name="E" unicode="E" horiz-adv-x="834"
d="M222 1435l6 -3h403v-41h-394c-35 -33 -101 -99 -196 -197v-946c77 -80 146 -149 206 -206h384v-43h-522c-4 0 -6 1 -6 5v31c1 5 3 7 6 7h78c0 3 -49 52 -146 147v-166h-41v1380h41v-149c3 0 48 46 137 137h-75v41h116c2 0 3 1 3 3zM600 1375h34v-237h-41v231c1 4 3 6 7 6
zM593 635v231h41v-237h-34c-5 0 -7 2 -7 6zM128 854c0 -3 23 -26 69 -69c0 3 23 26 68 69l25 -28l-65 -69l65 -69c0 -3 -9 -12 -28 -28c0 3 -23 26 -68 69c0 -3 -23 -26 -69 -69l-25 28l66 69l-66 69c0 3 9 12 28 28zM387 854l69 -66l69 66c3 0 12 -9 28 -28
c-3 0 -26 -23 -69 -69c3 0 26 -23 69 -69l-31 -28c0 3 -23 26 -69 69c0 -3 -23 -26 -69 -69l-25 28l66 69l-66 69c0 3 9 12 28 28zM600 295h34v-238h-34c-5 0 -7 2 -7 7v224c1 5 3 7 7 7z" />
    <glyph glyph-name="F" unicode="F" horiz-adv-x="847"
d="M184 1392h-76v42h536v-42h-203c-267 -263 -400 -397 -400 -402v-797l165 -168l-28 -25l-134 130h-3v-127h-35c-4 0 -6 2 -6 7v1395h41v-152h3c3 0 50 46 140 139zM41 1189v-136c114 111 227 224 340 339h-137c-3 0 -71 -68 -203 -203zM612 1376h29c4 -1 6 -3 6 -6v-235
h-41v235c1 4 3 6 6 6zM89 631v235c143 -76 216 -114 219 -114v-7c-18 -7 -91 -45 -219 -114zM219 745v7l-89 44v-95h3c47 26 75 41 86 44z" />
    <glyph glyph-name="G" unicode="G" horiz-adv-x="1216"
d="M701 1433h35c86 0 177 -21 274 -62v-200h-40v175c-89 31 -168 46 -237 46h-38c-159 0 -307 -61 -446 -183c-83 -87 -138 -169 -165 -247c-21 -60 -31 -100 -31 -121l786 -783h3c19 0 72 18 159 53c10 -19 15 -31 15 -34c-101 -50 -201 -75 -302 -75
c-206 0 -393 78 -543 249c-120 136 -171 293 -171 456v31c0 187 73 360 231 508c139 130 299 187 470 187zM44 794c-2 -21 -3 -36 -3 -47v-59c259 -263 473 -477 642 -642h84l22 3c-268 270 -516 518 -745 745zM720 585l218 112v-230c-143 73 -215 112 -218 118zM979 682h31
c4 -1 6 -3 6 -7v-530c0 -4 -2 -6 -6 -6h-31c-4 0 -6 2 -6 6v530c1 5 3 7 6 7zM807 585v-6l91 -44v97c-49 -27 -80 -43 -91 -47zM47 619v-3c27 -141 78 -252 153 -333c70 -76 129 -124 174 -147c104 -53 179 -81 228 -81c0 -2 4 -3 12 -3c-205 207 -394 396 -567 567z" />
    <glyph glyph-name="H" unicode="H" horiz-adv-x="1110"
d="M42 0h-42v1429h42v-1429zM910 0h-42v1429h42v-1429zM368 1096l29 25l71 -67l70 67c3 0 12 -9 29 -28c-3 0 -26 -24 -70 -71c3 0 26 -23 70 -70l-29 -26l-70 67l-71 -67c-3 0 -12 10 -29 29c3 0 27 23 71 70c-3 0 -26 24 -71 71zM529 759h-125v42h131v-35
c0 -5 -2 -7 -6 -7zM141 698v36h654v-42h-648c-4 0 -6 2 -6 6zM535 628h-131v42h125c4 -1 6 -3 6 -7v-35zM368 481l29 25l71 -67l70 67c3 0 12 -10 29 -29c-3 0 -26 -23 -70 -70c3 0 26 -24 70 -71l-29 -25l-70 67l-71 -67c-3 0 -12 10 -29 29c3 0 27 23 71 70
c-3 0 -26 24 -71 71z" />
    <glyph glyph-name="I" unicode="I" horiz-adv-x="660"
d="M50 1396h-50v40h460v-40h-47c-6 -3 -60 -58 -163 -163v-1033c3 -6 57 -59 160 -159h50v-41h-460v41h53c3 0 56 52 157 156v1039c-3 6 -57 59 -160 160zM350 1396h-237c0 -3 32 -36 97 -97v31h34c4 0 6 -11 6 -34c3 0 36 33 100 100zM250 141v-44h-40v41
c-3 0 -34 -31 -94 -94v-3h231v3c0 3 -32 35 -97 97z" />
    <glyph glyph-name="J" unicode="J" horiz-adv-x="839"
d="M413 1433c4 -2 8 -3 13 -3h107v-40h-73c0 -3 46 -49 138 -138v150h41v-1062c0 -98 -29 -177 -88 -238c-65 -67 -144 -100 -235 -100c-125 0 -223 62 -288 188c-21 41 -28 89 -28 141v9c0 42 28 73 85 94h22c59 0 93 -35 103 -106c0 -51 -30 -86 -91 -104h-16
c-11 0 -28 4 -50 13c23 -69 67 -125 135 -163c18 -10 43 -18 75 -25l335 338v802c0 3 -67 70 -200 201h-395v40h398c5 0 9 1 12 3zM41 334v-9c0 -33 21 -53 62 -60c41 0 63 24 66 72c-11 38 -29 57 -56 57h-13c-39 -7 -59 -27 -59 -60zM313 43h3c116 0 203 55 257 166
c18 36 25 76 25 119c-73 -71 -168 -166 -285 -285z" />
    <glyph glyph-name="K" unicode="K" horiz-adv-x="1120"
d="M758 1433c3 0 12 -10 29 -29c-283 -279 -531 -528 -746 -745v-99h290l-140 144c0 3 9 11 26 25h3c259 -256 492 -489 700 -700c0 -3 -9 -12 -28 -29c-131 133 -271 272 -418 417h-433v-404c0 -5 -2 -7 -6 -7h-35v1417h41v-703c474 472 713 710 717 713zM96 1306l70 -67
l70 67c3 0 12 -10 28 -29l-67 -70l67 -70c0 -3 -9 -12 -28 -29l-70 67l-70 -67c-3 0 -13 10 -29 29l67 70l-67 70c0 3 10 12 29 29zM373 519h-332v-60h392c0 3 -20 23 -60 60z" />
    <glyph glyph-name="L" unicode="L" horiz-adv-x="1048"
d="M19 19h-19v1414h41v-1106c108 -111 203 -206 286 -286h324c3 0 55 52 156 156v73h41v-191h-41v58c-3 0 -34 -32 -95 -96h136v-41h-829v19zM397 153v171h175c4 -1 6 -3 6 -6v-165c0 -5 -2 -7 -6 -7h-168c-5 0 -7 2 -7 7zM534 187v96h-96v-96h96zM41 267v-70
c0 -3 52 -55 156 -156h70c-43 45 -118 121 -226 226zM41 133v-92h92c0 3 -31 33 -92 92z" />
    <glyph glyph-name="M" unicode="M" horiz-adv-x="1387"
d="M0 1420h19l16 13c218 -221 369 -373 453 -454c35 23 69 35 104 35h3c35 0 69 -12 101 -35l457 454c7 -9 19 -14 34 -16v-1398c0 -4 -2 -6 -6 -6h-35v116h-3l-132 -129l-25 28l160 164v1175h-3c-102 -99 -240 -238 -415 -416c25 -37 37 -73 37 -110
c0 -80 -45 -136 -135 -167c-15 -2 -26 -3 -35 -3h-3c-82 0 -138 45 -167 135c-2 11 -3 22 -3 32v9c0 37 13 71 38 104c-276 275 -416 413 -419 416v-1181l154 -158c0 -3 -9 -12 -28 -28c-1 3 -43 45 -126 126v-107c0 -4 -2 -6 -6 -6h-35v1407zM463 847v-9
c0 -57 33 -98 98 -123c14 -2 25 -3 34 -3c61 0 103 35 126 104l3 28c0 61 -35 104 -104 126c-8 3 -16 3 -25 3c-63 0 -106 -32 -129 -97c-2 -11 -3 -21 -3 -29zM494 913l29 26l69 -67l69 67c3 0 12 -10 29 -29c-3 0 -25 -22 -66 -66v-3l66 -69l-29 -26l-69 67l-69 -67
c-3 0 -12 10 -29 29c3 0 27 23 70 69c-3 0 -27 23 -70 69z" />
    <glyph glyph-name="N" unicode="N" horiz-adv-x="1045"
d="M0 10v1423h42v-157h64v3c-13 23 -25 46 -35 70c19 11 32 17 38 17l604 -1157h90v1224h42v-1423c0 -5 -2 -7 -6 -7h-29c-5 0 -7 2 -7 7v157h-67c7 -10 19 -34 35 -71h-3c-14 -8 -26 -12 -35 -12c-387 735 -587 1119 -601 1150h-90v-1224c0 -5 -2 -7 -7 -7h-29
c-4 0 -6 2 -6 7zM196 819h32c41 0 72 -28 93 -83l4 -23c0 -47 -26 -82 -78 -103c-11 -4 -23 -6 -35 -6c-69 13 -103 47 -103 103c-2 0 -3 2 -3 6c0 51 30 87 90 106zM572 806c0 -3 24 -26 71 -70c0 3 23 26 70 70l26 -28v-4l-67 -70c3 0 25 -23 67 -68v-3
c0 -3 -9 -11 -26 -26l-70 68l-71 -68c-3 0 -12 10 -29 29l67 71l-67 71c0 3 10 12 29 28zM148 713c8 -45 30 -67 67 -67c45 8 68 30 68 67c-9 43 -30 65 -61 65h-13c-32 0 -52 -22 -61 -65z" />
    <glyph glyph-name="O" unicode="O" horiz-adv-x="1617"
d="M688 1433h31c220 0 408 -98 565 -293c89 -134 133 -272 133 -414c0 -187 -65 -357 -207 -500c-143 -144 -315 -210 -503 -210c-205 0 -389 78 -537 247c-118 135 -170 290 -170 451v31c0 188 73 365 238 512c138 123 293 176 450 176zM40 741v-24
c0 -215 96 -396 287 -544c125 -78 252 -117 380 -117c215 0 401 89 543 278c91 121 127 255 127 392c0 208 -84 392 -266 534c-121 95 -257 133 -395 133h-24c-195 0 -367 -86 -516 -259c-91 -129 -136 -260 -136 -393zM707 1306c189 0 351 -79 475 -247
c74 -100 105 -216 105 -339c0 -143 -48 -276 -157 -392c-117 -125 -262 -182 -423 -182c-202 0 -367 91 -494 274c-57 101 -86 203 -86 306c0 181 73 340 231 463c107 83 228 117 349 117zM167 726c0 -184 79 -339 247 -454c89 -61 191 -86 296 -86c175 0 324 74 438 228
c69 94 99 201 99 315c0 178 -76 331 -238 445c-94 66 -198 92 -302 92c-135 0 -263 -45 -371 -148c-117 -111 -169 -245 -169 -392zM611 794l31 28c0 -3 23 -25 68 -68c0 3 23 25 68 68l25 -28l-65 -68l65 -68c0 -3 -9 -12 -28 -28l-68 65l-68 -65c-3 0 -12 9 -28 28
c3 0 25 23 68 68c-3 0 -25 23 -68 68z" />
    <glyph glyph-name="P" unicode="P" horiz-adv-x="791"
d="M233 1395h-154v41h150c117 0 218 -52 296 -161c47 -65 66 -137 66 -210c0 -119 -51 -222 -160 -302c-63 -46 -137 -66 -217 -66h-3c-53 0 -89 29 -107 88v19c10 69 44 104 103 104h4c69 -9 103 -44 103 -104v-3c0 -21 -5 -39 -15 -54h3c81 23 146 70 195 139
c35 65 53 124 53 179c0 105 -43 197 -135 267c-59 45 -122 63 -182 63zM41 15h-41v1402h41v-1229l157 -161c0 -3 -9 -12 -28 -27c-1 3 -44 46 -129 128v-113zM145 804v-3c8 -42 29 -63 62 -63h4c41 7 62 28 62 63v6c-7 40 -26 60 -59 60h-10c-33 0 -53 -21 -59 -63z" />
    <glyph glyph-name="Q" unicode="Q" horiz-adv-x="1629"
d="M690 1433h31c220 0 409 -98 566 -294c89 -134 133 -272 133 -414c0 -182 -66 -346 -198 -492c64 -62 133 -131 207 -207c0 -3 -9 -12 -28 -27c-62 64 -131 133 -207 206c-141 -128 -309 -192 -504 -192l-7 4c-2 0 -3 -1 -3 -4c-111 12 -195 32 -253 59
c-167 76 -290 195 -365 359c-43 94 -62 188 -62 281v31c0 189 73 366 238 514c138 123 294 176 452 176zM40 740v-40c6 0 158 -153 458 -455c127 -128 194 -191 198 -191c180 0 336 60 467 179v3l-350 353l28 24l353 -349c123 135 185 288 185 461c0 208 -84 392 -266 535
c-121 95 -257 133 -395 133h-25c-195 0 -368 -87 -517 -260c-91 -129 -136 -260 -136 -393zM1079 431h-3l-68 232c135 -43 212 -67 232 -71c-3 -6 -57 -60 -161 -161zM43 644c9 -86 40 -183 102 -284c80 -129 203 -220 362 -275c36 -13 77 -19 121 -25
c-195 198 -390 393 -585 584zM1067 601c19 -64 30 -96 34 -96l65 68c-5 0 -38 9 -99 28zM776 428h3c136 -41 212 -65 229 -71v-3l-161 -158c-45 145 -69 223 -71 232zM934 338l-99 31c6 -17 16 -50 31 -99c3 0 25 23 68 68z" />
    <glyph glyph-name="R" unicode="R" horiz-adv-x="1048"
d="M361 1392h-279v41h283c124 0 230 -59 308 -182c36 -57 50 -122 50 -189c0 -144 -72 -256 -217 -336c-54 -21 -105 -31 -154 -31v40h3c128 0 228 64 299 192c19 47 28 96 28 145c0 109 -53 201 -160 276c-55 29 -108 44 -161 44zM41 13h-41v1401h41v-936h305l-208 210
c0 3 10 12 29 29c237 -236 464 -463 681 -682v-4c0 -3 -8 -11 -25 -25h-3l-135 132c0 -3 -46 -49 -138 -138h-3c-3 0 -11 8 -25 25l138 142c-74 76 -164 166 -270 270h-346v-424zM239 1301l-3 22l6 3h35c7 -44 27 -66 59 -66h16c35 11 53 29 53 54c0 8 2 12 7 12h31l6 -3
c-13 -69 -47 -104 -103 -104h-7c-49 0 -83 27 -100 82z" />
    <glyph glyph-name="S" unicode="S" horiz-adv-x="937"
d="M365 1437h19c109 0 203 -47 283 -140l-28 -22h-4c-61 60 -115 96 -162 108c-21 6 -48 9 -79 9l-353 -356c0 -73 37 -148 111 -225c-15 -19 -24 -29 -25 -29c-45 40 -79 83 -98 131c-20 52 -29 98 -29 139v19c0 124 57 229 175 309c60 40 124 57 190 57zM41 1100h3
l293 295c-53 -5 -112 -30 -175 -73c-67 -67 -103 -124 -108 -171c-2 0 -6 -17 -13 -51zM372 830h6c52 0 86 -30 102 -89c0 -7 1 -13 3 -16c-13 -72 -49 -108 -108 -108c-49 0 -84 28 -105 83l-3 22c10 72 45 108 105 108zM308 722c0 -29 19 -51 57 -64h10c31 0 52 17 63 51
v22c0 27 -17 46 -50 58h-19c-33 0 -53 -22 -61 -67zM610 658c85 -77 127 -171 127 -282c0 -133 -62 -244 -191 -324c-56 -35 -120 -48 -187 -48c-117 0 -215 49 -295 146v10l25 19h3c52 -59 101 -96 146 -111c46 -15 80 -23 102 -23c118 121 237 239 356 356
c0 55 -27 121 -80 197c-3 0 -13 11 -31 32c0 5 8 15 25 28zM403 48h4c52 0 111 31 178 80c67 71 103 141 108 210c-75 -72 -172 -169 -290 -290z" />
    <glyph glyph-name="T" unicode="T" horiz-adv-x="1319"
d="M0 1326l69 73v34h985v-34l65 -69v-4c0 -3 -9 -12 -28 -28c0 3 -23 26 -69 69c0 -3 -23 -26 -69 -69l-25 28l63 66h-248c-6 -3 -59 -57 -160 -160v-1038l160 -163v-3c0 -3 -9 -12 -28 -28c-1 4 -45 48 -132 132v-126c0 -4 -2 -6 -6 -6h-31c-5 0 -7 2 -7 6v126l-134 -132
l-26 28l160 163v1044c0 3 -52 56 -156 157h-251l62 -66l-31 -28c0 3 -23 26 -69 69c0 -3 -23 -26 -69 -69zM684 1392h-242c1 -3 33 -35 97 -97c0 21 2 31 7 31h31c4 0 6 -11 6 -34c3 0 36 33 101 100z" />
    <glyph glyph-name="U" unicode="U" horiz-adv-x="1008"
d="M41 1416v-111l133 130c3 0 12 -10 29 -29l-162 -164v-805c0 -183 77 -305 231 -370c39 -16 82 -26 127 -26h10c117 0 215 53 294 159c43 59 64 135 64 228v811l-165 167c0 3 9 13 28 29c2 -4 48 -49 137 -136v117h41v-985c0 -207 -95 -347 -288 -415
c-38 -13 -77 -16 -115 -16h-9c-140 0 -258 67 -345 206c-37 60 -51 138 -51 228v982h41zM405 627l115 -222h-232v4c75 145 114 217 117 218zM355 447h98c-27 50 -43 81 -48 92c-3 -2 -20 -33 -50 -92zM402 339h3c70 -9 105 -44 105 -105v-3c0 -51 -30 -86 -89 -104h-16
c-71 9 -107 44 -107 107c0 49 26 83 79 102c8 2 16 3 25 3zM339 234v-3c7 -42 28 -63 63 -63h3c43 8 64 28 64 60v10c-7 40 -27 60 -60 60h-10c-33 0 -53 -21 -60 -64z" />
    <glyph glyph-name="V" unicode="V" horiz-adv-x="1369"
d="M245 1433l25 -29c0 -1 -53 -53 -159 -155c184 -468 278 -702 283 -702h89c5 0 34 55 89 165c6 11 10 16 13 16h3l92 -181h98l283 708c-67 63 -118 112 -152 149v4c0 3 8 11 25 25l143 -137h3c32 87 50 131 54 131h4l31 -13l-565 -1414h-35c-5 0 -50 118 -143 350
c-127 320 -271 673 -426 1064h3c17 9 29 13 35 13l54 -137c31 28 82 76 153 143zM581 642l-44 -92h95v3c-26 51 -43 81 -51 89zM759 502h-349l60 -159h223c5 2 27 55 66 159zM588 67l89 232h-188c61 -151 92 -228 92 -232h7z" />
    <glyph glyph-name="W" unicode="W" horiz-adv-x="1420"
d="M0 306v1127h35c4 -1 6 -3 6 -6v-1022c66 -69 183 -186 351 -351h3c67 22 119 63 156 124c21 47 32 85 32 115v656l-124 128c0 3 9 12 28 28l96 -92v70c1 4 3 6 6 6h45v-73l92 89c3 0 12 -9 29 -28l-121 -125v-627c0 -131 62 -221 185 -271c2 0 5 -1 9 -3l351 354v1028h35
c4 -1 6 -3 6 -6v-1102c0 -151 -72 -257 -220 -312c-28 -11 -55 -13 -79 -13h-29c-91 0 -170 42 -239 127c-27 41 -41 69 -41 83h-4c-11 -39 -39 -83 -82 -130c-41 -30 -64 -45 -67 -45c-44 -23 -89 -35 -134 -35h-26c-112 0 -203 61 -274 182c-17 45 -25 87 -25 124z
M213 889l29 25l70 -67l70 67c3 0 12 -9 29 -28c-3 0 -26 -24 -70 -71c3 0 26 -23 70 -70l-29 -25l-70 67l-70 -67c-3 0 -12 10 -29 29c3 0 27 23 70 70c-3 0 -26 23 -70 70zM835 914l70 -67l70 67c3 0 12 -9 28 -28l-66 -71l66 -70c0 -3 -8 -11 -25 -25h-3l-70 67
c0 -3 -22 -25 -67 -67h-3c-3 0 -11 8 -26 25v4l67 70c-3 0 -25 22 -67 67v3c0 3 9 11 26 25zM41 344v-38c0 -93 44 -169 131 -226c41 -26 85 -39 131 -39h41c-101 105 -202 206 -303 303zM876 41h48c85 0 160 44 220 137c25 40 35 91 35 150v16
c-105 -101 -206 -202 -303 -303z" />
    <glyph glyph-name="X" unicode="X" horiz-adv-x="1060"
d="M32 1433c8 -7 110 -181 306 -522c21 -29 50 -79 89 -152c12 16 145 241 399 674l34 -19c-269 -461 -404 -693 -404 -696v-3l404 -693l-31 -19h-7c-38 71 -65 118 -82 139l-145 -142c-3 0 -12 9 -29 28c101 98 152 150 152 155l-285 491h-3c-17 -24 -113 -188 -288 -491
c-2 0 -3 -3 -3 -9c3 0 53 -50 149 -149l-29 -25l-142 139c-55 -91 -83 -136 -85 -136l-32 19l405 696c-45 78 -180 309 -405 693c0 3 11 10 32 22zM361 1148c0 -3 23 -26 69 -69c0 3 23 26 70 69l28 -31c-3 0 -26 -23 -69 -70c3 0 26 -23 69 -70l-28 -25l-70 67l-69 -67
c-3 0 -12 10 -29 29l67 69l-67 70c0 3 10 12 29 28zM661 838h6c0 -3 38 -76 114 -218l-6 -3h-221c-5 0 -7 2 -7 6c4 0 42 72 114 215zM187 826h6c52 0 90 -29 101 -89l3 -16c0 -47 -26 -82 -79 -104l-31 -3c-46 0 -80 27 -102 82c0 12 -1 19 -3 22c12 72 47 108 105 108z
M127 728v-19c0 -28 21 -46 63 -54c44 7 66 29 66 66c-10 43 -29 64 -57 64h-12c-40 -7 -60 -26 -60 -57zM667 750h-6l-44 -92h95c0 4 -15 35 -45 92z" />
    <glyph glyph-name="Y" unicode="Y" horiz-adv-x="1349"
d="M29 1433l550 -548c175 178 357 359 545 544l25 -28v-3l-551 -554c3 -266 4 -467 4 -602v-57l162 -166c0 -3 -9 -11 -26 -24h-3l-133 129v-114h-42v118l-137 -133c-3 0 -12 9 -28 28c110 106 165 162 165 168c0 103 -1 322 -3 656c-177 175 -363 360 -557 557
c0 3 10 12 29 29zM471 1232v3h35c3 0 8 -13 16 -38c15 -19 32 -29 51 -29h9c35 0 56 22 61 67h41v-3c0 -51 -29 -86 -86 -105h-31c-41 0 -72 27 -93 80c-2 8 -3 16 -3 25zM471 1098v4h41v-10c10 -38 31 -57 64 -57h3c35 0 57 22 64 67h41c-9 -73 -45 -109 -108 -109
c-70 11 -105 46 -105 105z" />
    <glyph glyph-name="Z" unicode="Z" horiz-adv-x="1315"
d="M1108 1392h-1108v41h1115v-34c0 -5 -2 -7 -7 -7zM41 1183h-41v184h41v-184zM1021 1296c19 -15 28 -23 28 -25c-566 -673 -884 -1050 -955 -1131h-3c-19 15 -28 23 -29 25c636 753 956 1130 959 1131zM459 1227l31 28c0 -3 23 -26 69 -69c0 3 23 26 69 69l24 -28l-65 -69
l65 -68c0 -3 -9 -12 -28 -29l-68 66l-69 -66c-3 0 -12 10 -28 29c3 0 26 23 69 68c-3 0 -26 23 -69 69zM734 1099c18 -15 28 -22 31 -22v-3c-240 -286 -370 -439 -390 -459c0 1 -9 11 -28 28c1 0 130 152 387 456zM347 356l387 456h3l28 -22c-13 -19 -142 -172 -387 -459
c-4 0 -14 8 -31 25zM487 331l69 -66l68 66c3 0 12 -9 28 -28l-65 -69l65 -69c0 -3 -9 -12 -28 -28l-68 66l-69 -66c-3 0 -12 9 -28 28l65 69l-65 69c2 0 11 9 28 28zM1077 256h34v-187h-40v181c1 4 3 6 6 6zM1108 0h-1108v41h1115v-35c0 -4 -2 -6 -7 -6z" />
    <glyph glyph-name="bracketleft" unicode="[" horiz-adv-x="488"
d="M178 1396h-97v41h207v-41h-47c-36 -33 -102 -99 -197 -197v-967c32 -35 96 -98 191 -191h53v-41h-207v41h94c-1 4 -45 48 -131 131v-141c0 -4 -2 -6 -6 -6h-32c-4 0 -6 2 -6 6v1381c1 4 3 6 6 6h32c4 -1 6 -3 6 -6v-150c4 1 49 46 134 134z" />
    <glyph glyph-name="backslash" unicode="\" horiz-adv-x="1059"
d="M35 1433c529 -901 803 -1371 824 -1411h-4l-31 -19c-51 87 -77 133 -79 139h-3l-145 -142l-26 28l149 152v3c-442 753 -682 1164 -720 1231c1 0 13 6 35 19z" />
    <glyph glyph-name="bracketright" unicode="]" horiz-adv-x="488"
d="M50 1396h-50v41h207v-41h-97c0 -3 46 -49 137 -138v160h41v-1393h-41v150c-4 -1 -49 -46 -134 -134h94v-41h-207v41h53c34 31 99 96 194 194v964c-33 36 -98 102 -197 197z" />
    <glyph glyph-name="asciicircum" unicode="^" horiz-adv-x="1068"
d="M422 1600c0 -3 5 -8 14 -14l14 11c142 -140 281 -280 418 -419l-32 -28l-400 398l-405 -401c-3 0 -13 10 -31 31c144 147 285 287 422 422zM439 1492c44 -86 66 -131 66 -136h-132l-7 4c37 75 62 119 73 132z" />
    <glyph glyph-name="underscore" unicode="_" horiz-adv-x="1181"
d="M981 0h-981v34h981v-34z" />
    <glyph glyph-name="quoteleft" unicode="&#x2018;" horiz-adv-x="557"
 />
    <glyph glyph-name="a" unicode="a" horiz-adv-x="1281"
d="M528 1025h25c169 0 314 -74 435 -221c62 -94 93 -187 93 -279v-501h-42v285h-3c-53 -117 -141 -203 -265 -260c-71 -33 -144 -49 -218 -49h-25c-169 0 -314 74 -435 221c-62 94 -93 187 -93 279v25c0 160 78 297 233 412c99 59 198 88 295 88zM42 522v-19
c0 -111 39 -217 128 -309c103 -106 226 -155 361 -155h19c150 0 282 59 387 185c71 85 102 181 102 279v19c0 111 -39 217 -128 309c-103 106 -226 155 -361 155h-19c-117 0 -228 -37 -326 -122c-112 -97 -163 -215 -163 -342zM333 625v33h415v-33c0 -4 -2 -6 -6 -6h-403
c-4 0 -6 2 -6 6zM537 525h7c19 -38 57 -109 115 -213h-237c58 104 96 175 115 213zM544 440h-7l-44 -88h95v3c-17 29 -31 58 -44 85z" />
    <glyph glyph-name="b" unicode="b" horiz-adv-x="1156"
d="M0 498v946h37v-731h3c39 106 110 191 215 251c72 41 147 60 223 60c153 0 285 -68 387 -211c64 -91 91 -190 91 -293v-22c0 -117 -37 -231 -124 -332c-98 -114 -220 -166 -357 -166c-156 0 -289 72 -390 221c-60 87 -85 182 -85 277zM59 656l558 -593
c109 42 190 113 243 212c39 73 59 148 59 226v22c0 148 -60 277 -189 377c-78 60 -164 85 -252 85c-141 0 -263 -63 -356 -194c-42 -59 -60 -106 -63 -135zM410 970c64 -13 96 -47 96 -103c0 -47 -25 -81 -76 -100c-6 0 -13 -1 -20 -3c-64 13 -96 47 -96 103
c11 69 43 103 96 103zM351 867c7 -42 27 -63 59 -63c38 8 57 27 57 57v12c0 31 -19 50 -57 57c-39 -8 -59 -29 -59 -63zM48 613h-3c-5 -35 -8 -65 -8 -90v-43c272 -294 411 -441 416 -441h11c41 0 78 4 110 12c-176 191 -351 378 -526 562zM45 414c24 -105 67 -187 130 -245
c49 -55 119 -95 210 -118c-113 123 -227 244 -340 363z" />
    <glyph glyph-name="c" unicode="c" horiz-adv-x="934"
d="M503 1025h22c56 0 120 -13 191 -39c0 -1 -4 -14 -12 -37h-3c-53 18 -87 27 -101 27c-364 -365 -548 -550 -551 -554v-4c9 -61 41 -129 94 -203c103 -117 227 -176 373 -176c65 0 133 16 206 49c8 -13 12 -25 12 -36c-72 -35 -147 -52 -225 -52c-114 0 -224 34 -321 115
c-129 108 -188 240 -188 385v22c0 159 67 298 209 406c90 69 191 97 294 97zM39 534v-64c169 166 341 338 516 516h-64c-130 -128 -281 -279 -452 -452zM45 597c132 129 260 257 383 383c-112 -26 -197 -72 -255 -137c-59 -53 -101 -135 -128 -246zM600 115h-224l109 209h6
c0 -3 36 -73 109 -209zM485 243l-42 -88h91v3c-24 47 -40 75 -49 85z" />
    <glyph glyph-name="d" unicode="d" horiz-adv-x="1235"
d="M992 725h3v738h40v-961c0 -143 -59 -274 -187 -383c-96 -82 -210 -119 -331 -119c-185 0 -335 87 -450 260c-45 84 -67 169 -67 254v9c0 180 84 327 251 441c89 49 178 74 266 74c171 0 315 -73 426 -224c35 -48 49 -80 49 -89zM40 520v-3c0 -176 83 -316 248 -419
c77 -39 154 -58 229 -58c63 0 99 8 110 24l362 364c4 31 6 53 6 68v37c0 149 -65 279 -205 379c-84 61 -178 86 -273 86c-157 0 -292 -66 -395 -208c-59 -82 -82 -175 -82 -270zM615 961h34c59 -15 89 -47 89 -98v-15c0 -37 -24 -66 -71 -86c-11 -5 -22 -6 -33 -6
c-45 0 -78 27 -98 80c-2 11 -3 20 -3 27c0 45 27 78 82 98zM355 937c58 0 93 -34 104 -101v-3c0 -49 -30 -83 -89 -101h-15c-48 0 -82 26 -101 79c0 12 -1 19 -3 22c12 69 47 104 104 104zM572 860c7 -43 29 -64 65 -64c41 7 61 27 61 58v15c-11 35 -28 52 -52 52h-16
c-31 0 -51 -20 -58 -61zM294 845v-22c0 -27 19 -44 58 -52h6c34 0 54 22 61 65c-9 41 -29 61 -61 61h-6c-39 -8 -58 -25 -58 -52zM162 707h16c47 0 81 -27 101 -80v-33c0 -39 -26 -69 -77 -89c-8 -2 -16 -3 -24 -3h-4c-57 0 -90 35 -101 104c0 50 30 84 89 101zM113 603
c8 -41 28 -61 61 -61h7c39 7 58 26 58 58v9c-7 39 -27 58 -58 58h-7c-34 0 -54 -21 -61 -64zM226 441c70 -12 105 -47 105 -104c0 -48 -27 -82 -80 -101c-6 0 -13 -1 -21 -3c-70 11 -105 45 -105 101v12c15 61 45 92 92 92c4 2 7 3 9 3zM165 340v-6c8 -41 28 -62 61 -62
c38 0 60 23 65 68c-7 39 -27 58 -58 58c0 2 -1 3 -3 3c-43 -7 -65 -28 -65 -61zM946 303l18 43h-3l-269 -273h3c109 45 193 122 251 230z" />
    <glyph glyph-name="e" unicode="e" horiz-adv-x="1225"
d="M509 1025h7c179 0 328 -79 436 -246c54 -83 73 -170 73 -251v-37h-879v40h840v3c0 107 -41 212 -131 306c-96 100 -211 146 -336 146h-6c-159 0 -293 -67 -392 -207c-58 -81 -82 -169 -82 -260v-10c0 -153 64 -283 198 -382c83 -62 170 -88 254 -88h37
c143 0 267 66 373 198l27 -25c-35 -51 -81 -98 -143 -136c-86 -53 -172 -76 -254 -76h-43c-117 0 -231 51 -342 152c-97 107 -146 225 -146 354v10c0 119 37 229 118 324c107 125 240 185 391 185zM321 843c0 -3 22 -25 67 -67c0 3 22 25 67 67l24 -27v-3l-64 -67
c3 0 25 -21 64 -64v-3c0 -3 -8 -11 -24 -24l-67 64l-67 -64c-2 0 -11 9 -27 27l64 67l-64 67c0 3 9 12 27 27zM546 816l30 27c0 -3 22 -25 67 -67c0 3 22 25 67 67l24 -27l-64 -67l64 -67c0 -3 -9 -12 -27 -27l-67 64l-67 -64c-3 0 -12 9 -27 27c3 0 25 22 67 67
c-3 0 -26 22 -67 67z" />
    <glyph glyph-name="f" unicode="f" horiz-adv-x="855"
d="M313 1434h29c115 0 209 -60 281 -180c21 -49 32 -93 32 -133v-16h-35c-5 0 -7 2 -7 7v6c0 94 -46 173 -139 236h-3c-182 -180 -325 -323 -429 -430v-925c0 -4 -2 -6 -7 -6h-35v1122c0 121 60 216 181 287c47 21 91 32 132 32zM42 1128v-142c132 129 261 258 387 387v3
c-35 11 -62 16 -81 16h-41c-87 -83 -175 -171 -265 -264zM58 1205h3l168 171h-3c-71 -31 -122 -76 -152 -135c-9 -17 -14 -29 -16 -36zM313 728l-226 -116v235h3c134 -71 208 -110 223 -116v-3zM129 779v-100c63 32 94 49 94 52c-5 1 -37 17 -94 48z" />
    <glyph glyph-name="g" unicode="g" horiz-adv-x="1236"
d="M519 1025c165 0 306 -68 416 -209c70 -89 101 -194 101 -311v-363c0 -174 -71 -318 -220 -425c-91 -65 -193 -94 -300 -94c-161 0 -299 70 -415 209c-21 32 -37 58 -46 78c19 10 31 15 37 15c54 -107 139 -187 259 -232c61 -23 118 -31 168 -31c151 0 281 62 382 191
c66 85 95 180 95 283v175h-3c-49 -115 -131 -203 -250 -260c-74 -35 -150 -51 -227 -51c-174 0 -320 80 -437 239c-53 94 -79 185 -79 272c0 162 67 302 208 411c93 72 199 103 311 103zM70 671l611 -601c111 39 195 110 254 211c41 72 61 151 61 236
c0 148 -62 275 -192 375c-85 65 -183 94 -288 94c-162 0 -296 -74 -403 -221c-29 -53 -43 -84 -43 -94zM721 565l208 109h6v-220h-6c-139 72 -208 109 -208 111zM55 632c-8 -41 -12 -73 -12 -94c147 -147 314 -313 501 -496h3c24 0 55 4 92 12c-219 219 -413 412 -584 578z
M804 565v-3c19 -8 49 -23 88 -45h3v94h-3c-39 -23 -69 -38 -88 -46zM43 481v-3c0 -91 42 -187 125 -288c105 -99 211 -148 318 -148c-170 171 -318 318 -443 439z" />
    <glyph glyph-name="h" unicode="h" horiz-adv-x="1133"
d="M41 0h-41v1467h41v-748h3c48 121 127 212 239 267c62 31 124 44 185 44c139 0 260 -63 358 -194c73 -97 107 -214 107 -343v-493h-41v493c0 183 -69 329 -213 431c-68 48 -141 66 -214 66c-133 0 -248 -65 -339 -198c-59 -86 -85 -190 -85 -308v-484zM396 1313h3l69 -66
c0 3 22 25 66 66h3c3 0 11 -8 25 -25v-3l-66 -69c3 0 25 -22 66 -66v-3c0 -3 -8 -11 -25 -26h-3l-69 66c0 -3 -22 -25 -66 -66h-3c-3 0 -11 9 -25 26v3l66 69c-3 0 -25 22 -66 66v3c0 3 8 11 25 25zM402 1055v35h129v-35c0 -4 -2 -6 -6 -6h-117c-4 0 -6 2 -6 6zM531 927
h-129v41h129v-41zM399 898c0 -3 23 -26 69 -69c0 3 23 26 69 69l25 -28l-66 -69l66 -69c0 -3 -9 -12 -28 -28c0 3 -22 25 -66 66h-3l-69 -66l-25 28l66 69l-66 69c0 3 9 12 28 28z" />
    <glyph glyph-name="i" unicode="i" horiz-adv-x="430"
d="M117 1025c52 -11 78 -36 78 -76c2 0 3 -2 3 -7c0 -39 -22 -66 -66 -81h-27c-33 0 -56 22 -71 66l-2 15c0 36 19 62 58 78c9 3 18 5 27 5zM64 942c7 -33 22 -49 46 -49h10c25 0 40 16 46 49c-6 34 -23 51 -51 51c-34 -7 -51 -24 -51 -51zM132 80h-32v735h27
c3 -1 5 -2 5 -5v-730zM230 4h-230v32h230v-32z" />
    <glyph glyph-name="j" unicode="j" horiz-adv-x="834"
d="M529 1025h14c61 -9 91 -40 91 -91v-11c0 -37 -25 -65 -75 -83h-19c-44 0 -74 24 -89 72c-2 7 -3 14 -3 22c0 45 27 75 81 91zM484 925c10 -33 28 -49 53 -49h8c35 5 53 23 53 52v8c0 29 -18 46 -55 53h-3c-33 0 -52 -21 -56 -64zM230 -377l299 301v896h30c4 -1 6 -2 6 -5
v-918c0 -150 -62 -252 -189 -299c-36 -13 -69 -17 -96 -17c-102 0 -185 51 -250 152c-20 45 -30 87 -30 128v2h36c0 -99 49 -174 147 -224c7 -3 22 -9 47 -16zM277 -380v-3c97 0 174 44 224 136c21 38 28 77 28 116h-3c-97 -94 -180 -177 -249 -249z" />
    <glyph glyph-name="k" unicode="k" horiz-adv-x="865"
d="M0 12v1383h44v-864c9 8 174 172 496 493c3 0 12 -9 28 -28l-434 -437c174 -171 351 -348 531 -531l-31 -28c-171 174 -348 351 -531 531l-59 -63v-456c0 -4 -2 -6 -7 -6h-31c-4 0 -6 2 -6 6zM131 1242l31 -28h3l32 28c3 0 12 -9 28 -28c-3 0 -13 -10 -32 -31l32 -35
l-28 -25l-35 32c0 -3 -10 -13 -31 -32l-25 29l28 31l-28 31v3c0 3 8 11 25 25z" />
    <glyph glyph-name="l" unicode="l" horiz-adv-x="382"
d="M0 306h68v1134h42v-1134h72v-182h-72v-129h-35c-5 0 -7 2 -7 5v124h-68v182zM68 166v98h-26v-98h26zM140 166v98h-30v-98h30z" />
    <glyph glyph-name="m" unicode="m" horiz-adv-x="1082"
d="M232 1025c88 0 156 -44 204 -133c2 -4 3 -7 3 -9h3c15 44 47 82 96 111c37 22 76 31 118 31c89 0 158 -46 207 -139c13 -32 19 -66 19 -102v-785h-41v782c0 93 -41 156 -123 191c-14 6 -36 12 -65 13c-87 1 -148 -46 -183 -139c-4 -17 -6 -34 -6 -53v-794h-46v791
c0 93 -47 156 -140 189c-23 4 -41 6 -52 6c-82 0 -142 -46 -180 -139c-4 -21 -6 -41 -6 -62v-785h-40v788c0 113 56 189 167 229c23 6 44 9 65 9zM232 923c57 0 97 -33 118 -99v-25c0 -57 -32 -95 -96 -114c-8 -2 -17 -3 -28 -3c-45 0 -80 24 -105 71c-9 17 -13 33 -13 49
c0 56 31 95 93 118c11 2 21 3 31 3zM634 923h19c58 0 98 -31 120 -93l3 -28c0 -55 -31 -94 -92 -117c-15 -2 -26 -3 -34 -3c-55 0 -94 34 -115 102v24c0 55 33 93 99 115zM189 873c0 -3 13 -16 40 -40c3 0 16 13 40 40c-14 7 -25 10 -34 10h-3c-13 0 -27 -3 -43 -10z
M616 870l40 -37c3 0 16 13 40 40c-16 7 -30 10 -43 10h-3c-23 -3 -34 -8 -34 -13zM170 852l9 12h-3l-9 -12h3zM291 855v3l-10 6v-3zM597 855l6 9h-3l-6 -9h3zM718 852v3l-13 9v-3zM201 805l-40 37h-3c-7 -21 -10 -35 -10 -40c0 -6 3 -18 10 -37h3c3 0 16 13 40 40zM297 842
l-37 -40c0 -3 13 -16 40 -40c6 16 9 27 9 34v12c-3 23 -7 34 -12 34zM585 842c-7 -13 -10 -25 -10 -34v-12c0 -7 3 -18 10 -34c3 0 16 13 40 40c0 3 -13 17 -40 40zM684 802l40 -37h3c6 19 9 31 9 37c0 5 -3 19 -9 40h-3c-3 0 -17 -13 -40 -40zM229 774l-40 -43
c19 -6 33 -9 43 -9c8 0 20 3 37 9v3c0 3 -13 17 -40 40zM653 774l-37 -40v-3c16 -6 29 -9 40 -9c7 0 20 3 40 9c0 3 -14 18 -43 43zM179 740v4l-12 9v-3zM708 740l10 13h-3l-10 -13h3z" />
    <glyph glyph-name="n" unicode="n" horiz-adv-x="1128"
d="M466 1025c155 0 287 -78 387 -241c53 -86 75 -192 75 -312v-472h-40v478c0 217 -89 374 -266 472c-60 23 -113 34 -159 34c-113 0 -217 -48 -304 -150c-81 -95 -118 -211 -118 -343v-491h-41v1003h41v-287h3c14 46 45 102 100 162c93 100 202 147 322 147zM241 797h9
c57 0 90 -34 100 -103c0 -55 -31 -90 -94 -106h-12c-52 0 -86 31 -103 93v13c9 69 43 103 100 103zM575 756l31 28c0 -3 23 -25 69 -68c0 3 23 25 69 68l25 -28l-66 -68l66 -69c0 -3 -9 -12 -28 -28l-69 65l-69 -65c-3 0 -12 9 -28 28c3 0 26 23 69 69c-3 0 -26 23 -69 68z
M181 697v-6c0 -35 22 -56 66 -63c41 9 62 30 62 63v6c-8 39 -26 59 -53 59h-22c-27 0 -45 -20 -53 -59z" />
    <glyph glyph-name="o" unicode="o" horiz-adv-x="1228"
d="M509 1025h10c179 0 328 -80 436 -249c54 -84 73 -175 73 -263c0 -163 -65 -304 -206 -413c-93 -72 -193 -100 -291 -100h-34c-144 0 -276 61 -385 191c-79 95 -112 206 -112 325c0 171 79 315 237 430c89 53 180 79 272 79zM39 509c0 -159 74 -293 222 -400
c83 -47 163 -70 239 -70h28c149 0 276 70 382 210c53 87 79 176 79 267c0 148 -63 279 -198 382c-84 64 -179 88 -275 88h-3c-156 0 -286 -66 -386 -201c-60 -82 -88 -175 -88 -276zM449 607c0 -3 22 -26 67 -67c0 3 22 25 66 67l25 -28l-64 -66l64 -67c0 -3 -9 -12 -28 -28
c0 3 -21 25 -63 64h-3l-67 -64l-24 28l63 67l-63 66c0 3 9 12 27 28z" />
    <glyph glyph-name="p" unicode="p" horiz-adv-x="783"
d="M223 983h-142v40h136c121 0 223 -50 298 -152c47 -64 68 -133 68 -204v-16c0 -125 -59 -230 -180 -307c-56 -35 -119 -50 -186 -50v41h6c97 0 183 39 252 124c48 59 68 126 68 195v9c0 125 -63 223 -189 292c-46 19 -90 28 -131 28zM0 -375v1380h40v-832
c25 21 50 31 75 31h12c42 0 73 -28 93 -83c0 -9 1 -16 3 -19c-11 -71 -46 -105 -105 -105c-29 0 -55 11 -78 34v-406c0 -4 -2 -6 -6 -6h-28c-4 0 -6 2 -6 6zM53 99c0 -35 23 -56 68 -62c39 9 59 26 59 53v21c0 27 -20 45 -59 53h-6c-35 0 -55 -22 -62 -65z" />
    <glyph glyph-name="q" unicode="q" horiz-adv-x="1219"
d="M514 1021c166 0 307 -71 415 -219c63 -87 90 -181 90 -277v-888h-39v675h-3c-42 -106 -117 -190 -229 -250c-76 -41 -156 -60 -237 -60c-175 0 -320 80 -433 241c-50 87 -75 173 -75 258v27c0 5 -1 9 -3 12c8 62 22 119 42 171c21 55 60 117 126 178
c100 91 218 132 346 132zM42 549l508 -505c78 0 165 35 261 106c113 101 169 218 169 351v30c0 127 -58 243 -175 349c-91 68 -190 102 -297 102c-157 0 -289 -72 -394 -216c-40 -67 -64 -140 -72 -217zM42 495v-6c0 -99 42 -199 126 -300c103 -97 208 -145 316 -145h3l6 -3
v3c-175 178 -325 328 -451 451zM652 183h-3l-66 225c131 -42 206 -65 225 -69c-3 -6 -55 -58 -156 -156zM640 348c18 -62 29 -93 33 -93l63 66c-5 0 -37 9 -96 27z" />
    <glyph glyph-name="r" unicode="r" horiz-adv-x="667"
d="M467 1025v-41c-109 0 -210 -43 -294 -138c-89 -100 -129 -211 -129 -323v-526h-44v1006h44v-285h3c45 118 125 210 242 266c62 30 122 41 178 41zM110 504h-10v41h4c59 0 93 -36 103 -107c0 -46 -27 -79 -82 -100c-8 -2 -16 -3 -25 -3v41c44 6 66 28 66 65
c-10 42 -29 63 -56 63z" />
    <glyph glyph-name="s" unicode="s" horiz-adv-x="731"
d="M267 1025h3c84 0 154 -33 209 -100c0 -3 -9 -11 -27 -24c-53 57 -113 85 -182 85c-104 0 -178 -55 -221 -164c-7 -25 -10 -48 -10 -67c0 -66 25 -124 76 -173v-3c-14 -15 -21 -24 -21 -27c-30 25 -53 52 -67 82c-19 41 -27 81 -27 121c0 112 56 196 167 249
c31 15 65 21 100 21zM273 619c43 0 74 -24 94 -73c4 -11 6 -22 6 -33c0 -45 -27 -78 -82 -98h-33c-39 0 -68 26 -88 79v34c0 40 26 69 79 88c11 2 19 3 24 3zM209 522v-13c7 -36 26 -54 55 -54h12c31 0 51 20 58 61c-8 42 -29 63 -64 63c-41 -7 -61 -26 -61 -57zM440 473
c61 -54 91 -121 91 -200v-6c0 -107 -56 -189 -167 -246c-26 -10 -60 -17 -103 -21c-85 0 -158 37 -219 112c1 0 12 7 31 21c55 -61 112 -91 173 -91h30c66 0 126 33 176 101c27 37 39 80 39 127v3c0 65 -25 122 -76 173c5 9 13 18 25 27z" />
    <glyph glyph-name="t" unicode="t" horiz-adv-x="1181"
d="M73 1030h261v470h41v-470h260c5 -1 7 -3 7 -6v-35l60 -64c0 -3 -10 -12 -29 -28c0 3 -23 26 -70 69c0 -3 -23 -26 -69 -69l-26 28l61 64h-194v-667c0 -113 58 -199 174 -258c35 -13 68 -19 99 -19h19c85 0 160 38 219 118c38 51 54 107 54 165h35l6 -3
c0 -115 -56 -210 -168 -283c-52 -25 -100 -38 -143 -38h-25c-108 0 -198 54 -270 162c-27 52 -41 105 -41 159v664h-197l60 -64c0 -3 -10 -12 -29 -28l-70 66l-69 -66c-3 0 -13 9 -29 28l67 70v29c1 4 3 6 6 6z" />
    <glyph glyph-name="u" unicode="u" horiz-adv-x="791"
d="M0 305v717h40v-720c0 -124 62 -209 185 -253c19 -7 38 -9 55 -9h31c79 0 147 42 206 126c23 40 34 90 34 151v705h40v-708c0 -152 -72 -254 -215 -305c-27 -6 -51 -9 -74 -9h-19c-71 0 -139 28 -200 89c-57 57 -83 130 -83 216zM289 329h7c10 -23 47 -94 110 -212l-6 -3
h-215l-6 3c73 138 110 209 110 212zM339 157l-43 86h-7c-29 -55 -43 -85 -43 -89h93v3z" />
    <glyph glyph-name="v" unicode="v" horiz-adv-x="1047"
d="M38 1022c4 -8 87 -216 250 -625h62c0 1 23 47 69 137h3c4 -1 26 -42 66 -121c6 -11 10 -16 12 -16h53c5 0 90 209 253 628h3c4 0 17 -4 38 -12c-181 -454 -317 -792 -406 -1013h-38c-269 671 -403 1009 -403 1013c11 6 24 9 38 9zM397 400h53c-17 28 -25 45 -25 50
c-4 0 -13 -17 -28 -50zM541 356h-235c73 -189 113 -286 119 -290c2 9 41 106 116 290z" />
    <glyph glyph-name="w" unicode="w" horiz-adv-x="1076"
d="M0 216v809h35c4 -1 6 -3 6 -6v-803c0 -54 27 -103 83 -143c31 -22 67 -32 104 -32c87 0 147 48 181 143c5 23 7 50 7 79v518h44v-518c0 -105 38 -177 118 -209c26 -11 52 -13 76 -13c73 0 130 39 168 118c10 21 13 40 13 57v803c1 4 3 6 6 6h35v-809
c0 -78 -41 -143 -124 -191c-31 -18 -66 -25 -105 -25c-93 0 -161 45 -206 136h-6c-44 -91 -114 -136 -210 -136c-99 0 -173 52 -215 159c-9 21 -10 41 -10 57zM159 635l69 -67l70 67c3 0 11 -9 26 -26v-3l-67 -70c3 0 25 -22 67 -66v-4c0 -3 -10 -12 -29 -28
c0 3 -23 26 -70 70c0 -3 -23 -27 -70 -70l-25 28l67 70l-67 70c0 3 10 12 29 29zM578 628l69 -66l70 66c3 0 12 -9 29 -28l-67 -70l67 -70c0 -3 -10 -12 -29 -28c0 3 -23 26 -70 69c0 -3 -23 -26 -69 -69l-26 28v3l67 70c-3 0 -25 22 -67 67v3c0 3 9 11 26 25z" />
    <glyph glyph-name="x" unicode="x" horiz-adv-x="821"
d="M36 1025c165 -279 256 -435 273 -468c12 14 101 166 267 455l13 13c0 -5 11 -11 32 -20v-3l-286 -487c181 -310 277 -474 286 -491c-3 0 -15 -7 -36 -20c-179 305 -270 461 -273 468h-3c0 -4 -91 -160 -273 -468c-21 13 -33 20 -36 20l286 491
c-181 309 -277 472 -286 490c5 0 17 7 36 20zM478 612c45 -83 76 -142 91 -176h-185v4c60 114 91 171 94 172zM140 599c56 -11 84 -39 84 -84c0 -38 -24 -65 -71 -82h-13c-45 0 -72 28 -81 85c11 54 38 81 81 81zM101 515c0 -22 14 -35 42 -40c24 5 36 17 36 36v10
c0 16 -12 28 -36 36c-28 -5 -42 -19 -42 -42zM475 524c0 -5 -8 -20 -23 -45h49c-14 30 -23 45 -26 45z" />
    <glyph glyph-name="y" unicode="y" horiz-adv-x="1032"
d="M37 1025c0 -3 126 -318 378 -946h3c0 6 126 321 377 946h3c20 -7 31 -12 34 -15c-264 -656 -396 -987 -396 -992v-389c0 -4 -2 -6 -6 -6h-34v386c-2 14 -67 181 -196 500c-131 323 -198 491 -200 504h3c17 8 28 12 34 12zM313 657v24h34c3 0 7 -11 12 -34
c14 -20 35 -30 62 -30c31 0 51 21 58 64h40v-3c0 -51 -31 -85 -92 -101h-12c-48 0 -82 27 -102 80zM313 534v18h40v-6c0 -31 22 -51 65 -58c28 0 48 18 61 55v9h40c0 -47 -27 -81 -80 -101c-5 0 -13 -1 -24 -3c-50 0 -84 29 -102 86z" />
    <glyph glyph-name="z" unicode="z" horiz-adv-x="988"
d="M788 986h-788v39h788v-39zM719 925c3 0 13 -8 30 -24l-679 -801c-18 14 -27 22 -28 24c93 113 318 380 677 801zM519 785c17 -12 26 -20 27 -24c-178 -212 -270 -320 -276 -324c0 1 -9 10 -27 27c181 213 273 320 276 321zM243 261l276 324l27 -27
c-181 -214 -272 -321 -273 -321h-3c-18 14 -27 22 -27 24zM788 0h-788v39h788v-39z" />
    <glyph glyph-name="braceleft" unicode="{" horiz-adv-x="766"
d="M566 1433v-41h-4c-127 0 -226 -63 -298 -188c-21 -47 -32 -92 -32 -136v-26c0 -83 37 -162 111 -238l-28 -29c-83 84 -124 172 -124 264v32c0 121 59 223 178 308c63 36 129 54 197 54zM222 826v-232h-3c-144 74 -217 113 -219 118c141 75 215 113 222 114zM86 712v-3
c3 0 35 -16 95 -48v98h-3c-41 -23 -72 -39 -92 -47zM305 655h3c0 -5 7 -14 22 -29c-74 -73 -111 -155 -111 -245v-19c0 -109 54 -201 162 -276c56 -30 108 -45 156 -45h16v-41h-19c-104 0 -200 47 -280 146c-54 67 -76 141 -76 216v22c0 103 42 193 127 271z" />
    <glyph glyph-name="bar" unicode="|" horiz-adv-x="575"
d="M0 29l167 170v1234h41v-1234l167 -170l-32 -29c-1 4 -46 49 -135 135v-135h-41v138l-141 -138z" />
    <glyph glyph-name="braceright" unicode="}" horiz-adv-x="766"
d="M0 1392v41h3c148 0 262 -74 343 -222c21 -57 32 -109 32 -156c0 -107 -43 -201 -130 -280c0 3 -9 14 -26 32c77 71 115 154 115 248c0 133 -66 236 -197 308c-49 19 -96 29 -140 29zM346 594v232h4c137 -71 209 -110 216 -117c-144 -77 -217 -115 -220 -115zM388 759v-98
c57 32 87 48 92 48v3c-5 1 -36 17 -92 47zM264 655c85 -80 127 -174 127 -283c0 -133 -65 -242 -194 -328c-61 -29 -117 -44 -168 -44h-16v35c1 4 3 6 6 6h10c111 0 204 57 279 172c28 58 42 112 42 162c0 93 -38 176 -115 251c17 19 26 29 29 29z" />
    <glyph glyph-name="asciitilde" unicode="~"
 />
    <glyph glyph-name="exclamdown" unicode="&#xa1;" horiz-adv-x="672"
 />
    <glyph glyph-name="cent" unicode="&#xa2;" horiz-adv-x="1139"
 />
    <glyph glyph-name="sterling" unicode="&#xa3;"
 />
    <glyph glyph-name="fraction" unicode="&#x2044;" horiz-adv-x="342"
 />
    <glyph glyph-name="yen" unicode="&#xa5;" horiz-adv-x="1262"
 />
    <glyph glyph-name="section" unicode="&#xa7;"
 />
    <glyph glyph-name="currency" unicode="&#xa4;"
 />
    <glyph glyph-name="quotesingle" unicode="'" horiz-adv-x="649"
d="M163 1597h2l15 -206c1 0 2 -1 2 -2h-2l-80 32v-2c-22 -53 -37 -87 -45 -102c-14 5 -21 9 -21 11c29 65 44 100 44 104l-78 33c19 18 74 62 163 132zM47 1472c27 -13 63 -28 106 -45v2c-6 68 -9 108 -9 121c-29 -21 -62 -47 -97 -78z" />
    <glyph glyph-name="quotedblleft" unicode="&#x201c;" horiz-adv-x="557"
d="M163 1596h2l17 -209l-81 32c0 -3 -15 -38 -44 -104l-23 10l46 106l-80 32c1 3 56 47 163 133zM302 1579c14 -6 21 -10 21 -11c-29 -66 -44 -101 -44 -105l78 -32c-8 -9 -62 -54 -163 -133h-2v2c0 127 -15 196 -15 205c-1 0 -2 1 -2 2h3c49 -21 75 -32 78 -32
c18 45 33 79 46 104zM144 1549l-95 -76h-2c1 -3 37 -19 107 -48v2zM203 1469v-2c5 -55 9 -95 10 -122h1c63 51 95 77 95 78c-7 4 -43 19 -106 46z" />
    <glyph glyph-name="guillemotleft" unicode="&#xab;" horiz-adv-x="557"
d="M163 1716h2l17 -209l-81 32c0 -3 -15 -38 -44 -104l-23 10l46 106l-80 32c1 3 56 47 163 133zM302 1699c14 -6 21 -10 21 -11c-29 -66 -44 -101 -44 -105l78 -32c-8 -9 -62 -54 -163 -133h-2v2c0 127 -15 196 -15 205c-1 0 -2 1 -2 2h3c49 -21 75 -32 78 -32
c18 45 33 79 46 104zM144 1669l-95 -76h-2c1 -3 37 -19 107 -48v2zM203 1589v-2c5 -55 9 -95 10 -122h1c63 51 95 77 95 78c-7 4 -43 19 -106 46z" />
    <glyph glyph-name="guilsinglleft" unicode="&#x2039;" horiz-adv-x="631"
 />
    <glyph glyph-name="guilsinglright" unicode="&#x203a;" horiz-adv-x="631"
 />
    <glyph glyph-name="fi" unicode="&#xfb01;" horiz-adv-x="1073"
 />
    <glyph glyph-name="fl" unicode="&#xfb02;" horiz-adv-x="1081"
 />
    <glyph glyph-name="endash" unicode="&#x2013;" horiz-adv-x="1108"
 />
    <glyph glyph-name="dagger" unicode="&#x2020;"
 />
    <glyph glyph-name="daggerdbl" unicode="&#x2021;"
 />
    <glyph glyph-name="paragraph" unicode="&#xb6;" horiz-adv-x="1024"
 />
    <glyph glyph-name="bullet" unicode="&#x2022;" horiz-adv-x="1024"
 />
    <glyph glyph-name="quotesinglbase" unicode="&#x201a;" horiz-adv-x="557"
 />
    <glyph glyph-name="quotedblbase" unicode="&#x201e;" horiz-adv-x="910"
 />
    <glyph glyph-name="quotedblright" unicode="&#x201d;" horiz-adv-x="557"
d="M163 1596h2l17 -209l-81 32c0 -3 -15 -38 -44 -104l-23 10l46 106l-80 32c1 3 56 47 163 133zM302 1579c14 -6 21 -10 21 -11c-29 -66 -44 -101 -44 -105l78 -32c-8 -9 -62 -54 -163 -133h-2v2c0 127 -15 196 -15 205c-1 0 -2 1 -2 2h3c49 -21 75 -32 78 -32
c18 45 33 79 46 104zM144 1549l-95 -76h-2c1 -3 37 -19 107 -48v2zM203 1469v-2c5 -55 9 -95 10 -122h1c63 51 95 77 95 78c-7 4 -43 19 -106 46z" />
    <glyph glyph-name="guillemotright" unicode="&#xbb;" horiz-adv-x="557"
d="M163 1596h2l17 -209l-81 32c0 -3 -15 -38 -44 -104l-23 10l46 106l-80 32c1 3 56 47 163 133zM302 1579c14 -6 21 -10 21 -11c-29 -66 -44 -101 -44 -105l78 -32c-8 -9 -62 -54 -163 -133h-2v2c0 127 -15 196 -15 205c-1 0 -2 1 -2 2h3c49 -21 75 -32 78 -32
c18 45 33 79 46 104zM144 1549l-95 -76h-2c1 -3 37 -19 107 -48v2zM203 1469v-2c5 -55 9 -95 10 -122h1c63 51 95 77 95 78c-7 4 -43 19 -106 46z" />
    <glyph glyph-name="ellipsis" unicode="&#x2026;" horiz-adv-x="2048"
 />
    <glyph glyph-name="questiondown" unicode="&#xbf;" horiz-adv-x="748"
 />
    <glyph glyph-name="grave" unicode="`" horiz-adv-x="649"
d="M163 1597h2l15 -206c1 0 2 -1 2 -2h-2l-80 32v-2c-22 -53 -37 -87 -45 -102c-14 5 -21 9 -21 11c29 65 44 100 44 104l-78 33c19 18 74 62 163 132zM47 1472c27 -13 63 -28 106 -45v2c-6 68 -9 108 -9 121c-29 -21 -62 -47 -97 -78z" />
    <glyph glyph-name="acute" unicode="&#xb4;" horiz-adv-x="649"
d="M163 1597h2l15 -206c1 0 2 -1 2 -2h-2l-80 32v-2c-22 -53 -37 -87 -45 -102c-14 5 -21 9 -21 11c29 65 44 100 44 104l-78 33c19 18 74 62 163 132zM47 1472c27 -13 63 -28 106 -45v2c-6 68 -9 108 -9 121c-29 -21 -62 -47 -97 -78z" />
    <glyph glyph-name="circumflex" unicode="&#x2c6;" horiz-adv-x="1024"
 />
    <glyph glyph-name="tilde" unicode="&#x2dc;" horiz-adv-x="1024"
 />
    <glyph glyph-name="breve" unicode="&#x2d8;" horiz-adv-x="1024"
 />
    <glyph glyph-name="dotaccent" unicode="&#x2d9;" horiz-adv-x="1024"
 />
    <glyph glyph-name="dieresis" unicode="&#xa8;" horiz-adv-x="1024"
 />
    <glyph glyph-name="ring" unicode="&#x2da;" horiz-adv-x="1024"
 />
    <glyph glyph-name="cedilla" unicode="&#xb8;" horiz-adv-x="1024"
 />
    <glyph glyph-name="hungarumlaut" unicode="&#x2dd;" horiz-adv-x="1024"
 />
    <glyph glyph-name="ogonek" unicode="&#x2db;" horiz-adv-x="1024"
 />
    <glyph glyph-name="caron" unicode="&#x2c7;" horiz-adv-x="1024"
 />
    <glyph glyph-name="emdash" unicode="&#x2014;" horiz-adv-x="2048"
 />
    <glyph glyph-name="AE" unicode="&#xc6;" horiz-adv-x="2118"
 />
    <glyph glyph-name="ordfeminine" unicode="&#xaa;" horiz-adv-x="648"
 />
    <glyph glyph-name="Oslash" unicode="&#xd8;" horiz-adv-x="1614"
 />
    <glyph glyph-name="ordmasculine" unicode="&#xba;" horiz-adv-x="718"
 />
    <glyph glyph-name="ae" unicode="&#xe6;" horiz-adv-x="1454"
 />
    <glyph glyph-name="dotlessi" unicode="&#x131;" horiz-adv-x="514"
 />
    <glyph glyph-name="oslash" unicode="&#xf8;" horiz-adv-x="1010"
 />
    <glyph glyph-name="germandbls" unicode="&#xdf;" horiz-adv-x="1251"
 />
    <glyph glyph-name="logicalnot" unicode="&#xac;"
 />
    <glyph glyph-name="mu" unicode="&#xb5;" horiz-adv-x="1180"
 />
    <glyph glyph-name="trademark" unicode="&#x2122;" horiz-adv-x="1497"
 />
    <glyph glyph-name="Eth" unicode="&#xd0;" horiz-adv-x="1518"
 />
    <glyph glyph-name="onehalf" unicode="&#xbd;" horiz-adv-x="1964"
 />
    <glyph glyph-name="plusminus" unicode="&#xb1;"
 />
    <glyph glyph-name="Thorn" unicode="&#xde;" horiz-adv-x="1120"
 />
    <glyph glyph-name="onequarter" unicode="&#xbc;" horiz-adv-x="1708"
 />
    <glyph glyph-name="divide" unicode="&#xf7;"
 />
    <glyph glyph-name="brokenbar" unicode="&#xa6;"
 />
    <glyph glyph-name="degree" unicode="&#xb0;" horiz-adv-x="674"
 />
    <glyph glyph-name="thorn" unicode="&#xfe;" horiz-adv-x="1010"
 />
    <glyph glyph-name="threequarters" unicode="&#xbe;" horiz-adv-x="1708"
 />
    <glyph glyph-name="registered" unicode="&#xae;" horiz-adv-x="1674"
 />
    <glyph glyph-name="minus" unicode="&#x2212;"
 />
    <glyph glyph-name="eth" unicode="&#xf0;" horiz-adv-x="1139"
 />
    <glyph glyph-name="multiply" unicode="&#xd7;"
 />
    <glyph glyph-name="copyright" unicode="&#xa9;" horiz-adv-x="1674"
 />
    <glyph glyph-name="Aacute" unicode="&#xc1;" horiz-adv-x="1540"
 />
    <glyph glyph-name="Acircumflex" unicode="&#xc2;" horiz-adv-x="1540"
 />
    <glyph glyph-name="Adieresis" unicode="&#xc4;" horiz-adv-x="1540"
 />
    <glyph glyph-name="Agrave" unicode="&#xc0;" horiz-adv-x="1540"
 />
    <glyph glyph-name="Aring" unicode="&#xc5;" horiz-adv-x="1540"
 />
    <glyph glyph-name="Atilde" unicode="&#xc3;" horiz-adv-x="1540"
 />
    <glyph glyph-name="Ccedilla" unicode="&#xc7;" horiz-adv-x="1399"
 />
    <glyph glyph-name="Eacute" unicode="&#xc9;" horiz-adv-x="1151"
 />
    <glyph glyph-name="Ecircumflex" unicode="&#xca;" horiz-adv-x="1151"
 />
    <glyph glyph-name="Edieresis" unicode="&#xcb;" horiz-adv-x="1151"
 />
    <glyph glyph-name="Egrave" unicode="&#xc8;" horiz-adv-x="1151"
 />
    <glyph glyph-name="Iacute" unicode="&#xcd;" horiz-adv-x="657"
 />
    <glyph glyph-name="Icircumflex" unicode="&#xce;" horiz-adv-x="657"
 />
    <glyph glyph-name="Idieresis" unicode="&#xcf;" horiz-adv-x="657"
 />
    <glyph glyph-name="Igrave" unicode="&#xcc;" horiz-adv-x="657"
 />
    <glyph glyph-name="Ntilde" unicode="&#xd1;" horiz-adv-x="1554"
 />
    <glyph glyph-name="Oacute" unicode="&#xd3;" horiz-adv-x="1614"
 />
    <glyph glyph-name="Ocircumflex" unicode="&#xd4;" horiz-adv-x="1614"
 />
    <glyph glyph-name="Odieresis" unicode="&#xd6;" horiz-adv-x="1614"
 />
    <glyph glyph-name="Ograve" unicode="&#xd2;" horiz-adv-x="1614"
 />
    <glyph glyph-name="Otilde" unicode="&#xd5;" horiz-adv-x="1614"
 />
    <glyph glyph-name="Uacute" unicode="&#xda;" horiz-adv-x="1501"
 />
    <glyph glyph-name="Ucircumflex" unicode="&#xdb;" horiz-adv-x="1501"
 />
    <glyph glyph-name="Udieresis" unicode="&#xdc;" horiz-adv-x="1501"
 />
    <glyph glyph-name="Ugrave" unicode="&#xd9;" horiz-adv-x="1501"
 />
    <glyph glyph-name="Yacute" unicode="&#xdd;" horiz-adv-x="1233"
 />
    <glyph glyph-name="aacute" unicode="&#xe1;" horiz-adv-x="922"
 />
    <glyph glyph-name="acircumflex" unicode="&#xe2;" horiz-adv-x="922"
 />
    <glyph glyph-name="adieresis" unicode="&#xe4;" horiz-adv-x="922"
 />
    <glyph glyph-name="agrave" unicode="&#xe0;" horiz-adv-x="922"
 />
    <glyph glyph-name="aring" unicode="&#xe5;" horiz-adv-x="922"
 />
    <glyph glyph-name="atilde" unicode="&#xe3;" horiz-adv-x="922"
 />
    <glyph glyph-name="ccedilla" unicode="&#xe7;" horiz-adv-x="905"
 />
    <glyph glyph-name="eacute" unicode="&#xe9;" horiz-adv-x="909"
 />
    <glyph glyph-name="ecircumflex" unicode="&#xea;" horiz-adv-x="909"
 />
    <glyph glyph-name="edieresis" unicode="&#xeb;" horiz-adv-x="909"
 />
    <glyph glyph-name="egrave" unicode="&#xe8;" horiz-adv-x="909"
 />
    <glyph glyph-name="iacute" unicode="&#xed;" horiz-adv-x="514"
 />
    <glyph glyph-name="icircumflex" unicode="&#xee;" horiz-adv-x="514"
 />
    <glyph glyph-name="idieresis" unicode="&#xef;" horiz-adv-x="514"
 />
    <glyph glyph-name="igrave" unicode="&#xec;" horiz-adv-x="514"
 />
    <glyph glyph-name="ntilde" unicode="&#xf1;" horiz-adv-x="1108"
 />
    <glyph glyph-name="oacute" unicode="&#xf3;" horiz-adv-x="1010"
 />
    <glyph glyph-name="ocircumflex" unicode="&#xf4;" horiz-adv-x="1010"
 />
    <glyph glyph-name="odieresis" unicode="&#xf6;" horiz-adv-x="1010"
 />
    <glyph glyph-name="ograve" unicode="&#xf2;" horiz-adv-x="1010"
 />
    <glyph glyph-name="otilde" unicode="&#xf5;" horiz-adv-x="1010"
 />
    <glyph glyph-name="uacute" unicode="&#xfa;" horiz-adv-x="1059"
 />
    <glyph glyph-name="ucircumflex" unicode="&#xfb;" horiz-adv-x="1059"
 />
    <glyph glyph-name="udieresis" unicode="&#xfc;" horiz-adv-x="1059"
 />
    <glyph glyph-name="ugrave" unicode="&#xf9;" horiz-adv-x="1059"
 />
    <glyph glyph-name="yacute" unicode="&#xfd;" horiz-adv-x="868"
 />
    <glyph glyph-name="ydieresis" unicode="&#xff;" horiz-adv-x="868"
 />
    <glyph glyph-name="NULL" horiz-adv-x="41"
 />
    <glyph glyph-name="NULL" horiz-adv-x="41"
 />
    <glyph glyph-name="uni001D" horiz-adv-x="41"
 />
    <glyph glyph-name="Euro" unicode="&#x20ac;"
 />
    <glyph glyph-name="uni00A0" unicode="&#xa0;" horiz-adv-x="508"
 />
    <glyph glyph-name="uni00AD" unicode="&#xad;" horiz-adv-x="700"
d="M500 689h-500v33h500v-33z" />
    <glyph glyph-name="overscore" unicode="&#xaf;" horiz-adv-x="670"
 />
    <glyph glyph-name="uni00B2" unicode="&#xb2;"
 />
    <glyph glyph-name="uni00B3" unicode="&#xb3;"
 />
    <glyph glyph-name="middot" unicode="&#xb7;" horiz-adv-x="508"
 />
    <glyph glyph-name="uni00B9" unicode="&#xb9;"
 />
    <glyph glyph-name="CR" horiz-adv-x="508"
 />
    <glyph glyph-name="uni02C9" unicode="&#x2c9;" horiz-adv-x="1024"
 />
    <glyph glyph-name="franc" unicode="&#x20a3;"
 />
    <glyph glyph-name="lira" unicode="&#x20a4;"
 />
    <glyph glyph-name="peseta" unicode="&#x20a7;" horiz-adv-x="2028"
 />
    <glyph glyph-name="uni2116" unicode="&#x2116;" horiz-adv-x="1379"
d="M42 0h-42v1433h42v-158h64c-23 42 -35 67 -35 74c2 0 14 5 35 16l609 -1162l6 3h84v1227h42v-1433h-42v164h-68v-3c24 -43 36 -65 36 -68c-19 -11 -32 -16 -39 -16c-401 765 -602 1150 -602 1153h-90v-1230zM1050 818c50 0 89 -27 116 -81c6 -11 10 -29 13 -54
c0 -60 -36 -103 -107 -129l-29 -3c-56 0 -98 31 -125 93c-5 19 -7 34 -7 45c0 60 36 102 107 126c11 2 21 3 32 3zM129 802l71 -68l70 68c3 0 13 -10 29 -29c-3 0 -26 -24 -70 -71c3 0 26 -24 70 -71l-32 -29c0 3 -24 27 -71 71c0 -3 -23 -26 -70 -71l-26 29l67 71l-67 71
c0 3 10 12 29 29zM953 686c9 -60 38 -90 87 -90c0 -2 1 -3 3 -3c61 10 91 38 91 83c2 0 3 2 3 7c-10 62 -41 93 -94 93c-60 -10 -90 -40 -90 -90zM322 741h6c21 0 33 -13 36 -39c0 -15 -12 -27 -36 -35c-25 5 -39 17 -38 35c1 26 13 39 32 39zM1153 467h-222v42h222
c4 -1 6 -3 6 -7v-29c0 -4 -2 -6 -6 -6zM931 338v36h228v-36c0 -4 -2 -6 -6 -6h-216c-4 0 -6 2 -6 6zM937 242h216c4 -1 6 -3 6 -7v-35h-228v35c1 5 3 7 6 7z" />
    <glyph glyph-name="partialdiff" unicode="&#x2202;"
 />
    <glyph glyph-name="increment" unicode="&#x2206;" horiz-adv-x="1081"
 />
    <glyph glyph-name="product" unicode="&#x220f;" horiz-adv-x="1515"
 />
    <glyph glyph-name="summation" unicode="&#x2211;" horiz-adv-x="1206"
 />
    <glyph glyph-name="radical" unicode="&#x221a;"
 />
    <glyph glyph-name="infinity" unicode="&#x221e;"
 />
    <glyph glyph-name="integral" unicode="&#x222b;" horiz-adv-x="665"
 />
    <glyph glyph-name="approxequal" unicode="&#x2248;"
 />
    <glyph glyph-name="lessequal" unicode="&#x2264;"
 />
    <glyph glyph-name="greaterequal" unicode="&#x2265;"
 />
    <glyph glyph-name="uniF001" unicode="&#xf001;" horiz-adv-x="1073"
 />
    <glyph glyph-name="uniF002" unicode="&#xf002;" horiz-adv-x="1081"
 />
    <glyph glyph-name="uni0410" unicode="&#x410;" horiz-adv-x="1376"
d="M569 1433h35c4 0 37 -87 105 -259c41 -102 198 -488 467 -1163h-3c-20 -9 -32 -12 -36 -12c-34 83 -51 127 -51 130h-3l-144 -136c-1 0 -11 10 -28 31c5 1 57 51 156 150c-317 790 -476 1187 -476 1192h-6l-473 -1189c104 -100 157 -152 160 -156c0 -3 -10 -12 -29 -28
c-97 95 -147 143 -150 143l-55 -137l-38 12c0 5 190 479 569 1422zM789 618h-409v42h416v-35c0 -5 -2 -7 -7 -7zM585 519c8 -8 48 -82 121 -223h-236c77 145 115 220 115 223zM591 430h-6l-45 -93h96v3c-13 22 -28 52 -45 90z" />
    <glyph glyph-name="uni0411" unicode="&#x411;" horiz-adv-x="994"
d="M146 1392h-86v41h613v-41h-467c-6 -4 -61 -59 -165 -165v-331h286c197 0 341 -89 429 -270c26 -54 38 -114 38 -175v-12c0 -152 -69 -279 -210 -375c-72 -49 -154 -69 -244 -69h-200c-5 0 -7 2 -7 5v35h51c163 160 345 342 547 547c-77 182 -212 273 -407 273h-283v-845
h-41v1417h41v-140c3 0 38 35 105 105zM673 1198h-171v184h35c4 -1 6 -3 6 -6v-137h89v137c1 4 3 6 6 6h35v-184zM197 499h-140v41h181v-174h-181v41h140v92zM245 35h123c134 131 262 260 385 385v28c0 32 -3 61 -10 86c-148 -145 -314 -312 -498 -499zM445 48h3
c68 14 138 56 206 130c43 46 71 102 86 165c-95 -92 -193 -190 -295 -295z" />
    <glyph glyph-name="uni0412" unicode="&#x412;" horiz-adv-x="986"
d="M388 1390h-253v41h250c111 0 198 -59 260 -178c15 -38 22 -76 22 -113c0 -107 -48 -193 -147 -254c-23 -14 -38 -19 -41 -19v-3c57 -11 123 -49 191 -122c79 -85 116 -187 116 -300c0 -161 -78 -292 -235 -392c-70 -33 -139 -50 -207 -50h-209v41h206c44 0 66 3 66 9
l-366 363v-397h-41v1396h41v-726c169 -172 354 -357 554 -554c100 85 150 189 150 313c0 137 -59 252 -184 338c-70 48 -145 66 -220 66v40h3c7 0 14 -1 22 -3c98 0 175 43 229 132c22 36 31 79 31 128c0 80 -37 148 -112 204c-44 27 -86 40 -126 40zM200 1246
c53 0 89 -29 107 -87v-32c0 -41 -27 -71 -82 -90l-21 -4c-47 0 -80 25 -101 76c-4 11 -6 22 -6 34c0 47 28 80 85 100c9 0 15 1 18 3zM138 1143v-3c0 -29 16 -50 47 -63l15 -3c37 0 59 20 66 60v12c-7 37 -26 56 -56 56h-19c-25 0 -43 -20 -53 -59zM41 623v-147l416 -420
c39 14 73 30 104 47c-203 206 -377 379 -520 520z" />
    <glyph glyph-name="uni0413" unicode="&#x413;" horiz-adv-x="848"
d="M228 1433l16 -3h401v-41h-202c-137 -135 -270 -268 -399 -399v-797l165 -168l-29 -25l-136 133v-130h-35c-4 0 -6 2 -6 6v981c0 5 -1 9 -3 13c2 3 3 7 3 12v386h41v-151c3 0 50 46 139 139h-72v41h107c7 0 10 1 10 3zM44 1186v-136c114 111 227 224 339 339h-136
c-3 -1 -71 -68 -203 -203zM614 1373h28c4 -1 6 -3 6 -6v-235h-41v235c1 4 3 6 7 6z" />
    <glyph glyph-name="uni0414" unicode="&#x414;" horiz-adv-x="1267"
d="M529 1433h9c158 0 283 -77 365 -238c26 -51 35 -115 35 -186v-913h-42v909c0 113 -31 204 -95 270c-75 79 -161 117 -256 117h-26c-117 0 -217 -59 -297 -178c-35 -52 -51 -128 -51 -228v-890h-35c-4 0 -6 2 -6 7v887c0 195 77 327 228 402c52 26 108 41 171 41z
M535 1357c70 -11 105 -46 105 -105v-3h-41c-7 45 -29 67 -64 67c-44 -7 -66 -29 -66 -67h-41c9 72 45 108 107 108zM532 1224h3c70 -9 105 -44 105 -105v-3h-35c-3 0 -8 13 -16 38c-15 19 -32 29 -51 29h-9c-35 0 -55 -22 -60 -67h-41v3c10 70 45 105 104 105zM532 1094
c49 0 85 -28 108 -85v-23h-41c0 31 -16 52 -48 64c-7 0 -12 1 -16 3c-44 -7 -66 -30 -66 -67h-41c0 50 27 85 82 105c12 0 19 1 22 3zM532 321c4 0 43 -74 117 -221h-231v3c69 130 107 203 114 218zM532 233l-47 -92h98c-31 60 -48 91 -51 92zM41 -175h-41v214h1067v-214
h-34c-5 0 -7 2 -7 6v168h-985v-174z" />
    <glyph glyph-name="uni0415" unicode="&#x415;" horiz-adv-x="832"
d="M221 1434l6 -3h402v-40h-392c-36 -33 -102 -99 -197 -197v-943c77 -80 146 -148 206 -205h383v-44h-520c-4 0 -6 2 -6 6v31c1 5 3 7 6 7h78c0 3 -49 51 -147 146v-165h-40v1376h40v-149c3 0 49 46 137 137h-74v40h115c2 0 3 1 3 3zM598 1375h34v-237h-40v231c1 4 3 6 6 6
zM592 637v230h40v-236h-34c-4 0 -6 2 -6 6zM128 855c0 -3 23 -25 68 -68c0 3 23 25 69 68l25 -28l-66 -68l66 -69c0 -3 -9 -12 -28 -28c0 3 -23 26 -69 69c0 -3 -23 -26 -68 -69l-25 28l65 69l-65 68c0 3 9 12 28 28zM386 855l69 -65l68 65c3 0 12 -9 28 -28
c-3 0 -25 -23 -68 -68c3 0 25 -23 68 -69l-31 -28c0 3 -23 26 -69 69c0 -3 -23 -26 -68 -69l-25 28l65 69l-65 68c0 3 9 12 28 28zM598 298h34v-237h-34c-4 0 -6 2 -6 6v225c1 4 3 6 6 6z" />
    <glyph glyph-name="uni0416" unicode="&#x416;" horiz-adv-x="1997"
d="M876 657l-743 747l29 25l714 -711v701h45v-701l714 711c3 0 13 -10 29 -29c-457 -458 -704 -707 -743 -746v-206c36 33 103 100 200 200l-51 54l29 25c258 -255 491 -488 698 -698c0 -3 -9 -13 -28 -29c0 3 -50 52 -149 149l-150 -146c-3 0 -12 10 -28 29l146 149
c-130 133 -276 279 -438 438l-229 -232v-374c0 -5 -2 -7 -6 -7h-32c-5 0 -7 2 -7 7v374c-88 91 -165 169 -231 232c-286 -287 -431 -433 -435 -438v-3l146 -149l-29 -26l-149 146l-153 -149l-25 29c255 257 488 490 699 698c3 0 12 -9 28 -28c-3 0 -20 -17 -51 -51l200 -197
v206zM321 1391l165 -168c0 -3 -10 -13 -29 -29l-165 168c0 3 10 12 29 29zM1480 1391l25 -29c-1 -3 -57 -59 -168 -168c-3 0 -11 8 -25 25v4c1 3 57 59 168 168z" />
    <glyph glyph-name="uni0417" unicode="&#x417;" horiz-adv-x="884"
d="M288 1429h19c124 0 229 -57 308 -174c40 -60 57 -124 57 -190v-19c0 -100 -41 -190 -124 -270h-3c-1 0 -10 10 -25 29c74 76 111 152 111 228c-3 0 -122 118 -355 355c-79 0 -159 -40 -238 -121h-3c-19 14 -29 23 -29 26c84 91 178 136 282 136zM336 1388v-3
c103 -106 200 -203 291 -292h4c-6 53 -30 111 -73 174c-67 67 -124 103 -171 108c0 2 -17 6 -51 13zM456 827v-234l-218 114v6c3 0 76 38 218 114zM323 707c3 0 33 -15 92 -45v95h-3c-49 -25 -78 -41 -89 -50zM558 653c28 -21 51 -48 69 -79c38 -62 57 -129 57 -200v-6
c0 -135 -63 -246 -196 -324c-54 -32 -113 -44 -171 -44h-13c-121 0 -222 55 -304 165c0 3 32 34 95 95l25 -29l-66 -69c50 -56 104 -93 161 -108c39 -10 65 -13 77 -13l351 355c0 63 -28 130 -85 203c-3 0 -11 8 -26 25c14 19 23 29 26 29zM352 44h3c47 0 106 27 177 80
c72 76 108 146 108 209c-75 -72 -171 -168 -288 -289z" />
    <glyph glyph-name="uni0418" unicode="&#x418;" horiz-adv-x="1190"
d="M35 16h-35v1417h41v-1213h105l7 -3l720 1152c21 -11 33 -19 35 -22l-42 -67v-3h83v156h41v-1417h-35c-4 0 -6 2 -6 6v112l-137 -134c-3 0 -12 10 -29 29c6 3 61 58 166 165v1042h-108l-720 -1144h-3c-21 12 -32 20 -32 23c3 0 17 21 41 63h-86v-156c0 -4 -2 -6 -6 -6z
M137 401v3l423 676c21 -13 33 -20 35 -20c-282 -451 -423 -678 -423 -681h-3c-21 12 -32 19 -32 22zM828 1080c21 -12 31 -20 32 -23c-275 -439 -417 -665 -424 -678c-11 4 -22 11 -35 22c267 431 410 658 427 679z" />
    <glyph glyph-name="uni0419" unicode="&#x419;" horiz-adv-x="1194"
d="M179 1639h41c0 -113 56 -199 170 -256c32 -16 71 -22 115 -22c108 0 192 56 252 169c13 37 19 70 19 99v10h42v-13c0 -109 -56 -199 -169 -271c-51 -23 -100 -35 -147 -35h-4c-134 0 -234 69 -300 207c-13 47 -19 84 -19 112zM304 1581v10h41v-3c0 -73 39 -122 118 -147
c5 -2 16 -4 35 -6c72 0 123 40 154 121c0 5 1 16 3 35h41c0 -88 -47 -152 -140 -188c-16 -6 -34 -8 -54 -10c-86 0 -149 45 -189 134c-6 20 -9 38 -9 54zM428 1543v13h35c3 0 8 -9 16 -26c8 -4 17 -6 26 -6c17 6 25 17 25 32h42v-3c0 -39 -25 -63 -74 -71
c-35 0 -59 20 -70 61zM35 16h-35v1422h42v-1218h105l6 -3l722 1157c22 -12 34 -20 36 -23l-42 -67v-3h83v157h42v-1422h-36c-4 0 -6 2 -6 6v112l-137 -134c-3 0 -12 10 -29 29c6 3 61 59 166 166v1045h-109l-722 -1147h-3c-21 11 -31 19 -32 22c3 1 17 22 42 64h-86v-157
c0 -4 -2 -6 -7 -6zM850 891h-3l-93 182h192v-6c-62 -117 -94 -176 -96 -176zM879 1029v3h-58c14 -31 25 -49 32 -54c0 5 9 22 26 51zM147 588l93 -182h-192c55 109 88 170 99 182zM144 498c-17 -28 -26 -45 -26 -51h55c-16 34 -26 51 -29 51z" />
    <glyph glyph-name="uni041A" unicode="&#x41a;" horiz-adv-x="1120"
d="M758 1433c3 0 12 -10 29 -29c-283 -279 -531 -528 -746 -745v-99h290l-140 144c0 3 9 11 26 25h3c259 -256 492 -489 700 -700c0 -3 -9 -12 -28 -29c-131 133 -271 272 -418 417h-433v-404c0 -5 -2 -7 -6 -7h-35v1417h41v-703c474 472 713 710 717 713zM96 1306l70 -67
l70 67c3 0 12 -10 28 -29l-67 -70l67 -70c0 -3 -9 -12 -28 -29l-70 67l-70 -67c-3 0 -13 10 -29 29l67 70l-67 70c0 3 10 12 29 29zM373 519h-332v-60h392c0 3 -20 23 -60 60z" />
    <glyph glyph-name="uni041B" unicode="&#x41b;" horiz-adv-x="1369"
d="M566 1433h35c4 0 36 -87 104 -257c40 -101 197 -486 464 -1157h-3c-19 -9 -31 -13 -35 -13c-34 84 -51 128 -51 131h-3l-143 -137c-1 0 -11 11 -28 32c5 1 56 50 155 149c-315 785 -473 1180 -473 1185h-7l-470 -1182c104 -99 157 -151 159 -155c0 -3 -10 -13 -29 -29
c-95 95 -145 143 -149 143l-54 -137l-38 13c0 5 189 477 566 1414zM566 1217h35c5 0 33 -79 95 -235c67 -168 170 -415 299 -744c0 -2 -1 -3 -4 -3c-17 -9 -28 -13 -35 -13l-292 738c-3 -1 -18 -16 -44 -45l66 -70c0 -3 -8 -11 -25 -25h-3l-70 66c0 -3 -22 -25 -67 -66h-3
c-3 0 -12 9 -29 28c3 0 27 23 70 70l-51 48c-197 -492 -295 -740 -295 -744c-4 0 -17 4 -38 13v3c0 5 130 332 391 979zM588 1150h-7l-54 -143c0 -3 20 -23 61 -60c3 0 22 19 57 57c-38 91 -57 140 -57 146z" />
    <glyph glyph-name="uni041C" unicode="&#x41c;" horiz-adv-x="1387"
d="M0 1420h19l16 13c218 -221 369 -373 453 -454c35 23 69 35 104 35h3c35 0 69 -12 101 -35l457 454c7 -9 19 -14 34 -16v-1398c0 -4 -2 -6 -6 -6h-35v116h-3l-132 -129l-25 28l160 164v1175h-3c-102 -99 -240 -238 -415 -416c25 -37 37 -73 37 -110
c0 -80 -45 -136 -135 -167c-15 -2 -26 -3 -35 -3h-3c-82 0 -138 45 -167 135c-2 11 -3 22 -3 32v9c0 37 13 71 38 104c-276 275 -416 413 -419 416v-1181l154 -158c0 -3 -9 -12 -28 -28c-1 3 -43 45 -126 126v-107c0 -4 -2 -6 -6 -6h-35v1407zM463 847v-9
c0 -57 33 -98 98 -123c14 -2 25 -3 34 -3c61 0 103 35 126 104l3 28c0 61 -35 104 -104 126c-8 3 -16 3 -25 3c-63 0 -106 -32 -129 -97c-2 -11 -3 -21 -3 -29zM494 913l29 26l69 -67l69 67c3 0 12 -10 29 -29c-3 0 -25 -22 -66 -66v-3l66 -69l-29 -26l-69 67l-69 -67
c-3 0 -12 10 -29 29c3 0 27 23 70 69c-3 0 -27 23 -70 69z" />
    <glyph glyph-name="uni041D" unicode="&#x41d;" horiz-adv-x="1112"
d="M42 0h-42v1433h42v-1433zM912 0h-41v1433h41v-1433zM437 1028l-68 71l29 26l71 -68l71 68c3 0 12 -10 29 -29c-3 0 -27 -24 -71 -71c3 0 26 -24 71 -71l-29 -25l-71 67l-71 -67c-3 0 -12 9 -29 28c3 0 26 23 68 68v3zM402 768v35h131v-42h-125c-4 0 -6 2 -6 7zM797 697
h-656v42h649c5 -1 7 -3 7 -6v-36zM408 672h125v-42h-131v35c1 5 3 7 6 7zM398 511c0 -3 24 -26 71 -71c0 3 24 27 71 71l29 -32c-3 0 -27 -24 -71 -71c3 0 26 -24 71 -71l-29 -25l-71 67l-71 -67c-3 0 -12 10 -29 29l68 70l-68 71c0 3 10 12 29 29z" />
    <glyph glyph-name="uni041E" unicode="&#x41e;" horiz-adv-x="1617"
d="M688 1433h31c220 0 408 -98 565 -293c89 -134 133 -272 133 -414c0 -187 -65 -357 -207 -500c-143 -144 -315 -210 -503 -210c-205 0 -389 78 -537 247c-118 135 -170 290 -170 451v31c0 188 73 365 238 512c138 123 293 176 450 176zM40 741v-24
c0 -215 96 -396 287 -544c125 -78 252 -117 380 -117c215 0 401 89 543 278c91 121 127 255 127 392c0 208 -84 392 -266 534c-121 95 -257 133 -395 133h-24c-195 0 -367 -86 -516 -259c-91 -129 -136 -260 -136 -393zM707 1306c189 0 351 -79 475 -247
c74 -100 105 -216 105 -339c0 -143 -48 -276 -157 -392c-117 -125 -262 -182 -423 -182c-202 0 -367 91 -494 274c-57 101 -86 203 -86 306c0 181 73 340 231 463c107 83 228 117 349 117zM167 726c0 -184 79 -339 247 -454c89 -61 191 -86 296 -86c175 0 324 74 438 228
c69 94 99 201 99 315c0 178 -76 331 -238 445c-94 66 -198 92 -302 92c-135 0 -263 -45 -371 -148c-117 -111 -169 -245 -169 -392zM611 794l31 28c0 -3 23 -25 68 -68c0 3 23 25 68 68l25 -28l-65 -68l65 -68c0 -3 -9 -12 -28 -28l-68 65l-68 -65c-3 0 -12 9 -28 28
c3 0 25 23 68 68c-3 0 -25 23 -68 68z" />
    <glyph glyph-name="uni041F" unicode="&#x41f;" horiz-adv-x="1175"
d="M165 1388h-57v41h781v-41h-82c1 -3 43 -46 127 -127v162h41v-1417h-41v156l-166 -162l-25 29l191 193v978c-1 4 -58 60 -169 169v-153c0 -4 -2 -6 -6 -6h-203v178h-108v-172c0 -4 -2 -6 -7 -6h-203v178h-9c-56 -53 -119 -116 -188 -188v-978l191 -193
c0 -3 -10 -13 -29 -29l-162 159v-149h-41v1413h41v-159c3 0 44 41 124 124zM406 1258v120h-127v-127h121c4 0 6 2 6 7zM724 1258v120h-127v-127h121c4 0 6 2 6 7z" />
    <glyph glyph-name="uni0420" unicode="&#x420;" horiz-adv-x="790"
d="M232 1392h-154v41h151c116 0 217 -51 295 -160c47 -65 66 -137 66 -210c0 -119 -51 -221 -160 -301c-63 -46 -137 -66 -217 -66h-3c-53 0 -89 29 -107 88v19c11 69 45 103 104 103h3c69 -9 104 -44 104 -103v-3c0 -21 -5 -39 -16 -54h3c81 23 145 69 194 138
c36 65 54 124 54 179c0 105 -45 194 -135 267c-61 41 -121 62 -182 62zM41 16h-41v1398h41v-1226c103 -105 156 -158 157 -160c0 -3 -10 -12 -29 -28c-1 4 -44 47 -128 129v-113zM144 803v-3c9 -42 30 -63 63 -63h3c42 7 63 28 63 63v6c-7 39 -27 59 -60 59h-9
c-33 0 -53 -21 -60 -62z" />
    <glyph glyph-name="uni0421" unicode="&#x421;" horiz-adv-x="1240"
d="M694 1429h31c94 0 189 -21 284 -62v-200h-41v169c0 8 -40 21 -121 40h-10l-784 -788c26 -125 75 -223 140 -298c53 -61 104 -110 159 -144c117 -71 237 -106 361 -106c97 0 192 22 286 66v149h41v-171c0 -7 -38 -24 -115 -53c-85 -21 -155 -31 -212 -31
c-207 0 -392 78 -542 249c-119 136 -171 292 -171 455v31c0 189 74 368 240 517c139 124 295 177 454 177zM40 747v-59c0 -11 1 -26 4 -47c270 268 518 516 744 744c-21 3 -36 4 -47 4h-59c-262 -260 -476 -474 -642 -642zM47 813c217 214 406 404 569 569
c-117 -20 -216 -59 -295 -118c-65 -48 -120 -102 -162 -165c-66 -99 -102 -195 -112 -286zM629 308c0 -3 23 -25 68 -68c0 3 23 25 69 68l25 -28l-66 -68l66 -69c0 -3 -9 -12 -28 -28c0 3 -23 26 -69 69c0 -3 -23 -26 -68 -69l-25 28l65 69l-65 68c0 3 9 12 28 28z" />
    <glyph glyph-name="uni0422" unicode="&#x422;" horiz-adv-x="1319"
d="M0 1326l69 73v34h985v-34l65 -69v-4c0 -3 -9 -12 -28 -28c0 3 -23 26 -69 69c0 -3 -23 -26 -69 -69l-25 28l63 66h-248c-6 -3 -59 -57 -160 -160v-1038l160 -163v-3c0 -3 -9 -12 -28 -28c-1 4 -45 48 -132 132v-126c0 -4 -2 -6 -6 -6h-31c-5 0 -7 2 -7 6v126l-134 -132
l-26 28l160 163v1044c0 3 -52 56 -156 157h-251l62 -66l-31 -28c0 3 -23 26 -69 69c0 -3 -23 -26 -69 -69zM684 1392h-242c1 -3 33 -35 97 -97c0 21 2 31 7 31h31c4 0 6 -11 6 -34c3 0 36 33 101 100z" />
    <glyph glyph-name="uni0423" unicode="&#x423;" horiz-adv-x="1349"
d="M29 1433l550 -548c175 178 357 360 545 545l25 -29v-3l-550 -554c2 -266 3 -467 3 -602v-57l162 -166c0 -3 -8 -11 -25 -24h-4l-133 130v-115h-42v118l-137 -133c-3 0 -12 9 -28 28c110 106 165 162 165 168c0 104 -1 323 -3 656c-177 175 -363 360 -557 557
c0 3 10 12 29 29zM471 1232v4h35c3 0 8 -13 16 -39c15 -19 32 -28 51 -28h10c35 0 55 22 60 67h41v-4c0 -51 -28 -86 -85 -105h-32c-41 0 -72 27 -93 80c-2 8 -3 16 -3 25zM471 1099v3h42v-10c9 -38 30 -57 63 -57h3c35 0 57 22 64 67h41c-9 -72 -45 -108 -108 -108
c-70 11 -105 46 -105 105z" />
    <glyph glyph-name="uni0424" unicode="&#x424;" horiz-adv-x="1339"
d="M360 1433h151v-41h-148c-26 0 -51 -3 -76 -9c81 -85 168 -171 259 -259v290h47v-293c105 101 192 189 262 262c-29 6 -56 9 -79 9h-148v41h151c120 0 222 -54 300 -167c42 -61 60 -125 60 -186v-29c0 -121 -56 -224 -173 -303c-60 -40 -127 -57 -196 -57l-3 7v34h3
c137 0 240 71 309 212c13 43 19 79 19 110v22c0 61 -19 118 -57 171l-448 -451v-619l155 -158c0 -3 -8 -11 -25 -24h-3l-127 122v-110h-47v110l-126 -122h-3c-3 0 -11 7 -26 24l155 158v622c-117 119 -267 269 -448 448h-3c-36 -59 -54 -118 -54 -177v-19
c0 -113 55 -209 170 -278c49 -30 104 -41 161 -41v-41h-3c-147 0 -259 73 -337 218c-21 50 -32 97 -32 142v22c0 133 64 242 199 319c52 30 108 41 161 41zM123 1282c176 -179 317 -320 423 -423v202c-99 102 -201 204 -306 306c-39 -16 -78 -44 -117 -85zM899 1367
l-306 -310v-201c179 175 320 316 423 422v4c-47 47 -86 75 -117 85z" />
    <glyph glyph-name="uni0425" unicode="&#x425;" horiz-adv-x="1060"
d="M32 1433c8 -7 110 -181 306 -522c21 -29 50 -79 89 -152c12 16 145 241 399 674l34 -19c-269 -461 -404 -693 -404 -696v-3l404 -693l-31 -19h-7c-38 71 -65 118 -82 139l-145 -142c-3 0 -12 9 -29 28c101 98 152 150 152 155l-285 491h-3c-17 -24 -113 -188 -288 -491
c-2 0 -3 -3 -3 -9c3 0 53 -50 149 -149l-29 -25l-142 139c-55 -91 -83 -136 -85 -136l-32 19l405 696c-45 78 -180 309 -405 693c0 3 11 10 32 22zM361 1148c0 -3 23 -26 69 -69c0 3 23 26 70 69l28 -31c-3 0 -26 -23 -69 -70c3 0 26 -23 69 -70l-28 -25l-70 67l-69 -67
c-3 0 -12 10 -29 29l67 69l-67 70c0 3 10 12 29 28zM661 838h6c0 -3 38 -76 114 -218l-6 -3h-221c-5 0 -7 2 -7 6c4 0 42 72 114 215zM187 826h6c52 0 90 -29 101 -89l3 -16c0 -47 -26 -82 -79 -104l-31 -3c-46 0 -80 27 -102 82c0 12 -1 19 -3 22c12 72 47 108 105 108z
M127 728v-19c0 -28 21 -46 63 -54c44 7 66 29 66 66c-10 43 -29 64 -57 64h-12c-40 -7 -60 -26 -60 -57zM667 750h-6l-44 -92h95c0 4 -15 35 -45 92z" />
    <glyph glyph-name="uni0426" unicode="&#x426;" horiz-adv-x="1161"
d="M41 1414v-111l133 130l25 -28c-104 -106 -157 -160 -158 -162v-585c218 -221 423 -425 614 -613h60c4 -1 6 -3 6 -7v-31c0 -5 -2 -7 -6 -7h-626c-5 0 -7 2 -7 7v31c1 5 3 7 7 7h373c-176 178 -316 318 -421 420v-452h-41v1401h41zM626 1433l136 -133v114h41v-1306
c105 -105 157 -158 158 -161c0 -3 -9 -12 -28 -28l-130 126v-32h-41v73l-227 231l31 28c32 -35 97 -100 196 -196v1088l-164 168c0 3 9 12 28 28zM41 598v-73c176 -179 336 -339 481 -480h73c-174 176 -359 360 -554 553zM427 326l-51 174c109 -34 166 -51 171 -51v-3
c0 -3 -40 -43 -120 -120zM436 437c7 -16 10 -28 10 -35c3 0 11 8 25 25c-14 7 -26 10 -35 10z" />
    <glyph glyph-name="uni0427" unicode="&#x427;" horiz-adv-x="843"
d="M0 812v621h42v-621c0 -59 38 -112 115 -159h3l441 444v336h42v-1420h-35c-5 0 -7 2 -7 6v109l-131 -128l-25 29l156 160v505c-75 -83 -167 -125 -278 -125c-132 0 -233 50 -297 154c-19 30 -26 61 -26 89zM202 633c27 -11 53 -17 79 -19l320 323v96
c-139 -137 -272 -270 -399 -400zM221 848h-173v172h173v-172zM179 889v90h-89v-90h89zM342 614h3c78 0 149 31 212 93c29 35 44 71 44 109v57c-80 -77 -166 -164 -259 -259z" />
    <glyph glyph-name="uni0428" unicode="&#x428;" horiz-adv-x="1509"
d="M0 303v1130h44v-1127c0 -107 61 -189 182 -245c3 0 10 -2 20 -7l379 357v1022h55v-1115c0 -123 65 -210 195 -261c4 -2 9 -3 14 -3l376 354v1025h44v-1102c0 -94 -30 -170 -89 -229c-70 -68 -152 -102 -246 -102h-3c-139 0 -243 66 -311 197c-3 4 -4 8 -4 13
c-3 -3 -15 -24 -34 -64c-76 -97 -172 -146 -287 -146c-139 0 -243 66 -314 197c-14 43 -21 78 -21 106zM174 1009h38c43 0 76 -27 99 -82c0 -13 1 -20 3 -23c0 -47 -27 -81 -82 -102c-12 -4 -24 -6 -37 -6c-50 0 -87 28 -110 83c0 5 -1 14 -3 25c0 51 31 86 92 105z
M848 1009h10c49 0 84 -25 106 -76l3 -19v-13c0 -59 -39 -94 -116 -105c-55 0 -93 31 -113 92v16c0 49 27 83 82 102c9 2 19 3 28 3zM126 901c0 -29 21 -50 62 -63h10c46 9 69 27 69 54v19c-8 38 -29 57 -62 57h-14c-36 0 -58 -22 -65 -67zM783 901v-3c0 -33 24 -53 71 -60
c46 8 69 29 69 63v7c-9 40 -28 60 -58 60h-24c-32 0 -51 -22 -58 -67zM181 745h17c54 0 92 -28 113 -83c0 -12 1 -19 3 -22c-13 -72 -51 -108 -116 -108c-63 0 -101 34 -116 102v6c0 51 33 86 99 105zM851 745h3c75 -10 113 -45 113 -105v-3c0 -50 -28 -85 -85 -102
c-9 -3 -18 -3 -28 -3h-3c-53 0 -90 28 -109 83c-3 8 -4 16 -4 25c13 70 50 105 113 105zM126 637c10 -43 33 -64 69 -64h7c43 9 65 27 65 54v23c0 27 -22 45 -65 54h-7c-37 0 -60 -22 -69 -67zM783 640v-3c0 -37 24 -58 71 -64c46 7 69 27 69 61v9c0 27 -16 46 -48 58
c-9 2 -18 3 -27 3c-35 0 -57 -21 -65 -64zM297 45l17 -4h18c137 0 233 67 287 201c4 25 6 46 6 61v47c-99 -89 -209 -191 -328 -305zM940 41h34c125 0 216 61 273 182c12 33 18 66 18 99v22c-112 -101 -220 -202 -325 -303z" />
    <glyph glyph-name="uni0429" unicode="&#x429;" horiz-adv-x="1601"
d="M0 303v1130h41v-1025c233 -236 352 -354 357 -354c72 27 126 74 162 143c15 41 23 76 23 106v1130h51v-1019l356 -360c65 21 117 65 156 131c9 19 13 31 13 35c-3 0 -33 31 -92 92c0 3 9 12 28 29c0 -3 26 -29 77 -77c4 11 6 30 6 58v1111h42v-1102
c0 -41 -4 -76 -13 -105c35 -33 100 -97 194 -194c0 -3 -10 -12 -29 -29c-49 52 -109 113 -181 182c-65 -123 -159 -185 -283 -185h-4c-129 0 -226 66 -289 197c-3 4 -4 8 -4 13c-3 -3 -13 -24 -31 -64c-71 -97 -161 -146 -268 -146c-129 0 -227 66 -293 197
c-13 43 -19 78 -19 106zM178 1035h4c19 -30 58 -103 117 -220h-235c65 122 103 195 114 220zM793 1035h3c0 -3 38 -77 115 -220h-236c76 146 115 219 118 220zM134 857h95v3l-44 89c-15 -21 -32 -51 -51 -92zM790 949l-45 -92h96v3c-25 49 -42 78 -51 89zM182 771h3
l114 -220l-6 -3h-226c11 29 49 103 115 223zM790 771h6c13 -29 51 -103 115 -220l-7 -3h-223l-6 3c71 132 109 205 115 220zM134 592h95v3c-15 28 -30 58 -44 90c-4 -1 -21 -32 -51 -93zM841 592l-45 89h-6l-45 -89h96zM634 353v-35c0 -128 66 -217 197 -267
c27 -7 53 -10 77 -10h19l16 4c-101 103 -204 205 -309 308zM41 344v-38c0 -107 56 -189 169 -245c35 -13 70 -20 105 -20h26v4c-93 96 -193 196 -300 299z" />
    <glyph glyph-name="uni042A" unicode="&#x42a;" horiz-adv-x="1098"
d="M285 1391h-285v41h285v-41zM345 22h-41v1410h41v-1053c107 -110 210 -213 310 -309c65 23 120 69 161 142c29 50 41 101 41 148v19c0 120 -57 217 -174 285c-46 27 -93 38 -139 38h-13c-4 0 -6 2 -6 6v32l3 6c116 0 217 -49 297 -152c51 -66 73 -138 73 -211v-19
c0 -107 -45 -202 -139 -282c-65 -56 -152 -82 -259 -82h-114v41h120c30 0 64 3 101 10v3c-102 105 -189 192 -262 262v-294zM25 1344v3h231v-3c-76 -142 -114 -215 -114 -218c-9 9 -48 82 -117 218zM190 1306h-98v-3c29 -57 45 -87 50 -89c0 3 16 33 48 92zM402 601v275h34
c5 -1 7 -3 7 -6v-269c0 -5 -2 -7 -7 -7h-28c-4 0 -6 2 -6 7z" />
    <glyph glyph-name="uni042B" unicode="&#x42b;" horiz-adv-x="1280"
d="M41 22h-41v1411h250v-41h-209v-62h75v-41h-75v-655c113 -115 262 -265 449 -450c37 65 56 126 56 184c0 128 -64 228 -193 300c-51 17 -96 27 -134 28v41c118 0 221 -50 299 -156c49 -67 69 -140 69 -213c0 -127 -57 -235 -178 -315c-57 -38 -134 -53 -225 -53h-100
c-4 0 -6 2 -6 6v35h103c79 0 119 6 119 15l-259 256v-290zM1080 1392h-459v41h459v-41zM830 1289h-74v41h193v-41h-78v-1170h78v-35c0 -4 -2 -6 -6 -6h-187v41h74v1170zM462 153l-421 418v-199c98 -101 199 -202 302 -303c37 9 76 37 119 84zM621 6v35h459v-41h-452
c-5 0 -7 2 -7 6z" />
    <glyph glyph-name="uni042C" unicode="&#x42c;" horiz-adv-x="868"
d="M28 1433l47 -44v31h44v-31l47 44c3 0 12 -9 28 -28c-3 0 -26 -23 -69 -69c3 0 26 -23 69 -69l-31 -28c0 3 -15 17 -44 43v-1257c0 -4 -2 -6 -6 -6h-31c-5 0 -7 2 -7 6v1261l-50 -47l-25 28l66 69l-66 69c0 3 9 12 28 28zM310 696h-12v44c117 0 219 -49 298 -154
c50 -66 72 -140 72 -216c0 -129 -58 -234 -176 -314c-56 -38 -126 -56 -207 -56h-128v41h110c177 0 293 80 348 241c6 29 9 53 9 72v25c0 111 -53 202 -160 273c-54 29 -105 44 -154 44zM213 141h-41v477h41v-477zM339 204h-35v351h41v-345c0 -4 -2 -6 -6 -6zM433 288v189
h44v-189c0 -4 -2 -6 -7 -6h-31c-4 0 -6 2 -6 6z" />
    <glyph glyph-name="uni042D" unicode="&#x42d;" horiz-adv-x="1230"
d="M303 1433h22c216 0 408 -89 559 -281c103 -131 146 -281 146 -434c0 -189 -66 -362 -209 -506c-145 -145 -318 -212 -509 -212c-99 0 -203 26 -312 78v178h41v-153c97 -41 187 -62 271 -62c214 0 396 91 547 274c87 129 131 263 131 403c0 215 -89 400 -275 543
c-120 92 -254 131 -393 131h-25c-78 0 -158 -17 -241 -50v-171h-40v200c98 41 194 62 287 62zM278 1364c44 0 76 -26 97 -78c2 -8 3 -16 3 -25v-3c0 -48 -26 -81 -78 -100c-8 -2 -16 -3 -25 -3h-3c-51 0 -86 29 -103 88v18c0 49 27 83 81 100c7 2 17 3 28 3zM209 1258
c7 -41 26 -62 59 -62h10c26 0 45 14 56 43c2 9 3 17 3 25c0 32 -21 52 -62 60h-3c-36 0 -57 -22 -63 -66zM521 1286h13c47 0 81 -25 100 -75c2 -8 3 -16 3 -25v-9c0 -57 -34 -90 -103 -100h-3c-58 0 -92 35 -103 106c0 52 31 86 93 103zM468 1180c9 -41 30 -62 63 -62h6
c39 8 59 26 59 53v22c0 29 -22 46 -65 53h-3c-32 0 -52 -22 -60 -66zM702 834v-228h-3l-215 112c35 23 107 61 218 116zM962 834v-228h-4c-123 65 -194 103 -212 115c123 66 195 104 216 113zM571 718l91 -47v97c-61 -30 -91 -47 -91 -50zM830 718c11 -4 42 -20 91 -47v97
c-61 -31 -91 -47 -91 -50zM531 362h12c41 0 72 -26 91 -78c2 -3 3 -10 3 -22v-9c0 -46 -26 -78 -78 -97c-8 -2 -16 -3 -25 -3c-57 0 -93 33 -106 100v6c11 69 46 103 103 103zM468 253c11 -39 31 -59 60 -59h6c41 5 62 25 62 59v15c0 27 -20 45 -59 54h-6
c-36 0 -57 -23 -63 -69zM272 284h3c69 -9 103 -44 103 -103v-3c0 -49 -27 -84 -81 -100c-9 -3 -17 -3 -25 -3c-69 11 -103 46 -103 103v3c9 69 43 103 103 103zM209 175c0 -32 21 -52 63 -59h3c36 0 57 22 62 65c-6 42 -26 63 -59 63h-10c-26 0 -45 -15 -56 -44
c-2 -8 -3 -16 -3 -25z" />
    <glyph glyph-name="uni042E" unicode="&#x42e;" horiz-adv-x="1955"
d="M1027 1433h22c183 0 352 -66 496 -209s210 -315 210 -506c0 -231 -93 -430 -294 -581c-130 -98 -276 -137 -421 -137c-183 0 -350 62 -494 197c-83 77 -132 154 -159 221c-43 105 -65 197 -65 278h-228v41h228c0 126 39 259 128 390c95 140 227 230 384 278
c67 20 132 28 193 28zM41 22h-41v1392h41v-1392zM362 737h468v-41h-468c0 -127 46 -256 138 -387c77 -89 139 -146 187 -169c60 -40 145 -71 256 -93c20 0 30 -1 31 -3l737 740c0 69 -25 165 -91 281c-82 144 -213 245 -381 299c-70 23 -133 28 -184 28h-25
c-211 0 -392 -88 -534 -271c-62 -79 -94 -161 -112 -241c-13 -56 -22 -103 -22 -143zM203 1208c49 0 84 -27 103 -81c2 -15 3 -23 3 -25c0 -51 -30 -85 -90 -103h-16c-49 0 -84 27 -103 81c0 12 -1 19 -3 22c12 71 47 106 106 106zM140 1115v-22c0 -27 20 -45 60 -53h6
c35 0 55 22 62 65c-9 42 -29 63 -62 63h-6c-40 -8 -60 -26 -60 -53zM1224 1033h-369v41h369v-41zM971 815l162 -166c0 -3 -9 -12 -28 -28l-162 166c0 3 9 12 28 28zM1030 41c71 0 106 8 106 25c171 168 363 359 575 574c2 35 3 62 3 81v3c-273 -271 -501 -498 -684 -683z
M1189 59h4c140 36 257 102 346 203c86 97 136 200 156 303c-179 -176 -347 -345 -506 -506zM203 428c49 0 84 -27 103 -81c2 -15 3 -24 3 -25c0 -51 -30 -85 -90 -103h-16c-49 0 -84 27 -103 81c0 12 -1 19 -3 22c12 71 47 106 106 106zM140 334v-22c0 -27 20 -45 60 -53h6
c35 0 55 22 62 66c-9 41 -29 62 -62 62h-6c-40 -8 -60 -26 -60 -53z" />
    <glyph glyph-name="uni042F" unicode="&#x42f;" horiz-adv-x="1048"
d="M487 1433h280v-41h-283c-117 0 -213 -62 -286 -185c-21 -56 -31 -103 -31 -142c0 -109 46 -200 141 -270c56 -41 120 -60 189 -60h311v679h40v-1401h-40v116l-132 -129c-3 0 -12 9 -29 28c6 3 60 57 161 161v69l-132 -129c-3 0 -12 9 -29 28l161 164v69l-132 -129
c-3 0 -12 9 -29 28c6 3 60 57 161 160v246h-88l-692 -689c-3 0 -12 10 -28 29c209 207 429 427 660 660h-157c-141 0 -253 60 -327 185c-36 60 -50 123 -50 185c0 117 49 220 154 299c65 49 136 69 207 69zM707 1336v-41h-3c-89 0 -152 -50 -189 -151c-2 -11 -3 -21 -3 -28
v-35c0 -64 38 -118 113 -163c31 -11 57 -16 76 -16h6v-41h-3c-104 0 -179 57 -226 170l-10 66c0 93 45 167 139 217c32 17 66 22 100 22zM669 1207c71 -9 107 -45 107 -107c-11 -69 -46 -104 -103 -104h-4c-47 0 -81 25 -100 76c-2 8 -3 16 -3 25v15c0 41 26 71 78 92
c8 2 16 3 25 3zM365 1204h15v-41c-44 -6 -66 -28 -66 -66c10 -42 29 -63 57 -63h9v-41h-3c-50 0 -83 27 -100 82c-3 11 -4 20 -4 25c0 51 31 86 92 104zM607 1106v-9c6 -40 26 -60 59 -60h7c35 0 55 22 62 66c0 35 -22 56 -66 63c-41 -7 -62 -27 -62 -60z" />
    <glyph glyph-name="uni0430" unicode="&#x430;" horiz-adv-x="1221"
d="M498 1021h25c159 0 296 -74 410 -221c59 -93 88 -186 88 -277v-499h-39v284h-3c-50 -117 -134 -203 -251 -260c-67 -32 -136 -48 -205 -48h-25c-159 0 -296 74 -410 221c-59 93 -88 186 -88 277v25c0 159 74 296 221 410c93 59 186 88 277 88zM39 520v-19
c0 -110 37 -216 121 -308c98 -106 214 -154 341 -154h19c141 0 266 60 365 185c68 85 97 179 97 277v19c0 110 -37 216 -121 308c-98 106 -214 154 -341 154h-19c-110 0 -216 -37 -308 -121c-106 -98 -154 -214 -154 -341zM314 622v33h393v-33c0 -4 -2 -6 -6 -6h-381
c-4 0 -6 2 -6 6zM507 523h7c17 -38 53 -109 108 -212h-223c55 103 91 174 108 212zM514 438h-7l-42 -88h91v3c-16 30 -30 58 -42 85z" />
    <glyph glyph-name="uni0431" unicode="&#x431;" horiz-adv-x="1228"
d="M508 1463h24c123 0 234 -39 333 -118l-24 -27c-99 71 -201 106 -306 106h-24c-115 0 -224 -34 -317 -112c-104 -88 -152 -186 -152 -287v-314h3c46 110 123 196 233 254c74 39 148 57 221 57h33c136 0 262 -54 369 -172c88 -98 127 -214 127 -339
c0 -185 -83 -337 -257 -444c-80 -49 -166 -67 -251 -67c-197 0 -354 90 -460 275c-41 71 -57 165 -57 275v445c0 5 -1 9 -3 12c2 3 3 7 3 12v39c15 70 31 117 48 142c51 104 147 185 291 236c55 20 111 27 166 27zM42 511c0 -131 50 -249 155 -348c64 -60 134 -94 205 -109
l572 575c-26 93 -68 163 -124 215c-56 53 -109 89 -164 108c-55 20 -104 31 -148 31h-36c-147 0 -275 -66 -375 -203c-60 -83 -85 -175 -85 -269zM447 45v-3c31 -2 53 -3 67 -3h24c25 0 44 11 58 34c260 256 390 387 390 393c2 13 3 26 3 39c0 29 -2 54 -6 76
c-167 -164 -345 -343 -536 -536zM227 535h-133v39h172v-160c0 -4 -2 -6 -6 -6h-166v43h133v84zM635 54c90 26 160 67 212 121c58 62 98 123 118 185c0 3 3 14 9 33c-115 -113 -228 -226 -339 -339z" />
    <glyph glyph-name="uni0432" unicode="&#x432;" horiz-adv-x="767"
d="M6 1025h275c75 0 136 -40 183 -119c14 -32 21 -65 21 -98c0 -57 -23 -110 -73 -155c-24 -22 -42 -31 -49 -31l76 -45c85 -71 128 -152 128 -244v-28c0 -102 -52 -189 -155 -262c-53 -29 -103 -43 -150 -43h-161v34c1 4 3 6 6 6h177v3c-75 77 -156 158 -241 241v-263
c0 -4 -2 -6 -6 -6h-31c-4 0 -6 2 -6 6v998c1 4 3 6 6 6zM278 985h-235v-643c97 -100 193 -197 290 -290c71 24 126 69 164 134c21 45 31 86 31 122v21c0 97 -47 180 -147 238c-44 26 -90 34 -134 34v40h31c79 0 133 46 164 137l3 37c6 77 -42 131 -125 164
c-15 4 -29 6 -42 6zM235 915h9c67 -11 101 -44 101 -100v-13c0 -40 -26 -69 -77 -88c-2 -2 -9 -3 -21 -3h-15c-34 0 -62 20 -83 61c-6 13 -9 28 -9 43c0 51 32 85 95 100zM180 805c10 -37 28 -55 55 -55h18c27 0 44 19 52 58v10c-7 39 -28 58 -64 58c-37 0 -57 -24 -61 -71z
" />
    <glyph glyph-name="uni0433" unicode="&#x433;" horiz-adv-x="661"
d="M41 0h-41v1024h461v-41h-282c-3 0 -49 -46 -138 -138v-845zM119 983h-78v-78c3 0 29 26 78 78z" />
    <glyph glyph-name="uni0434" unicode="&#x434;" horiz-adv-x="1019"
d="M411 1025c111 0 201 -55 272 -164c23 -50 35 -99 35 -146v-705h95c4 -1 6 -3 6 -7v-154c0 -4 -2 -6 -6 -6h-35v127h-737v-127h-41v167h98v664c0 159 61 263 180 319c42 19 86 32 133 32zM139 661v-651h538v702c0 121 -62 208 -187 259c-27 7 -54 13 -79 13
c-100 2 -178 -46 -237 -139c-22 -35 -35 -97 -35 -184zM408 867c44 0 72 -25 85 -76v-13h-34c-4 0 -8 10 -13 29c-13 13 -27 19 -41 19c-27 -8 -41 -24 -41 -48h-35c-4 0 -6 2 -6 7c0 35 22 62 66 79c1 0 8 1 19 3zM402 766h6c57 -6 85 -35 85 -86h-41c0 30 -15 45 -44 45
h-3c-22 0 -36 -15 -41 -45h-41v3c12 55 38 83 79 83zM411 215c0 -4 32 -65 95 -183h-193v3c63 120 95 180 98 180zM380 73h57v3c-17 30 -26 47 -26 51c-3 -1 -14 -19 -31 -54z" />
    <glyph glyph-name="uni0435" unicode="&#x435;" horiz-adv-x="1229"
d="M511 1029h7c179 0 330 -79 438 -247c54 -83 73 -170 73 -252v-37h-883v40h843v3c0 107 -40 212 -130 307c-96 100 -212 146 -338 146h-6c-160 0 -294 -67 -393 -207c-58 -81 -82 -170 -82 -261v-10c0 -153 64 -284 197 -383c84 -62 171 -88 256 -88h37
c143 0 267 66 374 197l28 -24c-35 -51 -82 -98 -144 -137c-86 -53 -172 -76 -255 -76h-43c-117 0 -232 51 -344 152c-97 107 -146 226 -146 356v10c0 119 38 229 119 325c107 126 240 186 392 186zM323 846c0 -3 22 -25 67 -67c0 3 22 25 67 67l24 -27v-3l-64 -67
c3 0 24 -21 64 -64v-3c0 -3 -8 -11 -24 -24l-67 64l-67 -64c-3 0 -12 9 -28 27l64 67l-64 67c0 3 9 12 28 27zM548 819l30 27c0 -3 22 -25 67 -67c0 3 22 25 67 67l25 -27l-64 -67l64 -67c0 -3 -9 -12 -28 -27l-67 64l-67 -64c-3 0 -12 9 -27 27c3 0 25 22 67 67
c-3 0 -25 22 -67 67z" />
    <glyph glyph-name="uni0436" unicode="&#x436;" horiz-adv-x="1488"
d="M121 1025h3l498 -495v486h44v-486l498 495h3c3 0 11 -8 25 -25v-3c-285 -286 -429 -432 -433 -437l529 -532c0 -3 -9 -12 -28 -28c-155 159 -333 336 -532 533l-62 -65v-459h-44v462c0 3 -21 23 -62 62l-535 -533l-25 28l533 536c-127 124 -273 269 -437 436
c0 3 8 11 25 25zM325 852l-118 120l28 25c3 0 42 -39 118 -118c0 -3 -9 -12 -28 -27zM932 879l121 118c3 0 12 -9 28 -28l-121 -117c-3 0 -12 9 -28 27z" />
    <glyph glyph-name="uni0437" unicode="&#x437;" horiz-adv-x="689"
d="M207 1025h3c117 0 203 -61 257 -182c8 -30 14 -59 15 -87c1 -77 -31 -145 -94 -204c-17 19 -25 29 -25 31c50 50 75 100 75 151v37c0 77 -43 140 -128 191c-33 15 -66 22 -100 22c-69 0 -127 -27 -176 -81v-3h-3c-21 14 -31 22 -31 25c58 67 127 100 207 100zM326 602h3
v-185c-95 51 -154 82 -176 91c0 2 58 33 173 94zM241 508c29 -15 45 -22 47 -22v50c-31 -16 -47 -25 -47 -28zM398 474c61 -54 91 -118 91 -191v-19c0 -91 -44 -168 -135 -226c-40 -25 -83 -34 -125 -34h-29c-71 0 -137 35 -197 106v7c20 13 32 19 35 19v-4
c50 -58 105 -87 166 -87h21c99 0 170 53 213 159c7 23 10 42 10 57v25c0 55 -25 108 -75 160c5 10 13 19 25 28z" />
    <glyph glyph-name="uni0438" unicode="&#x438;" horiz-adv-x="932"
d="M41 -5h-41v1030h41v-1030zM697 1025h35v-1030h-41v1024c1 4 3 6 6 6zM640 980c21 -12 31 -19 31 -22l-569 -913h-7c-21 12 -31 19 -31 22c3 1 146 229 429 684c92 148 142 224 147 229zM360 678c19 -13 31 -19 35 -19v-6c-125 -199 -190 -301 -195 -306
c-21 12 -31 19 -31 22c124 199 188 302 191 309zM538 678l32 -25c-2 -1 -67 -103 -195 -306c-20 13 -32 19 -35 19c119 193 185 297 198 312z" />
    <glyph glyph-name="uni0439" unicode="&#x439;" horiz-adv-x="926"
d="M219 1134h41c9 -71 45 -106 106 -106c49 0 83 27 104 81c0 5 1 14 3 25h40c0 -65 -35 -112 -106 -141c-15 -4 -31 -6 -47 -6c-66 0 -112 39 -138 116c-2 11 -3 21 -3 31zM307 1109h37c8 -12 15 -18 22 -19c11 0 16 6 16 19h41v-3c-8 -38 -27 -57 -57 -57
c-39 8 -59 28 -59 60zM41 4h-41v1020h41v-1020zM726 4h-40v1020h40v-1020zM66 76l566 905c21 -11 32 -20 35 -25c-32 -47 -221 -347 -567 -902h-3c-19 9 -29 16 -31 22z" />
    <glyph glyph-name="uni043A" unicode="&#x43a;" horiz-adv-x="862"
d="M41 10h-41v1015h41v-493l496 493h3c3 0 11 -8 25 -25v-3l-434 -437c174 -171 351 -348 531 -531l-28 -25l-531 528c-3 0 -23 -21 -62 -63v-459zM103 959l28 25l31 -28l32 28h3c3 0 11 -8 25 -25v-3l-28 -31l28 -31c0 -3 -9 -12 -28 -28c0 3 -11 13 -32 31
c0 -3 -10 -13 -31 -31c-3 0 -12 9 -28 28l31 34c-3 0 -13 10 -31 31z" />
    <glyph glyph-name="uni043B" unicode="&#x43b;" horiz-adv-x="1046"
d="M403 1021h40c269 -670 403 -1007 403 -1012h-3c-17 -8 -28 -11 -34 -11l-384 961h-3c0 -6 -128 -327 -385 -961h-3c-20 6 -31 11 -34 14c269 667 403 1003 403 1009zM381 724c0 -3 16 -18 47 -46c0 2 16 17 47 46l25 -28l-44 -47l44 -46c0 -3 -10 -12 -29 -29
c0 3 -15 18 -46 47c0 -3 -16 -18 -47 -47l-25 29l44 46l-44 47c0 3 9 12 28 28z" />
    <glyph glyph-name="uni043C" unicode="&#x43c;" horiz-adv-x="1070"
d="M34 1025l309 -306c23 29 51 44 84 44h22c50 -13 75 -27 75 -44h3l309 306c9 -8 14 -12 15 -12h19v-1011c0 -3 -2 -5 -6 -5h-35v966l-283 -281c2 -16 4 -26 6 -31c0 -53 -28 -90 -84 -112c-11 -4 -23 -7 -35 -7c-53 0 -90 30 -112 91c0 1 -1 10 -3 25c2 20 4 31 6 34
l-280 278v-958c0 -3 -2 -5 -7 -5h-31c-4 0 -6 2 -6 5v1004c0 5 8 8 25 10c0 3 3 6 9 9zM359 648c0 -42 26 -67 78 -75c35 0 59 21 71 62v22c-9 44 -31 66 -65 66h-16c-38 0 -61 -25 -68 -75z" />
    <glyph glyph-name="uni043D" unicode="&#x43d;" horiz-adv-x="864"
d="M6 1029h35v-1029h-35c-4 0 -6 2 -6 6v1017c1 4 3 6 6 6zM629 1029h35v-1029h-35c-4 0 -6 2 -6 6v1017c1 4 3 6 6 6zM390 582h-94v41h94v-41zM576 494h-469v41h469v-41zM390 406h-94v41h94v-41z" />
    <glyph glyph-name="uni043E" unicode="&#x43e;" horiz-adv-x="1225"
d="M517 1025c159 0 298 -67 408 -209c71 -91 100 -196 100 -305c0 -162 -67 -300 -206 -408c-91 -71 -195 -103 -308 -103c-161 0 -300 67 -408 206c-72 92 -103 197 -103 308c0 174 77 323 239 432c86 58 182 79 278 79zM39 511c0 -152 65 -283 200 -384
c83 -62 177 -88 275 -88c165 0 304 74 405 230c49 76 67 162 67 248c0 117 -40 227 -130 321c-97 102 -215 148 -345 148c-155 0 -289 -67 -390 -209c-59 -82 -82 -173 -82 -266zM444 605h3l67 -64c0 3 21 24 64 64h3c2 0 10 -8 24 -24v-3l-64 -67c3 0 24 -21 64 -64v-3
c0 -2 -8 -10 -24 -24h-3l-67 64c0 -3 -21 -24 -64 -64h-3c-2 0 -10 8 -24 24v3l64 67c-3 0 -24 21 -64 64v3c0 2 8 10 24 24z" />
    <glyph glyph-name="uni043F" unicode="&#x43f;" horiz-adv-x="902"
d="M40 4h-40v1021h696c4 -1 6 -3 6 -6v-1015c0 -4 -2 -5 -6 -5h-28c-4 0 -6 1 -6 5v981h-223v-124h-154c-5 0 -7 2 -7 6v118h-238v-981zM399 901v81h-80v-81h80z" />
    <glyph glyph-name="uni0440" unicode="&#x440;" horiz-adv-x="779"
d="M83 1022h108c183 0 309 -83 370 -253c14 -39 18 -77 18 -111c0 -135 -63 -245 -194 -320c-57 -33 -115 -43 -166 -43l-3 6v31c1 4 3 6 6 6h12c103 0 191 54 265 163c27 56 40 109 40 160c0 120 -57 219 -178 287c-46 26 -104 34 -173 34h-111v34c1 4 3 6 6 6zM40 -373
h-40v1373h40v-822c25 20 51 30 77 30c50 0 84 -30 102 -89v-15c0 -47 -25 -80 -74 -99c-8 -2 -16 -3 -25 -3h-9c-25 0 -49 10 -71 31v-406zM52 107v-6c9 -39 26 -59 53 -59h21c27 0 44 20 53 59v6c0 34 -22 54 -65 61c-41 -8 -62 -28 -62 -61z" />
    <glyph glyph-name="uni0441" unicode="&#x441;" horiz-adv-x="931"
d="M501 1025h22c56 0 119 -13 190 -39c0 -1 -4 -14 -12 -37h-3c-53 19 -87 28 -100 28l-550 -553v-3c10 -62 41 -130 94 -203c103 -117 227 -175 372 -175c64 0 132 16 205 49c8 -13 12 -25 12 -37c-72 -34 -147 -51 -224 -51c-113 0 -223 34 -320 115
c-128 107 -187 239 -187 383v22c0 158 66 296 208 404c90 69 191 97 293 97zM39 536v-64c169 166 340 337 514 514h-64c-129 -127 -279 -277 -450 -450zM45 599c131 129 258 256 381 381c-111 -26 -196 -71 -254 -136c-58 -53 -100 -134 -127 -245zM598 119h-223l108 208h6
c0 -3 36 -73 109 -208zM483 246l-42 -88h91v3c-24 47 -40 75 -49 85z" />
    <glyph glyph-name="uni0442" unicode="&#x442;" horiz-adv-x="1084"
d="M224 1025h16c81 0 147 -44 196 -131c2 -4 3 -7 3 -9c20 33 38 58 53 75c47 43 100 65 158 65h16c83 0 151 -45 199 -137c15 -28 19 -59 19 -90v-805h-41v808c0 83 -46 142 -137 177l-12 3l56 -59l-28 -25l-69 66c0 -3 -22 -25 -65 -66h-3c-3 0 -12 9 -28 28
c3 0 21 19 56 56c-50 -15 -84 -35 -103 -62c-31 -34 -46 -81 -46 -140v-786h-47v817c0 63 -36 116 -109 159c-23 8 -37 12 -40 12l56 -59c0 -3 -8 -11 -25 -25h-3l-69 66c0 -3 -22 -25 -65 -66h-3c-3 0 -12 9 -28 28c3 0 21 19 56 56c-57 -17 -96 -46 -119 -84
c-18 -31 -28 -60 -28 -90v-808c0 -4 -2 -6 -6 -6h-34v817c0 80 45 145 134 196c29 13 59 19 90 19z" />
    <glyph glyph-name="uni0443" unicode="&#x443;" horiz-adv-x="1042"
d="M37 1018c0 -3 127 -322 382 -957h4c0 6 127 325 382 957h3c20 -7 31 -12 34 -16c-267 -663 -401 -997 -401 -1002v-395c0 -4 -2 -6 -6 -6h-34v392c-2 13 -68 182 -199 505c-133 327 -200 497 -202 510h3c17 8 28 12 34 12zM317 645v25h34c4 0 8 -11 13 -34
c14 -21 35 -31 62 -31c31 0 51 22 59 65h40v-3c0 -52 -31 -86 -93 -103h-13c-48 0 -82 27 -102 81zM317 521v19h40v-7c0 -31 22 -51 66 -59c29 0 49 19 62 56v10h40c0 -49 -27 -83 -81 -103c-5 0 -13 -1 -25 -3c-50 0 -84 29 -102 87z" />
    <glyph glyph-name="uni0444" unicode="&#x444;" horiz-adv-x="1318"
d="M516 1022l3 -6v-34c-65 0 -133 -15 -202 -44v-3c41 -44 115 -117 220 -220v282c1 4 3 6 6 6h35c4 -1 6 -3 6 -6v-286c44 42 118 117 223 224c-71 31 -140 47 -208 47v40c184 0 333 -84 448 -252c47 -86 71 -170 71 -251v-31c0 -100 -31 -198 -99 -292
c-38 -52 -81 -93 -125 -121c-74 -48 -138 -73 -189 -77l-9 36c122 31 209 86 267 159c75 94 115 188 115 289v43c0 131 -62 251 -187 360c-29 19 -45 28 -49 28l-258 -261v-1030c0 -4 -2 -6 -6 -6h-41v1040c-82 85 -169 171 -261 260c-99 -56 -171 -146 -217 -270
c-13 -51 -19 -91 -19 -121v-37c0 -105 35 -207 115 -298c68 -77 139 -120 205 -137c11 -6 31 -12 62 -19c-5 -25 -9 -36 -12 -36c-69 10 -143 45 -221 102c-126 115 -189 243 -189 385v43c0 136 63 262 189 379c105 77 214 115 327 115z" />
    <glyph glyph-name="uni0445" unicode="&#x445;" horiz-adv-x="820"
d="M36 1025l271 -466c4 1 55 83 150 247c82 142 124 216 130 219c19 -9 30 -17 33 -23c-175 -299 -271 -461 -287 -486l287 -489c0 -5 -12 -13 -36 -23l-274 466h-3c-172 -297 -263 -453 -274 -466c-19 11 -30 16 -33 16c5 15 73 135 206 359c52 88 78 134 78 137
c-189 321 -284 484 -284 489v4c22 11 34 16 36 16zM473 614c6 0 38 -59 95 -176h-186c61 113 91 172 91 176zM134 598h3c46 0 74 -25 85 -75v-10c0 -26 -15 -50 -46 -72c-15 -4 -28 -6 -39 -6h-3c-41 0 -68 27 -79 81c11 55 38 82 79 82zM98 516c0 -23 14 -36 42 -39h4
c20 0 32 15 35 46c-9 21 -21 32 -35 32h-4c-28 -3 -42 -16 -42 -39zM480 523h-7c0 -3 -7 -17 -20 -43h46c-13 25 -19 39 -19 43z" />
    <glyph glyph-name="uni0446" unicode="&#x446;" horiz-adv-x="910"
d="M0 9v1016h43v-645c101 -103 217 -219 348 -348h138v-42h-463v42h263c-90 93 -185 188 -286 286v-316h-36c-5 0 -7 2 -7 7zM421 249l135 -132v908h42v-950l112 -114c0 -3 -10 -13 -29 -30c0 3 -28 31 -83 81v-10h-42v53l-165 168z" />
    <glyph glyph-name="uni0447" unicode="&#x447;" horiz-adv-x="678"
d="M0 582v443h41v-291h130v-139h-130v-13c0 -73 56 -121 168 -142l228 231v354h41v-1025h-41v478c-56 -55 -123 -83 -200 -83c-83 0 -153 31 -205 95c-22 27 -32 59 -32 92zM130 636v57h-54v-57h54zM266 440h3c112 20 168 72 168 155v16c-3 0 -60 -57 -171 -171z" />
    <glyph glyph-name="uni0448" unicode="&#x448;" horiz-adv-x="1076"
d="M0 214v811h34c4 -1 6 -3 6 -6v-802c0 -51 25 -98 75 -140c24 -16 40 -24 49 -24c78 75 162 158 251 250v722h46v-796c0 -85 43 -145 130 -179l245 247v728h40v-799c0 -103 -57 -177 -170 -220c-25 -4 -46 -6 -62 -6c-76 0 -140 36 -189 108c-11 16 -15 26 -15 31
c-2 0 -12 -16 -31 -49c-49 -60 -112 -90 -189 -90c-83 0 -150 44 -201 133c-13 32 -19 59 -19 81zM136 731c54 -9 81 -36 81 -81v-3c0 -35 -18 -59 -53 -74c-7 -4 -16 -6 -25 -6c-40 0 -68 21 -83 62v27c0 39 27 64 80 75zM570 731c37 0 63 -22 80 -65v-25
c0 -41 -27 -65 -80 -74h-3c-52 11 -78 35 -78 74v15c0 39 27 64 81 75zM96 653v-12c0 -19 14 -31 43 -34c25 6 38 18 38 37v3c0 24 -14 39 -41 44c-27 -5 -40 -18 -40 -38zM530 653v-9c0 -22 14 -34 43 -37c25 6 37 18 37 37v9c0 21 -14 33 -43 38c-25 -7 -37 -20 -37 -38z
M214 40h6c93 0 156 47 189 140c4 21 6 39 6 55v7c-75 -72 -142 -139 -201 -202zM641 40h6c85 0 146 43 180 130c7 17 9 34 9 53v12c-35 -33 -100 -98 -195 -195z" />
    <glyph glyph-name="uni0449" unicode="&#x449;" horiz-adv-x="1202"
d="M415 254v767h40c4 -1 6 -3 6 -6v-715c85 -87 167 -170 248 -247c26 0 61 29 105 86c0 4 2 10 6 19c-3 0 -24 22 -65 65c0 3 9 12 28 28l49 -47v814h40v-795c0 -17 -2 -35 -6 -56c3 0 48 -45 136 -136l-27 -25h-4l-120 118c-51 -83 -119 -124 -204 -124
c-95 0 -164 45 -208 136h-6c-10 -35 -40 -70 -90 -105c-40 -21 -76 -31 -108 -31h-9c-97 0 -167 48 -211 145c-10 23 -15 50 -15 81v792h40v-721c85 -87 168 -170 248 -247c47 17 84 47 108 95c14 28 19 65 19 109zM136 749c50 -94 80 -152 90 -174h-183v4
c49 93 80 150 93 170zM563 749h6c5 -12 35 -70 90 -174h-186c51 95 81 153 90 174zM136 665h-3c0 -3 -8 -20 -25 -49h53c-15 26 -23 42 -25 49zM569 662h-6c-15 -29 -22 -44 -22 -46h50v3c-15 26 -22 40 -22 43zM461 241v-24c0 -70 37 -123 111 -161c20 -10 45 -16 78 -16
h12c-72 75 -139 142 -201 201zM40 235v-6c0 -91 49 -153 146 -186c17 -2 32 -3 43 -3h6c-33 35 -98 100 -195 195z" />
    <glyph glyph-name="uni044A" unicode="&#x44a;" horiz-adv-x="823"
d="M354 4h-154v1017h40v-743c77 -79 148 -149 213 -212c86 48 129 117 129 206c0 97 -48 169 -144 213c-23 11 -50 15 -81 15h-3v40h7c111 0 194 -61 249 -182c9 -32 13 -61 13 -86v-3c0 -105 -53 -188 -161 -243c-34 -17 -71 -22 -108 -22zM0 1018h182v-3
c-51 -101 -82 -158 -93 -170c-11 27 -41 84 -89 173zM117 978h-49v-3c7 -9 14 -24 21 -43c5 0 14 15 28 46zM240 220v-176h114c17 0 35 2 56 6c-27 29 -83 85 -170 170z" />
    <glyph glyph-name="uni044B" unicode="&#x44b;" horiz-adv-x="831"
d="M631 22h-39v999h39v-999zM6 1012h30c5 -1 7 -3 7 -6v-732l209 -212c91 45 137 115 137 212c0 94 -51 164 -152 210c-29 8 -54 12 -76 12v39h3c106 0 189 -53 243 -161c16 -32 21 -70 21 -109c0 -108 -58 -190 -173 -246c-33 -10 -63 -15 -88 -15h-161c-4 0 -6 2 -6 6v996
c1 4 3 6 6 6zM43 217v-174h121c10 0 25 1 45 4v3c-25 28 -81 84 -166 167z" />
    <glyph glyph-name="uni044C" unicode="&#x44c;" horiz-adv-x="631"
d="M40 22h-40v1004h40v-1004zM163 503h-3v40h9c82 0 154 -34 210 -108c37 -49 52 -97 52 -142v-40c0 -75 -40 -144 -120 -206c-48 -29 -95 -43 -142 -43h-107v40h95c107 0 182 53 225 160c6 21 9 43 9 65v9c0 87 -42 154 -126 200c-32 18 -66 25 -102 25zM160 161v246h40
v-252h-34c-4 0 -6 2 -6 6zM296 210h-40v142h40v-142z" />
    <glyph glyph-name="uni044D" unicode="&#x44d;" horiz-adv-x="922"
d="M202 1021h27c157 0 293 -73 406 -220c58 -91 87 -182 87 -273v-28c0 -119 -42 -234 -135 -334c-104 -111 -232 -162 -376 -162c-67 0 -137 17 -211 51c0 10 6 22 18 36c66 -32 131 -48 196 -48c138 0 259 53 358 166c55 62 86 130 99 198c2 3 3 9 3 18
c-110 58 -165 88 -165 91v3l165 84c-6 61 -39 132 -99 213c-102 111 -220 166 -355 166h-15c-53 0 -113 -12 -178 -36h-3c-6 17 -9 29 -9 36c66 26 128 39 187 39zM487 603h6v-178c-110 56 -166 86 -168 91v3c32 14 86 42 162 84zM680 585h-3v-142h3c2 27 3 47 3 60v22
c0 13 -1 33 -3 60zM409 519v-3c0 -5 15 -13 45 -25v49c-27 -14 -42 -21 -45 -21zM590 513c5 0 21 -8 48 -25v52h-3c-30 -16 -45 -25 -45 -27z" />
    <glyph glyph-name="uni044E" unicode="&#x44e;" horiz-adv-x="1453"
d="M739 1021c169 0 315 -72 425 -225c63 -87 89 -187 89 -292c0 -161 -67 -302 -210 -410c-90 -69 -189 -97 -289 -97h-31c-148 0 -278 66 -391 199c-69 99 -104 196 -104 289h-157v40h157c0 125 48 246 157 351c104 101 225 145 354 145zM40 14h-40v985h40v-985zM268 525
h326v-40h-326c0 -103 44 -205 132 -307c101 -95 208 -142 320 -142h56c17 0 36 14 58 43c251 247 376 373 376 379l3 49c9 145 -57 271 -179 369c-89 71 -181 102 -271 102h-46c-106 0 -209 -44 -308 -132c-94 -103 -141 -210 -141 -321zM668 553l28 25c3 0 42 -39 117 -117
l-28 -25c-3 0 -42 39 -117 117zM865 51c118 38 208 99 265 188c46 71 64 121 64 142c-111 -108 -220 -218 -329 -330z" />
    <glyph glyph-name="uni044F" unicode="&#x44f;" horiz-adv-x="814"
d="M349 1029h204v-40h-207c-85 0 -153 -48 -204 -145c-8 -30 -12 -53 -12 -68v-31c0 -75 39 -139 120 -188c32 -20 76 -28 130 -28h194v481h40v-1006h-34c-4 0 -6 2 -6 6v250l-83 -80c-3 0 -12 9 -28 28l111 114v167h-55l-494 -490c-3 0 -11 7 -25 24v3l460 463h-86
c-136 0 -228 65 -275 194c-6 23 -10 48 -13 77c0 105 54 187 161 247c38 15 72 22 102 22zM485 868c35 0 61 -21 77 -64l3 -19c0 -36 -23 -63 -68 -80h-15c-54 9 -81 35 -81 77c7 57 35 86 84 86zM441 788c0 -29 15 -43 44 -43c25 6 37 17 37 34v12c-6 25 -18 37 -37 37
c-29 -5 -44 -19 -44 -40z" />
    <glyph glyph-name="uni0401" unicode="&#x401;" horiz-adv-x="836"
d="M241 1599c34 0 57 -20 69 -60v-11c0 -32 -18 -55 -54 -68h-23c-27 0 -47 17 -60 52c-1 5 -2 11 -2 16v7c0 28 18 49 54 62c8 1 13 2 16 2zM416 1599c31 0 53 -19 66 -56v-23c-9 -40 -31 -60 -66 -60h-11c-25 0 -44 16 -58 48c-3 7 -4 15 -4 22c0 31 18 53 54 67
c7 1 14 2 19 2zM198 1530v-4c5 -26 18 -39 39 -39h7c26 5 39 18 39 39v4c0 23 -15 37 -44 42c-27 -5 -41 -19 -41 -42zM370 1528c5 -27 18 -41 39 -41h11c23 7 35 19 35 35v11c0 21 -14 34 -42 39c-29 -5 -43 -19 -43 -44zM179 1393h-76v41h530v-41h-392
c-3 0 -69 -67 -200 -200v-949c77 -81 146 -150 207 -207h385v-40h-530v40h85c0 3 -49 52 -147 147v-160c0 -4 -2 -6 -7 -6h-34v1385h41v-147c3 0 49 46 138 137zM595 1143v232h41v-238h-34c-5 0 -7 2 -7 6zM636 629h-41v235h41v-235zM197 861c12 0 32 -5 60 -16c1 4 3 6 6 6
h3c3 0 11 -8 25 -25v-3l-6 -9v-3c11 -15 16 -33 16 -54v-3c-10 -69 -45 -103 -104 -103h-3c-17 0 -36 5 -59 16c0 -5 -2 -7 -7 -7h-3c-3 0 -11 8 -25 25v3l7 10v3c-11 15 -16 33 -16 53v3c0 50 27 84 81 101c8 2 16 3 25 3zM442 861h15c23 0 43 -6 60 -19c0 3 3 6 9 9
c3 0 12 -9 29 -28c-3 0 -7 -3 -10 -9c11 -17 16 -35 16 -53v-10c0 -45 -25 -77 -75 -97l-19 -3h-13c-13 0 -33 5 -59 16c0 -5 -2 -7 -6 -7c-3 0 -13 9 -29 28l10 7c-13 21 -19 42 -19 62c0 51 30 85 91 104zM132 754c2 -15 3 -23 3 -25h3c3 0 31 28 84 85c-7 4 -16 6 -25 6
h-3c-36 0 -57 -22 -62 -66zM392 754c0 -3 2 -12 6 -28c3 0 32 29 88 88c-9 4 -20 6 -35 6c-32 0 -52 -22 -59 -66zM251 782l-82 -84v-3l22 -3h10c26 0 45 14 56 43c2 9 3 17 3 26c-1 14 -4 21 -9 21zM429 698c8 -4 16 -6 25 -6h7c39 8 59 26 59 53v22l-3 15h-3
c-3 0 -32 -28 -85 -84zM595 59v232h41v-239h-34c-5 0 -7 2 -7 7z" />
    <glyph glyph-name="uni0451" unicode="&#x451;" horiz-adv-x="1224"
d="M413 1216h21c25 0 43 -16 55 -48c1 -5 2 -10 2 -15c-6 -43 -28 -65 -65 -65c-42 7 -63 28 -63 63v2c0 30 17 51 50 63zM584 1216h4c28 0 48 -15 59 -46c1 -5 2 -10 2 -15v-10c0 -25 -16 -43 -49 -55c-5 -1 -9 -2 -14 -2c-30 0 -51 17 -63 50c-1 7 -2 12 -2 15
c7 42 28 63 63 63zM388 1155v-4c5 -25 17 -38 38 -38c27 3 40 17 40 40c-4 25 -16 38 -36 38h-6c-24 -5 -36 -17 -36 -36zM546 1151c0 -23 15 -36 44 -38c23 6 35 17 35 34v12c0 17 -12 27 -37 32h-6c-20 0 -32 -13 -36 -40zM509 1024h6c179 0 324 -82 437 -245
c48 -86 72 -170 72 -252v-36h-879v39h840v3c0 107 -40 212 -130 306c-96 100 -211 146 -337 146h-6c-159 0 -292 -67 -391 -206c-58 -81 -82 -170 -82 -261v-9c0 -153 64 -283 197 -382c83 -62 170 -88 255 -88h36c143 0 267 66 373 197l27 -24c-34 -51 -80 -98 -142 -136
c-86 -53 -172 -76 -255 -76h-42c-117 0 -232 51 -343 152c-97 107 -145 225 -145 354v9c0 119 37 229 118 324c107 125 240 185 391 185zM373 849h9c15 0 33 -5 54 -16c0 3 3 6 9 9l25 -27c-4 -5 -6 -9 -6 -12c10 -17 15 -35 15 -54c0 -46 -23 -78 -70 -97
c-17 -4 -27 -6 -30 -6c-19 0 -40 6 -61 18c0 -3 -3 -6 -9 -9l-24 27c4 5 6 9 6 12c-10 16 -15 33 -15 52v3c9 67 42 100 97 100zM609 849h33c14 0 28 -6 43 -16l12 9l27 -30c-3 0 -6 -3 -9 -9c10 -16 15 -33 15 -51v-16c0 -39 -26 -68 -78 -87c-11 -2 -20 -3 -25 -3
c-15 0 -33 6 -54 18c0 -3 -3 -6 -9 -9c-3 0 -12 9 -28 27l9 12c-7 0 -13 18 -18 55c0 47 27 81 82 100zM315 752v-6c0 -15 3 -24 9 -25l79 82v3l-15 3h-21c-27 0 -44 -19 -52 -57zM567 746v-4l6 -21c2 0 30 28 85 85l-22 3h-12c-32 0 -51 -21 -57 -63zM430 776
c-54 -55 -81 -84 -81 -85c15 -4 24 -6 27 -6c42 7 63 27 63 61v6c0 15 -3 23 -9 24zM603 691c15 -4 24 -6 27 -6c41 7 61 26 61 57v16l-3 15h-3c-3 -1 -30 -28 -82 -82z" />
    <glyph glyph-name="uni037E" unicode="&#x37e;" horiz-adv-x="537"
d="M137 1019l33 3c75 0 126 -43 154 -128c2 -19 3 -29 3 -32c0 -71 -41 -122 -124 -154c-9 0 -21 -1 -36 -3c-65 0 -113 36 -147 108c-4 9 -9 26 -10 52c-1 74 42 125 127 154zM52 865c0 -55 31 -94 92 -115h39c43 0 76 30 98 89l4 23c-13 78 -52 117 -118 117
c-49 0 -85 -27 -108 -81c-5 -19 -7 -30 -7 -33zM0 0h147v199h43v-199h147v-3c-97 -186 -153 -292 -170 -317c-99 187 -155 294 -167 320zM268 -42h-199c65 -123 98 -187 98 -190h3c10 23 43 86 98 190z" />
    <glyph glyph-name="uni2219" unicode="&#x2219;" horiz-adv-x="508"
 />
    <glyph glyph-name="uni2215" unicode="&#x2215;" horiz-adv-x="342"
 />
    </font>
</defs>
</svg>
