<svg xmlns="http://www.w3.org/2000/svg" xmlns:xlink="http://www.w3.org/1999/xlink" viewBox="0 0 2125.2 1743.06"><defs><style>.cls-1{isolation:isolate;}.cls-2{opacity:0.3;mix-blend-mode:lighten;}.cls-3{fill:url(#linear-gradient);}.cls-4{fill:url(#linear-gradient-2);}.cls-5{fill:url(#linear-gradient-3);}.cls-6{fill:url(#linear-gradient-4);}.cls-7{fill:url(#linear-gradient-5);}.cls-8{fill:url(#linear-gradient-6);}.cls-9{fill:url(#linear-gradient-7);}.cls-10{fill:url(#linear-gradient-8);}.cls-11{fill:url(#linear-gradient-9);}.cls-12{fill:url(#linear-gradient-10);}.cls-13{fill:url(#linear-gradient-11);}.cls-14{fill:url(#linear-gradient-12);}.cls-15{fill:url(#linear-gradient-13);}.cls-16{fill:url(#linear-gradient-14);}.cls-17{fill:url(#linear-gradient-15);}.cls-18{fill:url(#linear-gradient-16);}.cls-19{fill:url(#linear-gradient-17);}.cls-20{fill:url(#linear-gradient-18);}.cls-21{fill:url(#linear-gradient-19);}.cls-22{fill:url(#linear-gradient-20);}.cls-23{fill:url(#linear-gradient-21);}.cls-24{fill:url(#linear-gradient-22);}.cls-25{fill:url(#linear-gradient-23);}.cls-26{fill:url(#linear-gradient-24);}.cls-27{fill:url(#linear-gradient-25);}.cls-28{fill:url(#linear-gradient-26);}.cls-29{fill:url(#linear-gradient-27);}.cls-30{fill:url(#linear-gradient-28);}.cls-31{fill:url(#linear-gradient-29);}.cls-32{fill:url(#linear-gradient-30);}.cls-33{fill:url(#linear-gradient-31);}.cls-34{fill:url(#linear-gradient-32);}.cls-35{fill:url(#linear-gradient-33);}.cls-36{fill:url(#linear-gradient-34);}.cls-37{fill:url(#linear-gradient-35);}.cls-38{fill:url(#linear-gradient-36);}.cls-39{fill:url(#linear-gradient-37);}.cls-40{fill:url(#linear-gradient-38);}.cls-41{fill:url(#linear-gradient-39);}.cls-42{fill:url(#linear-gradient-40);}.cls-43{fill:url(#linear-gradient-41);}.cls-44{fill:url(#linear-gradient-42);}.cls-45{fill:url(#linear-gradient-43);}.cls-46{fill:url(#linear-gradient-44);}.cls-47{fill:url(#linear-gradient-45);}.cls-48{fill:url(#linear-gradient-46);}.cls-49{fill:url(#linear-gradient-47);}.cls-50{fill:url(#linear-gradient-48);}.cls-51{fill:url(#linear-gradient-49);}.cls-52{fill:url(#linear-gradient-50);}.cls-53{fill:url(#linear-gradient-51);}.cls-54{fill:url(#linear-gradient-52);}.cls-55{fill:url(#linear-gradient-53);}.cls-56{fill:url(#linear-gradient-54);}</style><linearGradient id="linear-gradient" x1="1043.63" y1="1191.58" x2="2125.2" y2="1191.58" gradientUnits="userSpaceOnUse"><stop offset="0" stop-color="#fff"/><stop offset="1"/></linearGradient><linearGradient id="linear-gradient-2" x1="0" y1="1107.44" x2="862.48" y2="1107.44" xlink:href="#linear-gradient"/><linearGradient id="linear-gradient-3" x1="1517.14" y1="179.37" x2="2025.67" y2="179.37" xlink:href="#linear-gradient"/><linearGradient id="linear-gradient-4" x1="1398.76" y1="195.67" x2="1638.11" y2="195.67" xlink:href="#linear-gradient"/><linearGradient id="linear-gradient-5" x1="1706.54" y1="319.18" x2="2089.68" y2="319.18" xlink:href="#linear-gradient"/><linearGradient id="linear-gradient-6" x1="1519.11" y1="444.07" x2="2105.97" y2="444.07" xlink:href="#linear-gradient"/><linearGradient id="linear-gradient-7" x1="1325.76" y1="205.65" x2="1545.58" y2="205.65" xlink:href="#linear-gradient"/><linearGradient id="linear-gradient-8" x1="1146.22" y1="702.32" x2="1345.49" y2="702.32" xlink:href="#linear-gradient"/><linearGradient id="linear-gradient-9" x1="1570.41" y1="570.13" x2="1799.27" y2="570.13" xlink:href="#linear-gradient"/><linearGradient id="linear-gradient-10" x1="1108.73" y1="571.12" x2="1570.41" y2="571.12" xlink:href="#linear-gradient"/><linearGradient id="linear-gradient-11" x1="1313.92" y1="830.56" x2="1744.03" y2="830.56" xlink:href="#linear-gradient"/><linearGradient id="linear-gradient-12" x1="1205.41" y1="502.06" x2="1597.91" y2="502.06" xlink:href="#linear-gradient"/><linearGradient id="linear-gradient-13" x1="1053.49" y1="1203.45" x2="1220.58" y2="1203.45" xlink:href="#linear-gradient"/><linearGradient id="linear-gradient-14" x1="1254.36" y1="1115.53" x2="1650.44" y2="1115.53" xlink:href="#linear-gradient"/><linearGradient id="linear-gradient-15" x1="1570.41" y1="573.76" x2="2125.2" y2="573.76" xlink:href="#linear-gradient"/><linearGradient id="linear-gradient-16" x1="862.48" y1="1684.52" x2="1168.61" y2="1684.52" xlink:href="#linear-gradient"/><linearGradient id="linear-gradient-17" x1="753.6" y1="1519.25" x2="1503.33" y2="1519.25" xlink:href="#linear-gradient"/><linearGradient id="linear-gradient-18" x1="1503.33" y1="990.37" x2="1963.03" y2="990.37" xlink:href="#linear-gradient"/><linearGradient id="linear-gradient-19" x1="17.46" y1="432.36" x2="298.84" y2="432.36" xlink:href="#linear-gradient"/><linearGradient id="linear-gradient-20" x1="244.01" y1="53.21" x2="557.64" y2="53.21" xlink:href="#linear-gradient"/><linearGradient id="linear-gradient-21" x1="204.53" y1="292.27" x2="592.73" y2="292.27" xlink:href="#linear-gradient"/><linearGradient id="linear-gradient-22" x1="349.14" y1="944.99" x2="1053.49" y2="944.99" xlink:href="#linear-gradient"/><linearGradient id="linear-gradient-23" x1="944.98" y1="1135.38" x2="1053.49" y2="1135.38" xlink:href="#linear-gradient"/><linearGradient id="linear-gradient-24" x1="529.12" y1="83.91" x2="647.56" y2="83.91" xlink:href="#linear-gradient"/><linearGradient id="linear-gradient-25" x1="224.27" y1="128.87" x2="599.31" y2="128.87" xlink:href="#linear-gradient"/><linearGradient id="linear-gradient-26" x1="1659.19" y1="826.84" x2="1760.61" y2="826.84" xlink:href="#linear-gradient"/><linearGradient id="linear-gradient-27" x1="1745.18" y1="791.1" x2="1799.27" y2="791.1" xlink:href="#linear-gradient"/><linearGradient id="linear-gradient-28" x1="1192.46" y1="1409.38" x2="1505.3" y2="1409.38" xlink:href="#linear-gradient"/><linearGradient id="linear-gradient-29" x1="1503.33" y1="1142.29" x2="1799.27" y2="1142.29" xlink:href="#linear-gradient"/><linearGradient id="linear-gradient-30" x1="96.6" y1="1056.46" x2="1053.49" y2="1056.46" xlink:href="#linear-gradient"/><linearGradient id="linear-gradient-31" x1="369.02" y1="263.76" x2="592.73" y2="263.76" xlink:href="#linear-gradient"/><linearGradient id="linear-gradient-32" x1="292.26" y1="440.31" x2="572.99" y2="440.31" xlink:href="#linear-gradient"/><linearGradient id="linear-gradient-33" x1="17.46" y1="299.67" x2="309.8" y2="299.67" xlink:href="#linear-gradient"/><linearGradient id="linear-gradient-34" x1="17.46" y1="621.7" x2="242.08" y2="621.7" xlink:href="#linear-gradient"/><linearGradient id="linear-gradient-35" x1="423.85" y1="518.17" x2="572.99" y2="518.17" xlink:href="#linear-gradient"/><linearGradient id="linear-gradient-36" x1="325.15" y1="365.74" x2="568.6" y2="365.74" xlink:href="#linear-gradient"/><linearGradient id="linear-gradient-37" x1="242.08" y1="626.82" x2="434.82" y2="626.82" xlink:href="#linear-gradient"/><linearGradient id="linear-gradient-38" x1="268.25" y1="773.34" x2="524.74" y2="773.34" xlink:href="#linear-gradient"/><linearGradient id="linear-gradient-39" x1="96.6" y1="1067.32" x2="800.95" y2="1067.32" xlink:href="#linear-gradient"/><linearGradient id="linear-gradient-40" x1="1031.79" y1="1118.61" x2="1102.82" y2="1118.61" xlink:href="#linear-gradient"/><linearGradient id="linear-gradient-41" x1="1035.73" y1="927.09" x2="1133.45" y2="927.09" xlink:href="#linear-gradient"/><linearGradient id="linear-gradient-42" x1="1057.14" y1="977.55" x2="1203.44" y2="977.55" xlink:href="#linear-gradient"/><linearGradient id="linear-gradient-43" x1="1140.3" y1="888.76" x2="1452.03" y2="888.76" xlink:href="#linear-gradient"/><linearGradient id="linear-gradient-44" x1="1345.49" y1="921.32" x2="1744.03" y2="921.32" xlink:href="#linear-gradient"/><linearGradient id="linear-gradient-45" x1="68.98" y1="1124.53" x2="800.95" y2="1124.53" xlink:href="#linear-gradient"/><linearGradient id="linear-gradient-46" x1="17.46" y1="650.05" x2="96.6" y2="650.05" xlink:href="#linear-gradient"/><linearGradient id="linear-gradient-47" x1="1014.03" y1="1384.96" x2="1136.36" y2="1384.96" xlink:href="#linear-gradient"/><linearGradient id="linear-gradient-48" x1="753.6" y1="1492.49" x2="1136.36" y2="1492.49" xlink:href="#linear-gradient"/><linearGradient id="linear-gradient-49" x1="1185.68" y1="1141.3" x2="1452.03" y2="1141.3" xlink:href="#linear-gradient"/><linearGradient id="linear-gradient-50" x1="1122.55" y1="1368.07" x2="1240.92" y2="1368.07" xlink:href="#linear-gradient"/><linearGradient id="linear-gradient-51" x1="1242.9" y1="634.31" x2="1659.19" y2="634.31" xlink:href="#linear-gradient"/><linearGradient id="linear-gradient-52" x1="1193.57" y1="1323.55" x2="1586.19" y2="1323.55" xlink:href="#linear-gradient"/><linearGradient id="linear-gradient-53" x1="138.73" y1="566.51" x2="434.82" y2="566.51" xlink:href="#linear-gradient"/><linearGradient id="linear-gradient-54" x1="0" y1="1205.21" x2="862.48" y2="1205.21" xlink:href="#linear-gradient"/></defs><title>Ресурс 2</title><g class="cls-1"><g id="Слой_2" data-name="Слой 2"><g id="only_copy_2" data-name="only copy 2"><g class="cls-2"><polygon class="cls-3" points="1043.63 1743.06 1480.41 1501.36 1894.73 1096.34 2125.2 763.84 1908.7 640.11 1043.63 1743.06"/><polygon class="cls-4" points="0 784.43 862.48 1625.98 17.46 588.9 0 784.43"/><polygon class="cls-5" points="1519.11 354.09 2025.67 178.07 1836.42 9.48 1638.11 4.66 1517.14 182.44 1519.11 354.09"/><polygon class="cls-6" points="1398.76 389.6 1519.11 354.09 1517.14 182.44 1638.11 4.66 1545.58 1.75 1424.41 200.2 1398.76 389.6"/><polygon class="cls-7" points="2089.68 460.3 2060.37 209.85 2025.67 178.07 1706.54 287.01 2089.68 460.3"/><polygon class="cls-8" points="1519.11 354.09 1842.68 545.47 2105.97 601.12 2089.68 460.3 1706.54 287.01 1519.11 354.09"/><polygon class="cls-9" points="1325.76 411.31 1398.76 389.6 1424.41 200.2 1545.58 1.75 1486.22 0 1365.22 190.33 1325.76 411.31"/><polygon class="cls-10" points="1146.22 788.14 1345.49 853.25 1313.92 768.41 1242.9 620.44 1205.41 551.39 1146.22 788.14"/><polygon class="cls-11" points="1659.19 756.58 1747.97 756.58 1799.27 600.71 1570.41 383.69 1659.19 756.58"/><polygon class="cls-12" points="1163.98 539.55 1108.73 693.44 1146.22 788.14 1205.41 551.39 1570.41 383.69 1519.11 354.09 1325.76 411.31 1262.63 436.95 1163.98 539.55"/><polygon class="cls-13" points="1345.49 853.25 1744.03 904.55 1659.19 756.58 1313.92 768.41 1345.49 853.25"/><polygon class="cls-14" points="1570.41 383.69 1597.91 500.21 1242.9 620.44 1205.41 551.39 1570.41 383.69"/><polygon class="cls-15" points="1185.68 979.52 1220.58 1210.11 1122.55 1427.38 1053.49 1243.9 1185.68 979.52"/><polygon class="cls-16" points="1331.68 1032.79 1254.36 1299.14 1586.19 1143.28 1650.44 931.92 1450.67 990 1331.68 1032.79"/><polygon class="cls-17" points="1570.41 383.69 1842.68 545.47 2105.97 601.12 2125.2 763.84 1963.03 693.44 1799.27 600.71 1570.41 383.69"/><polygon class="cls-18" points="1043.63 1743.06 1168.61 1658.47 862.48 1625.98 1043.63 1743.06"/><polygon class="cls-19" points="1503.33 1380.03 1136.36 1526.03 753.6 1555.62 862.48 1625.98 1168.61 1658.47 1238.95 1610.87 1503.33 1380.03"/><polygon class="cls-20" points="1963.03 693.44 1822.95 1013.06 1503.33 1380.03 1799.27 981.49 1799.27 600.71 1963.03 693.44"/><polygon class="cls-21" points="292.26 455.66 298.84 374.51 241.81 339.42 237.43 275.82 134.34 398.64 17.46 588.9 139.14 549.97 292.26 455.66"/><polygon class="cls-22" points="274.71 10.44 244.01 91.59 529.12 95.97 557.64 10.44 274.71 10.44"/><polygon class="cls-23" points="224.27 128.87 204.53 203.44 309.8 260.47 237.43 275.82 241.81 339.42 298.84 374.51 292.26 455.66 355.86 444.7 353.67 385.48 325.15 339.42 566.41 363.55 579.57 297.75 369.02 251.69 382.18 229.76 592.73 240.73 592.73 166.16 505 128.87 224.27 128.87"/><polygon class="cls-24" points="1053.49 1243.9 840.41 1206.41 524.74 900.6 349.14 646.09 674.68 922.3 944.98 1026.87 1053.49 1243.9"/><polygon class="cls-25" points="1053.49 1243.9 1031.79 1109.73 944.98 1026.87 1053.49 1243.9"/><polygon class="cls-26" points="557.64 10.44 647.56 98.17 599.31 157.38 529.12 95.97 557.64 10.44"/><polygon class="cls-27" points="224.27 128.87 505 128.87 592.73 166.16 599.31 157.38 529.12 95.97 244.01 91.59 224.27 128.87"/><path class="cls-28" d="M1751,747.53l-3,9h-88.78l84.84,148,1.15,1.61C1773.84,867.58,1754.47,800.23,1751,747.53Z"/><polygon class="cls-29" points="1799.27 600.71 1750.95 747.53 1745.18 906.15 1799.27 981.49 1799.27 600.71"/><polygon class="cls-30" points="1503.33 1380.03 1505.3 1314.92 1192.46 1503.83 1503.33 1380.03"/><polygon class="cls-31" points="1744.03 904.55 1650.44 931.92 1586.19 1143.28 1505.3 1314.92 1503.33 1380.03 1799.27 981.49 1744.03 904.55"/><polygon class="cls-32" points="96.61 693.44 228.79 734.87 800.95 1441.19 1014.03 1429.35 1053.49 1243.9 840.41 1206.41 524.74 900.6 268.25 671.74 96.61 693.44"/><polygon class="cls-33" points="369.02 251.69 579.57 297.75 592.73 240.73 382.18 229.76 369.02 251.69"/><polygon class="cls-34" points="355.86 444.7 292.26 455.66 423.85 495.14 572.99 460.05 568.6 392.06 353.67 385.48 355.86 444.7"/><polygon class="cls-35" points="244.01 91.59 224.27 128.87 204.53 203.44 309.8 260.47 237.43 275.82 134.34 398.64 17.46 588.9 56.59 209.85 274.71 10.44 244.01 91.59"/><polygon class="cls-36" points="96.61 693.44 242.08 677.36 202.34 642.09 213.3 576.29 138.73 549.97 17.46 588.9 96.61 693.44"/><polygon class="cls-37" points="434.82 576.29 452.36 514.88 524.74 514.88 572.99 460.05 423.85 495.14 434.82 576.29"/><polygon class="cls-38" points="325.15 339.42 353.67 385.48 568.6 392.06 566.41 363.55 325.15 339.42"/><polygon class="cls-39" points="349.14 646.09 397.26 612.18 434.82 576.29 366.83 598.22 242.08 677.36 349.14 646.09"/><polygon class="cls-40" points="524.74 900.6 349.14 646.09 268.25 671.74 524.74 900.6"/><polygon class="cls-41" points="96.61 693.44 800.95 1441.19 228.79 734.87 96.61 693.44"/><polygon class="cls-42" points="1053.49 1243.9 1031.79 1109.73 1035.73 993.33 1102.82 1149.19 1053.49 1243.9"/><polygon class="cls-43" points="1133.45 811.12 1098.87 837.47 1039.68 932.17 1035.73 993.33 1057.14 1043.06 1133.45 811.12"/><polygon class="cls-44" points="1203.44 940.06 1140.3 805.9 1133.45 811.12 1057.14 1043.06 1102.82 1149.19 1203.44 940.06"/><polygon class="cls-45" points="1452.03 989.38 1203.44 940.06 1140.3 805.9 1146.22 788.14 1345.49 853.25 1452.03 989.38"/><polygon class="cls-46" points="1744.03 904.55 1452.03 989.38 1345.49 853.25 1744.03 904.55"/><polygon class="cls-47" points="68.98 711.2 514.87 1348.46 753.6 1555.62 800.95 1441.19 96.61 693.44 68.98 711.2"/><polygon class="cls-48" points="17.46 588.9 96.61 693.44 68.98 711.2 17.46 588.9"/><polygon class="cls-49" points="1014.03 1429.35 1136.36 1526.03 1122.55 1427.38 1053.49 1243.9 1014.03 1429.35"/><polygon class="cls-50" points="753.6 1555.62 1136.36 1526.03 1014.03 1429.35 800.95 1441.19 753.6 1555.62"/><polygon class="cls-51" points="1203.44 940.06 1185.68 979.52 1240.92 1342.54 1331.68 1032.79 1452.03 989.38 1203.44 940.06"/><polygon class="cls-52" points="1136.36 1526.03 1193.57 1503.83 1240.92 1342.54 1220.58 1210.11 1122.55 1427.38 1136.36 1526.03"/><polygon class="cls-53" points="1597.91 500.21 1659.19 756.58 1313.92 768.41 1242.9 620.44 1597.91 500.21"/><polygon class="cls-54" points="1254.36 1299.14 1193.57 1503.83 1505.3 1314.92 1586.19 1143.28 1254.36 1299.14"/><polygon class="cls-55" points="138.73 549.97 213.3 576.29 202.34 642.09 242.08 677.36 366.83 598.22 434.82 576.29 423.85 495.14 292.26 455.66 138.73 549.97"/><polygon class="cls-56" points="186.24 1076.2 657.72 1506.42 862.48 1625.98 0 784.43 186.24 1076.2"/></g></g></g></g></svg>