<?xml version="1.0" encoding="utf-8"?>
<!-- Generator: Adobe Illustrator 21.0.0, SVG Export Plug-In . SVG Version: 6.00 Build 0)  -->
<svg version="1.1" id="Слой_1" xmlns="http://www.w3.org/2000/svg"  x="0px" y="0px"
	 viewBox="0 0 277.15 271.65" enable-background="new 0 0 277.15 271.65" xml:space="preserve">
<title>Ресурс 1</title>
<g id="Слой_2">
	<g id="Objects">
		<polygon fill="#3F879E" points="121.668,126.211 204.768,174.177 149.295,206.195 155.45,206.733 210.918,174.715
			127.818,126.749 		"/>
		<polygon fill="#F7F7FB" points="202.08,156.365 202.08,175.728 149.327,206.184 149.327,186.822 		"/>
		<polygon fill="#CECFCA" points="202.08,156.365 202.08,163.12 149.327,193.577 149.327,186.822 		"/>
		<polygon fill="#253968" points="149.327,206.184 66.232,158.208 66.232,138.845 149.327,186.822 		"/>
		<polygon fill="#1A2C57" points="204.768,157.341 204.768,154.903 151.441,185.689 151.441,185.6 149.327,186.822 149.327,186.91
			149.327,189.348 149.327,203.746 149.327,206.184 151.441,204.968 151.441,204.968 204.768,174.177 204.768,171.739
			151.441,202.525 151.441,188.127 		"/>
		<polygon fill="#355997" points="149.327,186.931 66.232,138.955 121.668,106.948 204.763,154.924 		"/>
		<polygon fill="#355997" points="204.768,171.739 204.758,171.734 204.763,171.729 202.623,170.497 202.597,170.507
			202.08,170.215 202.08,171.285 151.441,200.525 151.441,201.857 151.441,202.525 202.08,173.28 202.08,173.29 		"/>
		<polygon fill="#66A7D2" points="160.065,187.02 67.506,145.204 113.629,110.419 206.188,152.23 		"/>
		<polygon fill="#3B7FAA" points="206.188,134.93 206.188,132.486 160.065,167.182 160.065,187.02 206.188,152.23 206.188,149.787
			162.18,183.355 162.18,168.492 		"/>
		<polygon fill="#4F92C2" points="67.5,125.481 160.065,167.182 160.065,187.02 67.506,145.204 		"/>
		<polygon fill="#FCFDFF" points="162.18,168.492 203.474,137.002 203.474,149.698 162.18,181.209 		"/>
		<polygon fill="#66A7D2" points="206.188,149.787 203.468,148.613 203.474,149.698 162.18,181.209 162.18,183.355 		"/>
		<polygon fill="#DADAD6" points="162.18,168.492 203.474,137.002 203.474,142.442 162.18,173.953 		"/>
		<polygon fill="#66A7D2" points="160.065,167.182 67.506,125.366 113.629,90.581 206.188,132.398 		"/>
		<polygon fill="#F7F7FB" points="206.883,116.303 206.883,135.671 154.129,166.127 154.129,146.759 		"/>
		<polygon fill="#CECFCA" points="206.883,116.303 206.883,123.058 154.129,153.52 154.129,146.759 		"/>
		<polygon fill="#E73926" points="154.129,166.127 71.035,118.151 71.035,98.788 154.129,146.759 		"/>
		<polygon fill="#C02227" points="209.566,117.279 209.566,114.841 156.244,145.632 156.244,145.543 154.129,146.759
			154.129,146.848 154.129,149.291 154.129,163.689 154.129,166.127 156.244,164.906 156.244,164.906 209.566,134.12
			209.566,131.683 156.244,162.468 156.244,148.07 		"/>
		<polygon fill="#F1814C" points="154.129,146.874 71.035,98.898 126.471,66.891 209.566,114.867 		"/>
		<polygon fill="#F1814C" points="209.566,131.677 209.561,131.677 209.566,131.672 207.426,130.435 207.4,130.45 206.883,130.158
			206.883,131.228 156.239,160.463 156.244,161.794 156.244,162.468 206.883,133.223 206.883,133.228 		"/>
		<polygon fill="#36495E" points="159.893,114.283 86.566,92.654 111.102,64.917 184.429,86.541 		"/>
		<polygon fill="#1D2936" points="184.429,98.428 184.429,100.166 159.893,127.908 159.893,127.845 159.893,114.283 184.429,86.541
			184.429,88.222 160.88,114.946 160.88,123.142 160.88,125.152 		"/>
		<polygon fill="#FCFDFF" points="160.88,123.142 182.545,98.569 182.545,90.362 160.88,114.946 		"/>
		<polygon fill="#36495E" points="184.429,98.428 182.545,97.89 182.545,98.569 160.88,123.142 160.88,125.152 		"/>
		<polygon fill="#243140" points="86.566,106.28 86.566,92.654 159.893,114.283 159.893,127.908 		"/>
		<polygon fill="#CECFCA" points="160.88,118.067 182.545,93.489 182.545,90.362 160.88,114.946 		"/>
		<polygon fill="#BC493A" points="160.227,150.059 166.888,146.216 172.803,149.631 167.129,150.189 166.142,153.473 		"/>
		<polygon fill="#E73926" points="159.893,127.908 184.325,100.26 187.452,102.067 164.252,128.289 		"/>
	</g>
</g>
</svg>
